<svg xmlns="http://www.w3.org/2000/svg" xmlns:xlink="http://www.w3.org/1999/xlink" width="1090" height="1534" viewBox="0 0 1090 1534">
  <defs>
    <filter id="Polygon_15" x="322.5" y="336.5" width="260" height="395" filterUnits="userSpaceOnUse">
      <feOffset dy="10" input="SourceAlpha"/>
      <feGaussianBlur stdDeviation="12.5" result="blur"/>
      <feFlood flood-opacity="0.161"/>
      <feComposite operator="in" in2="blur"/>
      <feComposite in="SourceGraphic"/>
    </filter>
    <filter id="Polygon_17" x="507.5" y="336.5" width="260" height="395" filterUnits="userSpaceOnUse">
      <feOffset dy="10" input="SourceAlpha"/>
      <feGaussianBlur stdDeviation="12.5" result="blur-2"/>
      <feFlood/>
      <feComposite operator="in" in2="blur-2"/>
      <feComposite in="SourceGraphic"/>
    </filter>
    <filter id="Polygon_19" x="322.5" y="336.5" width="445" height="395" filterUnits="userSpaceOnUse">
      <feOffset dy="10" input="SourceAlpha"/>
      <feGaussianBlur stdDeviation="12.5" result="blur-3"/>
      <feFlood/>
      <feComposite operator="in" in2="blur-3"/>
      <feComposite in="SourceGraphic"/>
    </filter>
    <filter id="Path_131" x="231.718" y="906.97" width="624.344" height="183.23" filterUnits="userSpaceOnUse">
      <feOffset dy="10" input="SourceAlpha"/>
      <feGaussianBlur stdDeviation="12.5" result="blur-4"/>
      <feFlood/>
      <feComposite operator="in" in2="blur-4"/>
      <feComposite in="SourceGraphic"/>
    </filter>
  </defs>
  <g id="Group_170" data-name="Group 170" transform="translate(-5885 -571)">
    <rect id="Rectangle_16" data-name="Rectangle 16" width="1090" height="1534" transform="translate(5885 571)"/>
    <g transform="matrix(1, 0, 0, 1, 5885, 571)" filter="url(#Polygon_15)">
      <g id="Polygon_15-2" data-name="Polygon 15" transform="translate(360 364)" fill="none" stroke-linecap="round" stroke-linejoin="round">
        <path d="M76.169,56.5c4.733-16.372,27.93-16.372,32.663,0l69.89,241.781A17,17,0,0,1,162.39,320H22.61A17,17,0,0,1,6.279,298.279Z" stroke="none"/>
        <path d="M 92.50000762939453 54.218505859375 C 91.26532745361328 54.218505859375 87.13146209716797 54.58316040039062 85.77528381347656 59.27468872070312 L 15.8853759765625 301.05615234375 C 15.26864624023438 303.1897583007812 15.680419921875 305.4315490722656 17.01509094238281 307.2067565917969 C 18.34982299804688 308.9818725585938 20.38909912109375 310 22.61004638671875 310 L 162.3899230957031 310 C 164.6109161376953 310 166.6501922607422 308.9818725585938 167.9849243164062 307.2066955566406 C 169.3195953369141 305.4315490722656 169.7313690185547 303.1897583007812 169.1146392822266 301.05615234375 L 99.22468566894531 59.27468872070312 C 97.86850738525391 54.58316040039062 93.73468780517578 54.218505859375 92.50000762939453 54.218505859375 M 92.5 44.21853637695312 C 99.4825439453125 44.21853637695312 106.4650726318359 48.31161499023438 108.8313674926758 56.49774169921875 L 178.7213287353516 298.2792053222656 C 181.8638305664062 309.1504211425781 173.7062835693359 320 162.3899230957031 320 L 22.61004638671875 320 C 11.29373168945312 320 3.136184692382812 309.1504211425781 6.2786865234375 298.2792053222656 L 76.16860198974609 56.49774169921875 C 78.53491973876953 48.31161499023438 85.51746368408203 44.21853637695312 92.5 44.21853637695312 Z" stroke="none" fill="#fff"/>
      </g>
    </g>
    <g id="Polygon_16" data-name="Polygon 16" transform="translate(6499.298 1166.185) rotate(106)" fill="none" stroke-linecap="round" stroke-linejoin="round">
      <path d="M76.169,56.5c4.733-16.372,27.93-16.372,32.663,0l69.89,241.781A17,17,0,0,1,162.39,320H22.61A17,17,0,0,1,6.279,298.279Z" stroke="none"/>
      <path d="M 92.50000762939453 54.218505859375 C 91.26532745361328 54.218505859375 87.13146209716797 54.58316040039062 85.77528381347656 59.27468872070312 L 15.8853759765625 301.05615234375 C 15.26864624023438 303.1897583007812 15.680419921875 305.4315490722656 17.01509094238281 307.2067565917969 C 18.34982299804688 308.9818725585938 20.38909912109375 310 22.61004638671875 310 L 162.3899230957031 310 C 164.6109161376953 310 166.6501922607422 308.9818725585938 167.9849243164062 307.2066955566406 C 169.3195953369141 305.4315490722656 169.7313690185547 303.1897583007812 169.1146392822266 301.05615234375 L 99.22468566894531 59.27468872070312 C 97.86850738525391 54.58316040039062 93.73468780517578 54.218505859375 92.50000762939453 54.218505859375 M 92.5 44.21853637695312 C 99.4825439453125 44.21853637695312 106.4650726318359 48.31161499023438 108.8313674926758 56.49774169921875 L 178.7213287353516 298.2792053222656 C 181.8638305664062 309.1504211425781 173.7062835693359 320 162.3899230957031 320 L 22.61004638671875 320 C 11.29373168945312 320 3.136184692382812 309.1504211425781 6.2786865234375 298.2792053222656 L 76.16860198974609 56.49774169921875 C 78.53491973876953 48.31161499023438 85.51746368408203 44.21853637695312 92.5 44.21853637695312 Z" stroke="none" fill="#fff"/>
    </g>
    <g transform="matrix(1, 0, 0, 1, 5885, 571)" filter="url(#Polygon_17)">
      <g id="Polygon_17-2" data-name="Polygon 17" transform="translate(545 364)" fill="none" stroke-linecap="round" stroke-linejoin="round">
        <path d="M76.169,56.5c4.733-16.372,27.93-16.372,32.663,0l69.89,241.781A17,17,0,0,1,162.39,320H22.61A17,17,0,0,1,6.279,298.279Z" stroke="none"/>
        <path d="M 92.50000762939453 54.218505859375 C 91.26532745361328 54.218505859375 87.13146209716797 54.58316040039062 85.77528381347656 59.27468872070312 L 15.8853759765625 301.05615234375 C 15.26864624023438 303.1897583007812 15.680419921875 305.4315490722656 17.01509094238281 307.2067565917969 C 18.34982299804688 308.9818725585938 20.38909912109375 310 22.61004638671875 310 L 162.3899230957031 310 C 164.6109161376953 310 166.6501922607422 308.9818725585938 167.9849243164062 307.2066955566406 C 169.3195953369141 305.4315490722656 169.7313690185547 303.1897583007812 169.1146392822266 301.05615234375 L 99.22468566894531 59.27468872070312 C 97.86850738525391 54.58316040039062 93.73468780517578 54.218505859375 92.50000762939453 54.218505859375 M 92.5 44.21853637695312 C 99.4825439453125 44.21853637695312 106.4650726318359 48.31161499023438 108.8313674926758 56.49774169921875 L 178.7213287353516 298.2792053222656 C 181.8638305664062 309.1504211425781 173.7062835693359 320 162.3899230957031 320 L 22.61004638671875 320 C 11.29373168945312 320 3.136184692382812 309.1504211425781 6.2786865234375 298.2792053222656 L 76.16860198974609 56.49774169921875 C 78.53491973876953 48.31161499023438 85.51746368408203 44.21853637695312 92.5 44.21853637695312 Z" stroke="none" fill="#fff"/>
      </g>
    </g>
    <g id="Polygon_18" data-name="Polygon 18" transform="translate(6411.694 1344.019) rotate(-106)" fill="none" stroke-linecap="round" stroke-linejoin="round">
      <path d="M76.169,56.5c4.733-16.372,27.93-16.372,32.663,0l69.89,241.781A17,17,0,0,1,162.39,320H22.61A17,17,0,0,1,6.279,298.279Z" stroke="none"/>
      <path d="M 92.50000762939453 54.21853637695312 C 91.26532745361328 54.21853637695312 87.13146209716797 54.58316040039062 85.77528381347656 59.27471923828125 L 15.8853759765625 301.05615234375 C 15.26864624023438 303.1897583007812 15.680419921875 305.4315795898438 17.01509094238281 307.2067565917969 C 18.34982299804688 308.98193359375 20.38909912109375 310.0000305175781 22.61004638671875 310.0000305175781 L 162.3899536132812 310.0000305175781 C 164.6109161376953 310.0000305175781 166.6501922607422 308.98193359375 167.9849243164062 307.2067565917969 C 169.3195953369141 305.4315795898438 169.7313690185547 303.1897583007812 169.1146392822266 301.05615234375 L 99.22468566894531 59.27471923828125 C 97.86850738525391 54.58316040039062 93.73468780517578 54.21853637695312 92.50000762939453 54.21853637695312 M 92.5 44.21856689453125 C 99.4825439453125 44.21856689453125 106.4650726318359 48.31161499023438 108.8313674926758 56.49777221679688 L 178.7213287353516 298.2792053222656 C 181.8638305664062 309.1504821777344 173.7062835693359 320.0000305175781 162.3899536132812 320.0000305175781 L 22.61004638671875 320.0000305175781 C 11.29373168945312 320.0000305175781 3.136184692382812 309.1504821777344 6.2786865234375 298.2792053222656 L 76.16860198974609 56.49777221679688 C 78.53491973876953 48.31161499023438 85.51746368408203 44.21856689453125 92.5 44.21856689453125 Z" stroke="none" fill="#fff"/>
    </g>
    <circle id="Ellipse_21" data-name="Ellipse 21" cx="23" cy="23" r="23" transform="translate(6407 1314)" fill="#fff"/>
    <circle id="Ellipse_22" data-name="Ellipse 22" cx="11.5" cy="11.5" r="11.5" transform="translate(6534 1326)" fill="#fff"/>
    <circle id="Ellipse_23" data-name="Ellipse 23" cx="11.5" cy="11.5" r="11.5" transform="translate(6303 1326)" fill="#fff"/>
    <circle id="Ellipse_24" data-name="Ellipse 24" cx="5.5" cy="5.5" r="5.5" transform="translate(6638 1332)" fill="#fff"/>
    <circle id="Ellipse_25" data-name="Ellipse 25" cx="5.5" cy="5.5" r="5.5" transform="translate(6211 1332)" fill="#fff"/>
    <circle id="Ellipse_26" data-name="Ellipse 26" cx="3" cy="3" r="3" transform="translate(6730 1335)" fill="#fff"/>
    <circle id="Ellipse_27" data-name="Ellipse 27" cx="3" cy="3" r="3" transform="translate(6124 1335)" fill="#fff"/>
    <g transform="matrix(1, 0, 0, 1, 5885, 571)" filter="url(#Polygon_19)">
      <g id="Polygon_19-2" data-name="Polygon 19" transform="translate(360 364)" fill="none" stroke-linecap="round" stroke-linejoin="round">
        <path d="M170.282,25.457a17,17,0,0,1,29.435,0L355.253,294.491A17,17,0,0,1,340.535,320H29.465a17,17,0,0,1-14.717-25.509Z" stroke="none"/>
        <path d="M 184.9999847412109 26.96585083007812 C 183.78564453125 26.96585083007812 180.7642669677734 27.30654907226562 178.9398193359375 30.46234130859375 L 23.40447998046875 299.4965209960938 C 21.57821655273438 302.6554565429688 22.79391479492188 305.4454040527344 23.40142822265625 306.498291015625 C 24.00888061523438 307.5511169433594 25.81570434570312 310 29.464599609375 310 L 340.5353698730469 310 C 344.1842651367188 310 345.9910888671875 307.5511169433594 346.5985412597656 306.4982299804688 C 347.2060546875 305.4454040527344 348.4217529296875 302.6554565429688 346.5955505371094 299.4965209960938 L 191.0601501464844 30.46234130859375 C 189.2357025146484 27.30654907226562 186.2143249511719 26.96585083007812 184.9999847412109 26.96585083007812 M 184.9999847412109 16.9658203125 C 190.7223663330078 16.9658203125 196.4447326660156 19.79632568359375 199.7174835205078 25.457275390625 L 355.2528686523438 294.491455078125 C 361.804931640625 305.8247680664062 353.6263732910156 320 340.5353698730469 320 L 29.464599609375 320 C 16.37359619140625 320 8.195037841796875 305.8247680664062 14.74716186523438 294.491455078125 L 170.2824859619141 25.457275390625 C 173.5552368164062 19.79632568359375 179.2776031494141 16.9658203125 184.9999847412109 16.9658203125 Z" stroke="none" fill="#fff"/>
      </g>
    </g>
    <g transform="matrix(1, 0, 0, 1, 5885, 571)" filter="url(#Path_131)">
      <path id="Path_131-2" data-name="Path 131" d="M33.411,1.443q-12.543,0-20.868-8.381A28.355,28.355,0,0,1,4.218-27.75a28.355,28.355,0,0,1,8.325-20.813q8.325-8.38,20.868-8.38A28.074,28.074,0,0,1,48.174-53a24.742,24.742,0,0,1,9.768,10.6l-8.1,4.662a16.452,16.452,0,0,0-6.494-7.1,18.75,18.75,0,0,0-9.934-2.664,18.816,18.816,0,0,0-13.931,5.661,19.233,19.233,0,0,0-5.606,14.1,19.1,19.1,0,0,0,5.606,13.986A18.816,18.816,0,0,0,33.411-8.1a19.35,19.35,0,0,0,9.99-2.608,17.469,17.469,0,0,0,6.771-7.049l8.214,4.773A26.984,26.984,0,0,1,48.174-2.5,28.45,28.45,0,0,1,33.411,1.443ZM74.592,0V-81.03h9.657V0Zm37.851-23.31a18.3,18.3,0,0,0,6.826,11.544,21.228,21.228,0,0,0,13.264,4.107q10.989,0,15.984-8.1l8.214,4.662q-8.1,12.543-24.42,12.543-13.209,0-21.479-8.27t-8.27-20.923q0-12.543,8.1-20.868t20.979-8.325q12.21,0,19.924,8.6a29.932,29.932,0,0,1,7.715,20.7,29.169,29.169,0,0,1-.333,4.329Zm19.2-24.531a19.065,19.065,0,0,0-12.876,4.385,18.981,18.981,0,0,0-6.327,11.71h37.074Q148.3-39.627,143.3-43.734A17.8,17.8,0,0,0,131.646-47.841Zm92.13,40.848a28.449,28.449,0,0,1-20.757,8.436,28.264,28.264,0,0,1-20.7-8.436,28.118,28.118,0,0,1-8.492-20.757,28.118,28.118,0,0,1,8.492-20.757,28.264,28.264,0,0,1,20.7-8.436,28.449,28.449,0,0,1,20.757,8.436,28.025,28.025,0,0,1,8.547,20.757A28.025,28.025,0,0,1,223.776-6.993Zm-20.757-1a19,19,0,0,0,13.986-5.661,19.134,19.134,0,0,0,5.661-14.1,19.134,19.134,0,0,0-5.661-14.1,19,19,0,0,0-13.986-5.661,18.867,18.867,0,0,0-13.875,5.661,19.134,19.134,0,0,0-5.661,14.1,19.134,19.134,0,0,0,5.661,14.1A18.867,18.867,0,0,0,203.019-7.992Zm78.033-48.951a26.628,26.628,0,0,1,19.869,8.492,28.661,28.661,0,0,1,8.214,20.7,28.661,28.661,0,0,1-8.214,20.7,26.628,26.628,0,0,1-19.869,8.492q-13.764,0-20.979-10.989V22.2h-9.657V-55.5h9.657v9.546Q267.288-56.943,281.052-56.943ZM279.831-7.881A18.905,18.905,0,0,0,293.817-13.6a19.319,19.319,0,0,0,5.661-14.153A19.319,19.319,0,0,0,293.817-41.9a18.905,18.905,0,0,0-13.986-5.716,19.038,19.038,0,0,0-14.1,5.716,19.319,19.319,0,0,0-5.661,14.153A19.319,19.319,0,0,0,265.734-13.6,19.038,19.038,0,0,0,279.831-7.881ZM373.293-55.5h9.657V0h-9.657V-9.546Q366.078,1.443,352.314,1.443a26.628,26.628,0,0,1-19.869-8.492,28.661,28.661,0,0,1-8.214-20.7,28.661,28.661,0,0,1,8.214-20.7,26.628,26.628,0,0,1,19.869-8.492q13.764,0,20.979,10.989ZM353.535-7.881a19.038,19.038,0,0,0,14.1-5.716,19.319,19.319,0,0,0,5.661-14.153A19.319,19.319,0,0,0,367.632-41.9a19.038,19.038,0,0,0-14.1-5.716A18.905,18.905,0,0,0,339.549-41.9a19.319,19.319,0,0,0-5.661,14.153A19.319,19.319,0,0,0,339.549-13.6,18.905,18.905,0,0,0,353.535-7.881Zm80.919-38.3H419.691V-16.1q0,4.107,1.609,5.828a6.62,6.62,0,0,0,4.939,1.776q3.33.055,8.214-.166V0Q421.8,1.665,415.917-2.053T410.034-16.1V-46.176H399.045V-55.5h10.989V-68.154l9.657-2.886V-55.5h14.763Zm28.083,0Q467.31-56.5,479.853-56.5v10.1a17.5,17.5,0,0,0-12.21,3.774q-5.106,4.107-5.106,13.209V0H452.88V-55.5h9.657ZM538.905-55.5h9.657V0h-9.657V-9.546Q531.69,1.443,517.926,1.443a26.628,26.628,0,0,1-19.869-8.492,28.661,28.661,0,0,1-8.214-20.7,28.661,28.661,0,0,1,8.214-20.7,26.628,26.628,0,0,1,19.869-8.492q13.764,0,20.979,10.989ZM519.147-7.881a19.038,19.038,0,0,0,14.1-5.716,19.319,19.319,0,0,0,5.661-14.153A19.32,19.32,0,0,0,533.244-41.9a19.038,19.038,0,0,0-14.1-5.716A18.905,18.905,0,0,0,505.161-41.9,19.319,19.319,0,0,0,499.5-27.75,19.319,19.319,0,0,0,505.161-13.6,18.905,18.905,0,0,0,519.147-7.881Z" transform="translate(267.5 1018)" fill="#fff" stroke="#fff" stroke-linecap="round" stroke-width="5"/>
    </g>
    <text id="A_ChainLink_Bot_at_your_service." data-name="A ChainLink Bot at your service." transform="translate(6121 1680.519)" fill="#fff" font-size="38" font-family="Gilroy-Light, Gilroy ☞" font-weight="300" letter-spacing="0.06em"><tspan x="0" y="0">A ChainLink Bot at your service.</tspan></text>
  </g>
</svg>
