<svg xmlns="http://www.w3.org/2000/svg" xmlns:xlink="http://www.w3.org/1999/xlink" width="1089" height="1534" viewBox="0 0 1089 1534">
  <defs>
    <clipPath id="clip-Artboard_3">
      <rect width="1089" height="1534"/>
    </clipPath>
  </defs>
  <g id="Artboard_3" data-name="Artboard – 3" clip-path="url(#clip-Artboard_3)">
    <rect width="1089" height="1534" fill="#fff"/>
    <g id="Group_177" data-name="Group 177" transform="translate(-9888 -571)">
      <rect id="Rectangle_20" data-name="Rectangle 20" width="1090" height="1534" transform="translate(9887.727 571)"/>
      <path id="Path_146" data-name="Path 146" d="M2.342-25.042v-2.914H5.618v2.914l-.76,6.875H3.141Zm5.979,0v-2.914H11.6v2.914l-.76,6.875H9.082Zm17.348.628a2.719,2.719,0,0,1,.781-1.942,2.553,2.553,0,0,1,1.923-.819,2.654,2.654,0,0,1,1.942.819,2.654,2.654,0,0,1,.819,1.942,2.531,2.531,0,0,1-.819,1.9,2.719,2.719,0,0,1-1.942.781,2.623,2.623,0,0,1-1.914-.781A2.575,2.575,0,0,1,25.67-24.413ZM26.7,0V-17.71h3.39V0Zm7.2-14.854V-17.71h3.275v-5.96h3.39v5.96H45.17v2.856H40.562v8.176a7.655,7.655,0,0,0,.219,2.054,2.8,2.8,0,0,0,.609,1.165,1.759,1.759,0,0,0,.914.525,5.6,5.6,0,0,0,1.19.115q.552,0,1.228-.038A8.6,8.6,0,0,0,45.8-2.971V0q-.514.076-1.352.152T42.751.229a11.8,11.8,0,0,1-1.8-.152,4.136,4.136,0,0,1-1.819-.762,4.524,4.524,0,0,1-1.4-1.857,8.492,8.492,0,0,1-.562-3.418v-8.893Zm22.49-2.856h3.637l4.4,12.492L68.878-17.71H72.23l4.4,12.492L81.085-17.71H84.7L77.848,0H75.505L70.554-14,65.6,0H63.261Zm30.488-6.7a2.719,2.719,0,0,1,.781-1.942,2.553,2.553,0,0,1,1.923-.819,2.654,2.654,0,0,1,1.942.819,2.654,2.654,0,0,1,.819,1.942,2.531,2.531,0,0,1-.819,1.9,2.719,2.719,0,0,1-1.942.781,2.623,2.623,0,0,1-1.914-.781A2.575,2.575,0,0,1,86.874-24.413ZM87.9,0V-17.71h3.39V0Zm9.464,0V-27.308h3.39V0Zm9.464,0V-27.308h3.39V0ZM126.16,0V-27.308h3.39V0ZM134.6-24.413a2.719,2.719,0,0,1,.781-1.942,2.553,2.553,0,0,1,1.923-.819,2.654,2.654,0,0,1,1.942.819,2.654,2.654,0,0,1,.819,1.942,2.531,2.531,0,0,1-.819,1.9,2.719,2.719,0,0,1-1.942.781,2.623,2.623,0,0,1-1.914-.781A2.575,2.575,0,0,1,134.6-24.413ZM135.624,0V-17.71h3.39V0Zm7.2-14.854V-17.71H146.1v-5.96h3.39v5.96H154.1v2.856h-4.608v8.176a7.655,7.655,0,0,0,.219,2.054,2.8,2.8,0,0,0,.609,1.165,1.759,1.759,0,0,0,.914.525,5.6,5.6,0,0,0,1.19.115q.552,0,1.228-.038a8.6,8.6,0,0,0,1.076-.114V0q-.514.076-1.352.152t-1.695.076a11.8,11.8,0,0,1-1.8-.152,4.136,4.136,0,0,1-1.819-.762,4.524,4.524,0,0,1-1.4-1.857A8.492,8.492,0,0,1,146.1-5.96v-8.893Zm13.768,6a11.321,11.321,0,0,1,.592-3.7,8.644,8.644,0,0,1,1.7-2.971,7.593,7.593,0,0,1,2.732-1.942,9.445,9.445,0,0,1,3.744-.7,8.59,8.59,0,0,1,3.215.6,7.714,7.714,0,0,1,2.606,1.695,8.041,8.041,0,0,1,1.731,2.552,7.831,7.831,0,0,1,.628,3.133q0,.381-.019.933a11.209,11.209,0,0,1-.133,1.295H159.98a7.5,7.5,0,0,0,.371,2.123,5.258,5.258,0,0,0,.979,1.761,4.551,4.551,0,0,0,1.654,1.209,6.131,6.131,0,0,0,2.49.448,4.7,4.7,0,0,0,3.013-.838,4.552,4.552,0,0,0,1.454-1.961h3.446a6.441,6.441,0,0,1-.856,2.133,6.742,6.742,0,0,1-1.645,1.79,8.471,8.471,0,0,1-2.378,1.257,9.138,9.138,0,0,1-3.034.476A9.617,9.617,0,0,1,161.557-.3a7.884,7.884,0,0,1-2.779-1.99,8.164,8.164,0,0,1-1.643-2.952A11.787,11.787,0,0,1,156.59-8.855Zm3.428-1.676h10.245a4.891,4.891,0,0,0-1.416-3.713,4.954,4.954,0,0,0-3.564-1.353,5.348,5.348,0,0,0-3.744,1.314A5.04,5.04,0,0,0,160.018-10.531ZM178.433,0V-17.71h3.39v3.466a5.778,5.778,0,0,1,2.361-2.7,6.569,6.569,0,0,1,3.523-1.028,4.545,4.545,0,0,1,1.676.267v3.123q-.552-.114-.876-.152a7.022,7.022,0,0,0-.8-.038,5.211,5.211,0,0,0-4.427,1.914,8.2,8.2,0,0,0-1.457,5.094V0Zm12.4-8.845a9.635,9.635,0,0,1,.669-3.565,9.529,9.529,0,0,1,1.863-2.993,8.459,8.459,0,0,1,2.875-2.03,9.164,9.164,0,0,1,3.706-.734,7.426,7.426,0,0,1,3.641.938,6.146,6.146,0,0,1,2.557,2.584V-17.71h3.39V0h-3.39V-3.084A6.2,6.2,0,0,1,203.593-.5a7.381,7.381,0,0,1-3.651.942A9.078,9.078,0,0,1,196.236-.3a8.637,8.637,0,0,1-2.875-2.026A9.418,9.418,0,0,1,191.5-5.3,9.524,9.524,0,0,1,190.83-8.845Zm3.39,0a6.722,6.722,0,0,0,.428,2.415,6.234,6.234,0,0,0,1.188,1.968,5.65,5.65,0,0,0,1.844,1.35,5.751,5.751,0,0,0,2.453.5,5.945,5.945,0,0,0,2.481-.5,5.782,5.782,0,0,0,1.892-1.35,6.056,6.056,0,0,0,1.207-1.968,6.722,6.722,0,0,0,.428-2.415,6.722,6.722,0,0,0-.428-2.415,6.168,6.168,0,0,0-1.207-1.977,5.831,5.831,0,0,0-1.892-1.369,5.851,5.851,0,0,0-2.481-.513,5.66,5.66,0,0,0-2.453.513,5.7,5.7,0,0,0-1.844,1.369,6.326,6.326,0,0,0-1.188,1.987A6.744,6.744,0,0,0,194.219-8.845ZM215.547,0V-27.308h3.39V0Zm9.464,0V-27.308h3.39V0Zm9.2,2.3h3.39a5.233,5.233,0,0,0,1.419,3.623,4.888,4.888,0,0,0,3.494,1.195,7.483,7.483,0,0,0,2.038-.258A3.746,3.746,0,0,0,246.111,6a3.913,3.913,0,0,0,1-1.627,7.95,7.95,0,0,0,.352-2.556V-3.2A6.182,6.182,0,0,1,245.1-.553a7.1,7.1,0,0,1-3.847.991A7.943,7.943,0,0,1,238-.152a5.377,5.377,0,0,1-2.133-1.676,6.032,6.032,0,0,1-1.028-2.285,15.315,15.315,0,0,1-.286-3.256V-17.71h3.39V-8.44a11.707,11.707,0,0,0,.219,2.355,5.113,5.113,0,0,0,.743,1.843,3.533,3.533,0,0,0,1.381,1.206,4.9,4.9,0,0,0,2.19.427,4.721,4.721,0,0,0,2.219-.484,4.4,4.4,0,0,0,1.533-1.32,6.106,6.106,0,0,0,.924-1.928,8.308,8.308,0,0,0,.314-2.308V-17.71h3.39V1.828q0,4.247-2.142,6.2t-6.275,1.952a8.777,8.777,0,0,1-5.957-1.9Q234.285,6.17,234.209,2.3ZM265.23-5.96h3.275A3.175,3.175,0,0,0,269.764-3.1a5.563,5.563,0,0,0,3.15.838,4.307,4.307,0,0,0,2.426-.6,2.16,2.16,0,0,0,.9-1.936,1.752,1.752,0,0,0-.39-1.192,3.471,3.471,0,0,0-1.113-.8,12.061,12.061,0,0,0-1.772-.671l-2.381-.722q-1.009-.306-1.895-.659a5.291,5.291,0,0,1-1.523-.908,4.044,4.044,0,0,1-1.009-1.337,4.641,4.641,0,0,1-.371-1.987,4.5,4.5,0,0,1,.522-2.2,4.673,4.673,0,0,1,1.448-1.595,6.7,6.7,0,0,1,2.178-.968,10.66,10.66,0,0,1,2.67-.323,7.848,7.848,0,0,1,2.626.428,6.2,6.2,0,0,1,2.107,1.228,5.858,5.858,0,0,1,1.4,1.885,5.613,5.613,0,0,1,.51,2.418h-3.009a3.045,3.045,0,0,0-.957-2.414,4.1,4.1,0,0,0-2.792-.843,4.427,4.427,0,0,0-2.453.633,2.058,2.058,0,0,0-.977,1.841,1.789,1.789,0,0,0,.323,1.1,2.6,2.6,0,0,0,.988.748,12.425,12.425,0,0,0,1.6.609l2.19.688q1.021.3,1.995.654a6.829,6.829,0,0,1,1.715.89,4.142,4.142,0,0,1,1.195,1.355,4.215,4.215,0,0,1,.453,2.065A5.012,5.012,0,0,1,279-2.554,4.7,4.7,0,0,1,277.583-.9a6.414,6.414,0,0,1-2.144,1,10.254,10.254,0,0,1-2.682.334,10.4,10.4,0,0,1-2.884-.39,6.963,6.963,0,0,1-2.385-1.19,5.905,5.905,0,0,1-1.642-2.009A6.109,6.109,0,0,1,265.23-5.96Zm17.615-2.885a9.635,9.635,0,0,1,.669-3.565,9.529,9.529,0,0,1,1.863-2.993,8.459,8.459,0,0,1,2.875-2.03,9.164,9.164,0,0,1,3.706-.734,7.426,7.426,0,0,1,3.641.938,6.146,6.146,0,0,1,2.557,2.584V-17.71h3.39V0h-3.39V-3.084A6.2,6.2,0,0,1,295.608-.5a7.381,7.381,0,0,1-3.651.942A9.078,9.078,0,0,1,288.251-.3a8.637,8.637,0,0,1-2.875-2.026A9.417,9.417,0,0,1,283.514-5.3,9.525,9.525,0,0,1,282.845-8.845Zm3.39,0a6.721,6.721,0,0,0,.428,2.415,6.233,6.233,0,0,0,1.188,1.968,5.65,5.65,0,0,0,1.844,1.35,5.751,5.751,0,0,0,2.453.5,5.945,5.945,0,0,0,2.481-.5,5.782,5.782,0,0,0,1.892-1.35,6.055,6.055,0,0,0,1.207-1.968,6.721,6.721,0,0,0,.428-2.415,6.721,6.721,0,0,0-.428-2.415,6.167,6.167,0,0,0-1.207-1.977,5.832,5.832,0,0,0-1.892-1.369,5.851,5.851,0,0,0-2.481-.513,5.66,5.66,0,0,0-2.453.513,5.7,5.7,0,0,0-1.844,1.369,6.326,6.326,0,0,0-1.188,1.987A6.744,6.744,0,0,0,286.235-8.845Zm18.434-8.865h3.675l5.542,12.873,5.6-12.873h3.675L315.047,0H312.7Zm19.348,8.855a11.321,11.321,0,0,1,.592-3.7,8.644,8.644,0,0,1,1.7-2.971,7.593,7.593,0,0,1,2.732-1.942,9.445,9.445,0,0,1,3.744-.7,8.59,8.59,0,0,1,3.215.6,7.714,7.714,0,0,1,2.606,1.695,8.041,8.041,0,0,1,1.731,2.552,7.831,7.831,0,0,1,.628,3.133q0,.381-.019.933a11.209,11.209,0,0,1-.133,1.295H327.406a7.5,7.5,0,0,0,.371,2.123,5.258,5.258,0,0,0,.979,1.761,4.551,4.551,0,0,0,1.654,1.209,6.131,6.131,0,0,0,2.49.448,4.7,4.7,0,0,0,3.013-.838,4.552,4.552,0,0,0,1.454-1.961h3.446a6.44,6.44,0,0,1-.856,2.133,6.743,6.743,0,0,1-1.645,1.79,8.471,8.471,0,0,1-2.378,1.257A9.138,9.138,0,0,1,332.9.438,9.617,9.617,0,0,1,328.983-.3a7.884,7.884,0,0,1-2.779-1.99,8.164,8.164,0,0,1-1.643-2.952A11.787,11.787,0,0,1,324.016-8.855Zm3.428-1.676h10.245a4.891,4.891,0,0,0-1.416-3.713,4.954,4.954,0,0,0-3.564-1.353,5.349,5.349,0,0,0-3.744,1.314A5.04,5.04,0,0,0,327.444-10.531ZM355.456,2.3h3.39a5.233,5.233,0,0,0,1.419,3.623,4.888,4.888,0,0,0,3.494,1.195,7.483,7.483,0,0,0,2.038-.258A3.746,3.746,0,0,0,367.358,6a3.913,3.913,0,0,0,1-1.627,7.95,7.95,0,0,0,.352-2.556V-3.2a6.182,6.182,0,0,1-2.361,2.645A7.1,7.1,0,0,1,362.5.438a7.943,7.943,0,0,1-3.256-.59,5.377,5.377,0,0,1-2.133-1.676,6.032,6.032,0,0,1-1.028-2.285A15.315,15.315,0,0,1,355.8-7.37V-17.71h3.39V-8.44a11.707,11.707,0,0,0,.219,2.355,5.113,5.113,0,0,0,.743,1.843,3.533,3.533,0,0,0,1.381,1.206,4.9,4.9,0,0,0,2.19.427,4.721,4.721,0,0,0,2.219-.484,4.4,4.4,0,0,0,1.533-1.32,6.106,6.106,0,0,0,.924-1.928,8.308,8.308,0,0,0,.314-2.308V-17.71h3.39V1.828q0,4.247-2.142,6.2t-6.275,1.952a8.777,8.777,0,0,1-5.957-1.9Q355.532,6.17,355.456,2.3Zm21.157-11.15a9.635,9.635,0,0,1,.669-3.565,9.356,9.356,0,0,1,1.882-2.993,8.566,8.566,0,0,1,2.932-2.03,9.635,9.635,0,0,1,3.82-.734,9.787,9.787,0,0,1,3.877.734,8.768,8.768,0,0,1,2.951,2.03,9.191,9.191,0,0,1,1.9,2.993,9.635,9.635,0,0,1,.669,3.565,9.525,9.525,0,0,1-.669,3.548,9.087,9.087,0,0,1-1.9,2.968A8.955,8.955,0,0,1,389.793-.3a9.694,9.694,0,0,1-3.877.742,9.525,9.525,0,0,1-3.83-.742,8.769,8.769,0,0,1-2.923-2.026A9.248,9.248,0,0,1,377.281-5.3,9.525,9.525,0,0,1,376.613-8.845Zm3.39,0a6.721,6.721,0,0,0,.428,2.415,6.233,6.233,0,0,0,1.188,1.968,5.65,5.65,0,0,0,1.844,1.35,5.751,5.751,0,0,0,2.453.5,5.945,5.945,0,0,0,2.481-.5,5.782,5.782,0,0,0,1.892-1.35A6.055,6.055,0,0,0,391.5-6.431a6.721,6.721,0,0,0,.428-2.415,6.721,6.721,0,0,0-.428-2.415,6.167,6.167,0,0,0-1.207-1.977,5.832,5.832,0,0,0-1.892-1.369,5.851,5.851,0,0,0-2.481-.513,5.66,5.66,0,0,0-2.453.513,5.7,5.7,0,0,0-1.844,1.369,6.326,6.326,0,0,0-1.188,1.987A6.744,6.744,0,0,0,380-8.845Zm19.519,1.59V-17.71h3.39v9.346a10.351,10.351,0,0,0,.238,2.3,5.17,5.17,0,0,0,.762,1.8,3.789,3.789,0,0,0,1.362,1.206,4.421,4.421,0,0,0,2.095.446,4.9,4.9,0,0,0,2.247-.484,4.416,4.416,0,0,0,1.571-1.32,5.989,5.989,0,0,0,.933-1.928,8.308,8.308,0,0,0,.314-2.308V-17.71h3.39V0h-3.39V-3.2a6.112,6.112,0,0,1-2.4,2.645,7.188,7.188,0,0,1-3.828.991,7.785,7.785,0,0,1-3.218-.609,5.183,5.183,0,0,1-2.133-1.695,6.155,6.155,0,0,1-1.038-2.266A13.935,13.935,0,0,1,399.521-7.255ZM421.916,0V-17.71h3.39v3.466a5.778,5.778,0,0,1,2.361-2.7,6.569,6.569,0,0,1,3.523-1.028,4.545,4.545,0,0,1,1.676.267v3.123q-.552-.114-.876-.152a7.022,7.022,0,0,0-.8-.038,5.211,5.211,0,0,0-4.427,1.914,8.2,8.2,0,0,0-1.457,5.094V0Zm24.089,0V-17.71h3.39v3.216a5.579,5.579,0,0,1,1.876-2.59,5.2,5.2,0,0,1,3.342-1.082,6.2,6.2,0,0,1,3.828,1.043,5.17,5.17,0,0,1,1.866,2.782,5.158,5.158,0,0,1,.819-1.458,6.271,6.271,0,0,1,1.276-1.227,6.146,6.146,0,0,1,1.638-.831A6.086,6.086,0,0,1,466-18.167a7.284,7.284,0,0,1,2.971.543,5.026,5.026,0,0,1,1.952,1.476,5.964,5.964,0,0,1,1.066,2.219,10.853,10.853,0,0,1,.333,2.733V0h-3.39V-10.15a6.1,6.1,0,0,0-.952-3.709,3.289,3.289,0,0,0-2.8-1.262A3.775,3.775,0,0,0,462.03-13.6a7.537,7.537,0,0,0-1.171,4.629V0h-3.39V-9.941a6.507,6.507,0,0,0-.952-3.927,3.258,3.258,0,0,0-2.761-1.252A3.841,3.841,0,0,0,450.6-13.6,7.359,7.359,0,0,0,449.4-8.973V0Zm30.678-8.845a9.635,9.635,0,0,1,.669-3.565,9.529,9.529,0,0,1,1.863-2.993,8.459,8.459,0,0,1,2.875-2.03,9.164,9.164,0,0,1,3.706-.734,7.426,7.426,0,0,1,3.641.938,6.146,6.146,0,0,1,2.557,2.584V-17.71h3.39V0h-3.39V-3.084A6.2,6.2,0,0,1,489.447-.5,7.381,7.381,0,0,1,485.8.438,9.078,9.078,0,0,1,482.09-.3a8.637,8.637,0,0,1-2.875-2.026A9.417,9.417,0,0,1,477.352-5.3,9.525,9.525,0,0,1,476.684-8.845Zm3.39,0a6.721,6.721,0,0,0,.428,2.415,6.233,6.233,0,0,0,1.188,1.968,5.65,5.65,0,0,0,1.844,1.35,5.751,5.751,0,0,0,2.453.5,5.945,5.945,0,0,0,2.481-.5,5.782,5.782,0,0,0,1.892-1.35,6.055,6.055,0,0,0,1.207-1.968,6.721,6.721,0,0,0,.428-2.415,6.721,6.721,0,0,0-.428-2.415,6.167,6.167,0,0,0-1.207-1.977,5.832,5.832,0,0,0-1.892-1.369,5.851,5.851,0,0,0-2.481-.513,5.66,5.66,0,0,0-2.453.513,5.7,5.7,0,0,0-1.844,1.369,6.326,6.326,0,0,0-1.188,1.987A6.744,6.744,0,0,0,480.073-8.845ZM501.4,0V-17.71h3.39v3.466a5.778,5.778,0,0,1,2.361-2.7,6.569,6.569,0,0,1,3.523-1.028,4.545,4.545,0,0,1,1.676.267v3.123q-.552-.114-.876-.152a7.022,7.022,0,0,0-.8-.038,5.211,5.211,0,0,0-4.427,1.914,8.2,8.2,0,0,0-1.457,5.094V0Zm14.225,0V-27.308h3.39V-9.636l7.408-8.074h4.285l-8.074,8.855L530.708,0h-4.285l-7.408-8.036V0Zm16.206-8.855a11.321,11.321,0,0,1,.592-3.7,8.644,8.644,0,0,1,1.7-2.971,7.593,7.593,0,0,1,2.732-1.942,9.445,9.445,0,0,1,3.744-.7,8.59,8.59,0,0,1,3.215.6,7.714,7.714,0,0,1,2.606,1.695,8.041,8.041,0,0,1,1.731,2.552,7.831,7.831,0,0,1,.628,3.133q0,.381-.019.933a11.209,11.209,0,0,1-.133,1.295H535.222a7.5,7.5,0,0,0,.371,2.123,5.257,5.257,0,0,0,.979,1.761,4.551,4.551,0,0,0,1.654,1.209,6.131,6.131,0,0,0,2.49.448,4.7,4.7,0,0,0,3.013-.838,4.552,4.552,0,0,0,1.454-1.961h3.446a6.441,6.441,0,0,1-.856,2.133,6.742,6.742,0,0,1-1.645,1.79,8.471,8.471,0,0,1-2.378,1.257,9.137,9.137,0,0,1-3.034.476A9.617,9.617,0,0,1,536.8-.3a7.884,7.884,0,0,1-2.779-1.99,8.163,8.163,0,0,1-1.643-2.952A11.788,11.788,0,0,1,531.832-8.855Zm3.428-1.676H545.5a4.891,4.891,0,0,0-1.416-3.713,4.954,4.954,0,0,0-3.564-1.353,5.348,5.348,0,0,0-3.744,1.314A5.04,5.04,0,0,0,535.26-10.531Zm16-4.323V-17.71h3.275v-5.96h3.39v5.96h4.608v2.856h-4.608v8.176a7.655,7.655,0,0,0,.219,2.054,2.8,2.8,0,0,0,.609,1.165,1.759,1.759,0,0,0,.914.525,5.6,5.6,0,0,0,1.19.115q.552,0,1.228-.038a8.6,8.6,0,0,0,1.076-.114V0q-.514.076-1.352.152t-1.695.076a11.8,11.8,0,0,1-1.8-.152,4.136,4.136,0,0,1-1.819-.762,4.524,4.524,0,0,1-1.4-1.857,8.492,8.492,0,0,1-.562-3.418v-8.893Zm14.492-9.56a2.719,2.719,0,0,1,.781-1.942,2.553,2.553,0,0,1,1.923-.819,2.654,2.654,0,0,1,1.942.819,2.654,2.654,0,0,1,.819,1.942,2.531,2.531,0,0,1-.819,1.9,2.719,2.719,0,0,1-1.942.781,2.623,2.623,0,0,1-1.914-.781A2.575,2.575,0,0,1,565.748-24.413ZM566.776,0V-17.71h3.39V0Zm9.464,0V-17.71h3.39v3.178a6.107,6.107,0,0,1,2.38-2.649,7.227,7.227,0,0,1,3.866-.986,7.69,7.69,0,0,1,3.19.6,4.979,4.979,0,0,1,2.1,1.742,6.41,6.41,0,0,1,1.057,2.257,13,13,0,0,1,.314,3.114V0h-3.39V-9.372a10.436,10.436,0,0,0-.238-2.267,5.156,5.156,0,0,0-.762-1.831,3.747,3.747,0,0,0-1.381-1.2,4.542,4.542,0,0,0-2.114-.446,4.564,4.564,0,0,0-2.228.512,4.753,4.753,0,0,0-1.552,1.347,5.992,5.992,0,0,0-.933,1.916,8.049,8.049,0,0,0-.314,2.257V0Zm20.585-8.841a9.8,9.8,0,0,1,.657-3.567,9.563,9.563,0,0,1,1.829-2.994,8.312,8.312,0,0,1,2.824-2.031,8.858,8.858,0,0,1,3.64-.734,7.776,7.776,0,0,1,3.736.938,6.228,6.228,0,0,1,2.624,2.584V-17.71h3.39V1.124a11.078,11.078,0,0,1-.66,4.056,6.876,6.876,0,0,1-1.913,2.752,7.687,7.687,0,0,1-3.02,1.562,15.283,15.283,0,0,1-4.04.486,10.606,10.606,0,0,1-3.866-.638,7.7,7.7,0,0,1-2.7-1.714,7.389,7.389,0,0,1-1.633-2.476,8.881,8.881,0,0,1-.638-2.885h3.161a5.7,5.7,0,0,0,.439,1.768A4.361,4.361,0,0,0,601.7,5.521a5.046,5.046,0,0,0,1.727,1.025,7.123,7.123,0,0,0,2.468.386,7.023,7.023,0,0,0,4.585-1.362q1.658-1.362,1.658-4.464V-3.075A6.273,6.273,0,0,1,609.522-.5a7.746,7.746,0,0,1-3.746.94,8.785,8.785,0,0,1-3.64-.741,8.483,8.483,0,0,1-2.824-2.025,9.439,9.439,0,0,1-1.829-2.966A9.667,9.667,0,0,1,596.826-8.841Zm3.39,0a6.884,6.884,0,0,0,.416,2.415,6.269,6.269,0,0,0,1.157,1.968,5.483,5.483,0,0,0,1.8,1.35,5.488,5.488,0,0,0,2.378.5,6.238,6.238,0,0,0,2.546-.5,5.931,5.931,0,0,0,1.941-1.35A6.034,6.034,0,0,0,611.7-6.431a6.568,6.568,0,0,0,.439-2.415,6.568,6.568,0,0,0-.439-2.415,6.144,6.144,0,0,0-1.239-1.977,5.979,5.979,0,0,0-1.941-1.369,6.138,6.138,0,0,0-2.546-.513,5.386,5.386,0,0,0-2.387.513,5.563,5.563,0,0,0-1.8,1.369,6.364,6.364,0,0,0-1.157,1.987A6.907,6.907,0,0,0,600.215-8.845ZM629.1-14.854V-17.71h3.828v-3.085a8.959,8.959,0,0,1,.638-3.761,5.03,5.03,0,0,1,1.581-2.009,4.555,4.555,0,0,1,1.99-.819,12.918,12.918,0,0,1,1.828-.152,6.748,6.748,0,0,1,1.428.133,3.729,3.729,0,0,1,.99.343v2.875a6.561,6.561,0,0,0-.943-.229,6.47,6.47,0,0,0-1.038-.076,7.869,7.869,0,0,0-1.095.076,2.13,2.13,0,0,0-.99.409,2.315,2.315,0,0,0-.724.99,5.015,5.015,0,0,0-.276,1.876v3.428h5.065v2.856h-5.065V0h-3.39V-14.854Zm15.387,7.6V-17.71h3.39v9.346a10.351,10.351,0,0,0,.238,2.3,5.17,5.17,0,0,0,.762,1.8,3.789,3.789,0,0,0,1.362,1.206,4.421,4.421,0,0,0,2.095.446,4.9,4.9,0,0,0,2.247-.484,4.416,4.416,0,0,0,1.571-1.32,5.989,5.989,0,0,0,.933-1.928,8.308,8.308,0,0,0,.314-2.308V-17.71h3.39V0H657.4V-3.2A6.112,6.112,0,0,1,655-.553a7.188,7.188,0,0,1-3.828.991,7.785,7.785,0,0,1-3.218-.609,5.183,5.183,0,0,1-2.133-1.695,6.155,6.155,0,0,1-1.038-2.266A13.935,13.935,0,0,1,644.49-7.255ZM666.885,0V-17.71h3.39v3.178a6.107,6.107,0,0,1,2.38-2.649,7.227,7.227,0,0,1,3.866-.986,7.69,7.69,0,0,1,3.19.6,4.979,4.979,0,0,1,2.1,1.742,6.41,6.41,0,0,1,1.057,2.257,13,13,0,0,1,.314,3.114V0H679.8V-9.372a10.436,10.436,0,0,0-.238-2.267,5.156,5.156,0,0,0-.762-1.831,3.747,3.747,0,0,0-1.381-1.2,4.542,4.542,0,0,0-2.114-.446,4.564,4.564,0,0,0-2.228.512,4.753,4.753,0,0,0-1.552,1.347,5.992,5.992,0,0,0-.933,1.916,8.049,8.049,0,0,0-.314,2.257V0ZM687.47-8.845a9.635,9.635,0,0,1,.669-3.565A9.529,9.529,0,0,1,690-15.4a8.458,8.458,0,0,1,2.875-2.03,9.164,9.164,0,0,1,3.706-.734,7.426,7.426,0,0,1,3.641.938,6.146,6.146,0,0,1,2.557,2.584V-27.308h3.39V0h-3.39V-3.084A6.2,6.2,0,0,1,700.233-.5a7.381,7.381,0,0,1-3.651.942A9.078,9.078,0,0,1,692.876-.3,8.636,8.636,0,0,1,690-2.33,9.418,9.418,0,0,1,688.139-5.3,9.524,9.524,0,0,1,687.47-8.845Zm3.39,0a6.721,6.721,0,0,0,.428,2.415,6.234,6.234,0,0,0,1.188,1.968,5.65,5.65,0,0,0,1.844,1.35,5.751,5.751,0,0,0,2.453.5,5.945,5.945,0,0,0,2.481-.5,5.783,5.783,0,0,0,1.892-1.35,6.056,6.056,0,0,0,1.207-1.968,6.721,6.721,0,0,0,.428-2.415,6.721,6.721,0,0,0-.428-2.415,6.167,6.167,0,0,0-1.207-1.977,5.832,5.832,0,0,0-1.892-1.369,5.851,5.851,0,0,0-2.481-.513,5.66,5.66,0,0,0-2.453.513,5.7,5.7,0,0,0-1.844,1.369,6.326,6.326,0,0,0-1.188,1.987A6.744,6.744,0,0,0,690.86-8.845ZM710.741-5.96h3.275A3.175,3.175,0,0,0,715.274-3.1a5.563,5.563,0,0,0,3.15.838,4.307,4.307,0,0,0,2.426-.6,2.16,2.16,0,0,0,.9-1.936,1.752,1.752,0,0,0-.39-1.192,3.47,3.47,0,0,0-1.113-.8,12.061,12.061,0,0,0-1.772-.671l-2.381-.722q-1.009-.306-1.895-.659a5.291,5.291,0,0,1-1.523-.908,4.044,4.044,0,0,1-1.009-1.337,4.641,4.641,0,0,1-.371-1.987,4.5,4.5,0,0,1,.522-2.2,4.673,4.673,0,0,1,1.448-1.595,6.7,6.7,0,0,1,2.178-.968,10.66,10.66,0,0,1,2.67-.323,7.847,7.847,0,0,1,2.626.428,6.2,6.2,0,0,1,2.107,1.228,5.858,5.858,0,0,1,1.4,1.885,5.613,5.613,0,0,1,.51,2.418h-3.009a3.045,3.045,0,0,0-.957-2.414A4.1,4.1,0,0,0,718-15.463a4.427,4.427,0,0,0-2.453.633,2.058,2.058,0,0,0-.977,1.841,1.789,1.789,0,0,0,.323,1.1,2.6,2.6,0,0,0,.988.748,12.423,12.423,0,0,0,1.6.609l2.19.688q1.021.3,1.995.654a6.828,6.828,0,0,1,1.715.89,4.143,4.143,0,0,1,1.195,1.355,4.215,4.215,0,0,1,.453,2.065,5.013,5.013,0,0,1-.51,2.325A4.7,4.7,0,0,1,723.093-.9a6.414,6.414,0,0,1-2.144,1,10.254,10.254,0,0,1-2.682.334,10.4,10.4,0,0,1-2.884-.39A6.963,6.963,0,0,1,713-1.143a5.905,5.905,0,0,1-1.642-2.009A6.109,6.109,0,0,1,710.741-5.96Zm28.222-19.081v-2.914h3.275v2.914l-.76,6.875h-1.716Zm5.979,0v-2.914h3.275v2.914l-.76,6.875H745.7Z" transform="translate(10057.727 1674)" fill="#fff" stroke="#fff" stroke-linecap="round" stroke-width="1"/>
      <g id="Group_173" data-name="Group 173" transform="translate(12 -12.984)">
        <path id="Path_137" data-name="Path 137" d="M8.98-134.2a19.457,19.457,0,0,1,5.868-14.389A19.964,19.964,0,0,1,29.493-154.4a21.524,21.524,0,0,1,8.164,1.531,20.451,20.451,0,0,1,6.582,4.235,19.164,19.164,0,0,1,4.388,6.48,20.394,20.394,0,0,1,1.582,7.96,19.657,19.657,0,0,1-1.582,7.858,20.6,20.6,0,0,1-4.388,6.48,20.294,20.294,0,0,1-6.582,4.388,20.915,20.915,0,0,1-8.164,1.582,20.173,20.173,0,0,1-8.062-1.582,20.6,20.6,0,0,1-6.48-4.388,20.6,20.6,0,0,1-4.388-6.48A19.657,19.657,0,0,1,8.98-134.2ZM13.573,0V-100.724H45.515V0ZM72.66,0V-100.724H104.6v14.593a29.15,29.15,0,0,1,12.654-12.654q8.47-4.49,20.41-4.49a42.809,42.809,0,0,1,16.94,3.062,27.816,27.816,0,0,1,11.328,8.47,30.1,30.1,0,0,1,6.327,13.471A95.714,95.714,0,0,1,173.792-59.8V0H141.851V-51.638q0-10.817-3.878-17.6t-13.879-6.786q-9.8,0-14.644,6.888T104.6-50.617V0ZM192.876-33.677h31.33q0,7.96,4.49,11.43t11.532,3.47a18.594,18.594,0,0,0,9.542-2.195q3.725-2.195,3.725-7.2a6.9,6.9,0,0,0-1.582-4.748,15.4,15.4,0,0,0-4.847-3.368,61.281,61.281,0,0,0-8.333-3.16L226.451-43.27q-6.225-1.837-11.889-4.031a42.519,42.519,0,0,1-9.95-5.358,22.924,22.924,0,0,1-6.786-7.96,26.146,26.146,0,0,1-2.5-12.144q0-15.716,12.042-23.217t32.452-7.5a64.125,64.125,0,0,1,19.135,2.6,37.316,37.316,0,0,1,13.624,7.246,30.426,30.426,0,0,1,8.011,10.868,33.185,33.185,0,0,1,2.7,13.369H251.759q0-6.225-3.215-9.695t-9.95-3.47a15.7,15.7,0,0,0-8.368,2.188,7.376,7.376,0,0,0-3.572,6.766,6.318,6.318,0,0,0,1.687,4.528,15.05,15.05,0,0,0,4.958,3.205,84.62,84.62,0,0,0,8.073,2.947l11.011,3.491a129.466,129.466,0,0,1,12.547,4.088,45.018,45.018,0,0,1,10.252,5.467,23.634,23.634,0,0,1,7.039,8.073,25.421,25.421,0,0,1,2.6,12.11q0,8.98-3.572,15.155A28.42,28.42,0,0,1,271.4-4.49a44.205,44.205,0,0,1-14.542,5.562,88.37,88.37,0,0,1-17.655,1.684q-21.533,0-33.932-9.44T192.876-33.677ZM301.458-134.2a19.457,19.457,0,0,1,5.868-14.389A19.964,19.964,0,0,1,321.97-154.4a21.524,21.524,0,0,1,8.164,1.531,20.452,20.452,0,0,1,6.582,4.235,19.164,19.164,0,0,1,4.388,6.48,20.394,20.394,0,0,1,1.582,7.96,19.657,19.657,0,0,1-1.582,7.858,20.6,20.6,0,0,1-4.388,6.48,20.294,20.294,0,0,1-6.582,4.388,20.915,20.915,0,0,1-8.164,1.582,20.173,20.173,0,0,1-8.062-1.582,20.6,20.6,0,0,1-6.48-4.388,20.6,20.6,0,0,1-4.388-6.48A19.657,19.657,0,0,1,301.458-134.2ZM306.05,0V-100.724h31.942V0Zm52.658-50.413a61.119,61.119,0,0,1,3.428-20.716,47.289,47.289,0,0,1,10.234-16.787A48.629,48.629,0,0,1,389.155-99.3a59.581,59.581,0,0,1,23.18-4.184A57.466,57.466,0,0,1,433.745-99.7a51.915,51.915,0,0,1,16.261,10.052,43.674,43.674,0,0,1,10.45,14.644,43.231,43.231,0,0,1,3.671,17.553q0,3.164-.1,6.684a56.358,56.358,0,0,1-.918,8.113H390.65a30.549,30.549,0,0,0,1.375,7.8,16.591,16.591,0,0,0,3.766,6.426,17.569,17.569,0,0,0,6.77,4.315,29.894,29.894,0,0,0,10.384,1.56q8.347,0,12.623-2.665a14.331,14.331,0,0,0,5.905-6.519H462.9a34.18,34.18,0,0,1-4.894,13.369A39.429,39.429,0,0,1,447.762-7.45,51.377,51.377,0,0,1,432.724,0a64.492,64.492,0,0,1-19.575,2.755,65.414,65.414,0,0,1-23.383-3.878,46.619,46.619,0,0,1-17.09-10.97,46.5,46.5,0,0,1-10.438-16.838A62.669,62.669,0,0,1,358.708-50.413ZM390.65-61.026H432.8q0-9.8-5.752-15.461T412.13-82.151q-9.365,0-15.422,5.46T390.65-61.026Zm88.784,10.613a60.953,60.953,0,0,1,3.533-21.022A48.6,48.6,0,0,1,493-88.121a47.67,47.67,0,0,1,15.616-11.073,48.54,48.54,0,0,1,20.07-4.082,34.461,34.461,0,0,1,9.573,1.378,41.141,41.141,0,0,1,8.859,3.674,34.029,34.029,0,0,1,7.23,5.409,27.9,27.9,0,0,1,4.99,6.48v-60.006h31.942V0H559.34V-14.185A24.651,24.651,0,0,1,554.35-7.6a33.257,33.257,0,0,1-7.23,5.2,44.678,44.678,0,0,1-8.859,3.572,34.461,34.461,0,0,1-9.573,1.378A48.641,48.641,0,0,1,508.67-1.531,47.171,47.171,0,0,1,493-12.654a49.15,49.15,0,0,1-10.035-16.736A60.953,60.953,0,0,1,479.435-50.413Zm31.942,0a28.069,28.069,0,0,0,1.782,9.95,25.119,25.119,0,0,0,4.888,8.164,23.921,23.921,0,0,0,7.485,5.511,22.389,22.389,0,0,0,9.776,2.092,22.723,22.723,0,0,0,9.827-2.092A23.755,23.755,0,0,0,552.67-32.3a25.237,25.237,0,0,0,4.888-8.113,27.943,27.943,0,0,0,1.782-10,26.843,26.843,0,0,0-1.782-9.8,27.471,27.471,0,0,0-4.888-8.164,22.26,22.26,0,0,0-7.485-5.613,23.11,23.11,0,0,0-9.878-2.041,22.862,22.862,0,0,0-9.776,2.041,22.26,22.26,0,0,0-7.485,5.613,27.47,27.47,0,0,0-4.888,8.164A26.843,26.843,0,0,0,511.376-50.413Z" transform="translate(10123.648 1222.7)" fill="#fff" stroke="#fff" stroke-linecap="round" stroke-width="3"/>
        <path id="Path_142" data-name="Path 142" d="M3.7,0V-27.47h8.433v3.98A8.176,8.176,0,0,1,15.1-26.8a8.752,8.752,0,0,1,4.968-1.364,9.156,9.156,0,0,1,5.525,1.433,8.268,8.268,0,0,1,2.8,3.521A8.825,8.825,0,0,1,31.7-26.774a9.773,9.773,0,0,1,5.288-1.392,10.938,10.938,0,0,1,4.871.946,7.762,7.762,0,0,1,3,2.519,9.02,9.02,0,0,1,1.456,3.59,23.558,23.558,0,0,1,.364,4.189V0H38.241V-14.807a8.164,8.164,0,0,0-.988-4.356,3.507,3.507,0,0,0-3.215-1.573A5.044,5.044,0,0,0,32.2-20.4a3.488,3.488,0,0,0-1.489,1.127,5.6,5.6,0,0,0-.96,2.143,14.088,14.088,0,0,0-.334,3.326V0H20.985V-14.89a8.03,8.03,0,0,0-.974-4.314,3.448,3.448,0,0,0-3.145-1.531,5.09,5.09,0,0,0-1.879.334,3.432,3.432,0,0,0-1.475,1.155,6.377,6.377,0,0,0-1,2.2,13.3,13.3,0,0,0-.376,3.437V0ZM52.046-13.749a16.624,16.624,0,0,1,.963-5.733,13.254,13.254,0,0,1,2.737-4.551,13,13,0,0,1,4.259-3.02,13.238,13.238,0,0,1,5.474-1.113,9.4,9.4,0,0,1,2.611.376,11.22,11.22,0,0,1,2.416,1,9.28,9.28,0,0,1,1.972,1.475,7.61,7.61,0,0,1,1.361,1.767V-27.47H82.55V0H73.838V-3.869a6.723,6.723,0,0,1-1.361,1.8A9.07,9.07,0,0,1,70.506-.654,12.185,12.185,0,0,1,68.09.32,9.4,9.4,0,0,1,65.479.7a13.266,13.266,0,0,1-5.46-1.113,12.865,12.865,0,0,1-4.273-3.034,13.4,13.4,0,0,1-2.737-4.564A16.623,16.623,0,0,1,52.046-13.749Zm8.711,0a7.655,7.655,0,0,0,.486,2.714,6.851,6.851,0,0,0,1.333,2.227,6.524,6.524,0,0,0,2.041,1.5,6.106,6.106,0,0,0,2.666.571,6.2,6.2,0,0,0,2.68-.571,6.479,6.479,0,0,0,2.055-1.5,6.883,6.883,0,0,0,1.333-2.213,7.621,7.621,0,0,0,.486-2.728,7.321,7.321,0,0,0-.486-2.672,7.492,7.492,0,0,0-1.333-2.227,6.071,6.071,0,0,0-2.041-1.531,6.3,6.3,0,0,0-2.694-.557,6.235,6.235,0,0,0-2.666.557,6.071,6.071,0,0,0-2.041,1.531,7.492,7.492,0,0,0-1.333,2.227A7.321,7.321,0,0,0,60.757-13.749ZM89.925,0V-27.47h8.711v4.453a9.04,9.04,0,0,1,3.229-3.437,9.178,9.178,0,0,1,5.177-1.489,6.527,6.527,0,0,1,2.616.473v7.932q-.918-.223-1.545-.32a10.287,10.287,0,0,0-1.545-.1,7.9,7.9,0,0,0-5.761,2.115q-2.171,2.115-2.171,7.125V0Zm23.769,0V-39.911h8.711v24.075l8.517-11.634h10.354L130.56-13.749,141.22,0H130.866l-8.461-11.522V0Zm28.277-13.749a16.669,16.669,0,0,1,.935-5.65,12.9,12.9,0,0,1,2.791-4.578,13.263,13.263,0,0,1,4.577-3.1,16.249,16.249,0,0,1,6.322-1.141,15.672,15.672,0,0,1,5.839,1.03,14.159,14.159,0,0,1,4.435,2.741,11.911,11.911,0,0,1,2.85,3.994,11.79,11.79,0,0,1,1,4.787q0,.863-.028,1.823a15.371,15.371,0,0,1-.25,2.213H150.683a8.332,8.332,0,0,0,.375,2.128,4.525,4.525,0,0,0,1.027,1.753,4.792,4.792,0,0,0,1.846,1.177,8.153,8.153,0,0,0,2.832.426,6.586,6.586,0,0,0,3.443-.727,3.909,3.909,0,0,0,1.611-1.778h8.571a9.322,9.322,0,0,1-1.335,3.646,10.754,10.754,0,0,1-2.795,2.978A14.012,14.012,0,0,1,162.157,0a17.589,17.589,0,0,1-5.339.751,17.84,17.84,0,0,1-6.377-1.058A12.714,12.714,0,0,1,145.781-3.3a12.682,12.682,0,0,1-2.847-4.592A17.091,17.091,0,0,1,141.971-13.749Zm8.711-2.895h11.495a5.648,5.648,0,0,0-1.569-4.217,5.55,5.55,0,0,0-4.068-1.545,6.044,6.044,0,0,0-4.206,1.489A5.455,5.455,0,0,0,150.683-16.644Zm22.934-3.924v-6.9H177.9v-7.737h8.711v7.737h6.234v6.9h-6.234v9.561a8.12,8.12,0,0,0,.278,2.37,3.042,3.042,0,0,0,.793,1.354,2.76,2.76,0,0,0,1.2.65,5.945,5.945,0,0,0,1.489.176q.807,0,1.656-.042a12.326,12.326,0,0,0,1.489-.153V0q-.974.167-2.435.305T187.7.445a26.148,26.148,0,0,1-3.263-.218,7.6,7.6,0,0,1-3.183-1.146,6.879,6.879,0,0,1-2.4-2.852,12.107,12.107,0,0,1-.949-5.281V-20.568ZM196.884-36.6a5.307,5.307,0,0,1,1.6-3.924,5.445,5.445,0,0,1,3.994-1.586,5.87,5.87,0,0,1,2.227.417,5.578,5.578,0,0,1,1.8,1.155,5.227,5.227,0,0,1,1.2,1.767,5.562,5.562,0,0,1,.431,2.171,5.361,5.361,0,0,1-.431,2.143,5.618,5.618,0,0,1-1.2,1.767,5.535,5.535,0,0,1-1.8,1.2,5.7,5.7,0,0,1-2.227.431,5.5,5.5,0,0,1-2.2-.431,5.618,5.618,0,0,1-1.767-1.2,5.618,5.618,0,0,1-1.2-1.767A5.361,5.361,0,0,1,196.884-36.6ZM198.136,0V-27.47h8.711V0Zm16.115,0V-27.47h8.711v3.98a7.95,7.95,0,0,1,3.451-3.451,11.744,11.744,0,0,1,5.566-1.225,11.675,11.675,0,0,1,4.62.835,7.586,7.586,0,0,1,3.089,2.31,8.21,8.21,0,0,1,1.726,3.674,26.1,26.1,0,0,1,.417,5.038V0h-8.711V-14.083a9.61,9.61,0,0,0-1.058-4.8,3.983,3.983,0,0,0-3.785-1.851,4.558,4.558,0,0,0-3.994,1.879,8.624,8.624,0,0,0-1.322,5.052V0Zm32.9-13.749a17.124,17.124,0,0,1,.932-5.733,12.922,12.922,0,0,1,2.7-4.551A13.037,13.037,0,0,1,255-27.053a13.1,13.1,0,0,1,5.483-1.113,10.692,10.692,0,0,1,4.982,1.225,7.966,7.966,0,0,1,3.507,3.4V-27.47h8.711v27.3a15.765,15.765,0,0,1-1.072,6.234,10.334,10.334,0,0,1-3.242,4.147,13.527,13.527,0,0,1-4.62,2.213,24.79,24.79,0,0,1-6.513.738,20.99,20.99,0,0,1-6.457-.849,12.326,12.326,0,0,1-4.314-2.352,11.084,11.084,0,0,1-2.853-3.549,10.606,10.606,0,0,1-1.127-4.3h8.711a4.355,4.355,0,0,0,1.684,2.86,6.554,6.554,0,0,0,4.356,1.287,7.772,7.772,0,0,0,4.912-1.424A5.4,5.4,0,0,0,268.969.3V-4.091a8.353,8.353,0,0,1-3.423,3.075A10.606,10.606,0,0,1,260.591.167a14.1,14.1,0,0,1-5.441-1.03,12.308,12.308,0,0,1-4.258-2.881,13.231,13.231,0,0,1-2.755-4.384A15.351,15.351,0,0,1,247.148-13.749Zm8.711,0a8.054,8.054,0,0,0,.459,2.714,6.483,6.483,0,0,0,1.308,2.227,6.536,6.536,0,0,0,2.046,1.5,6.13,6.13,0,0,0,2.672.571,6.407,6.407,0,0,0,2.714-.571,6.408,6.408,0,0,0,2.087-1.5,6.881,6.881,0,0,0,1.336-2.213,7.606,7.606,0,0,0,.487-2.728,7.306,7.306,0,0,0-.487-2.672,7.49,7.49,0,0,0-1.336-2.227,5.978,5.978,0,0,0-2.087-1.531,6.543,6.543,0,0,0-2.714-.557,6.26,6.26,0,0,0-2.672.557,6.082,6.082,0,0,0-2.046,1.531,7.05,7.05,0,0,0-1.308,2.227A7.7,7.7,0,0,0,255.86-13.749Z" transform="translate(10017.648 1312.7)" fill="#fff" opacity="0.1"/>
        <path id="Path_145" data-name="Path 145" d="M1.893-13.735a16.158,16.158,0,0,1,.932-5.46A13.135,13.135,0,0,1,5.636-23.82a13.749,13.749,0,0,1,4.648-3.2,15.889,15.889,0,0,1,6.36-1.2,16.965,16.965,0,0,1,6.04.974,13.2,13.2,0,0,1,4.3,2.574A11.375,11.375,0,0,1,29.669-21a13.537,13.537,0,0,1,1.169,4.3H22.126a4.867,4.867,0,0,0-1.517-2.958,5.668,5.668,0,0,0-3.91-1.134,6.092,6.092,0,0,0-2.7.569,5.215,5.215,0,0,0-1.906,1.542,6.906,6.906,0,0,0-1.113,2.25,9.5,9.5,0,0,0-.376,2.694,9.648,9.648,0,0,0,.376,2.708,6.444,6.444,0,0,0,1.141,2.25,5.422,5.422,0,0,0,1.99,1.528,6.882,6.882,0,0,0,2.922.569,5.325,5.325,0,0,0,3.423-.932,5.682,5.682,0,0,0,1.726-2.714h8.711a13.962,13.962,0,0,1-1.364,4.37,11.007,11.007,0,0,1-2.8,3.507,13.35,13.35,0,0,1-4.3,2.338,17.917,17.917,0,0,1-5.789.863,15.914,15.914,0,0,1-6.36-1.2,13.751,13.751,0,0,1-4.648-3.2A13.105,13.105,0,0,1,2.825-8.257,16.18,16.18,0,0,1,1.893-13.735Zm32.87-.014a16.624,16.624,0,0,1,.963-5.733,13.254,13.254,0,0,1,2.737-4.551,13,13,0,0,1,4.259-3.02A13.238,13.238,0,0,1,48.2-28.166a9.4,9.4,0,0,1,2.611.376,11.22,11.22,0,0,1,2.416,1,9.281,9.281,0,0,1,1.972,1.475,7.61,7.61,0,0,1,1.361,1.767V-27.47h8.711V0H56.555V-3.869a6.723,6.723,0,0,1-1.361,1.8A9.07,9.07,0,0,1,53.222-.654,12.185,12.185,0,0,1,50.806.32,9.4,9.4,0,0,1,48.2.7a13.266,13.266,0,0,1-5.46-1.113,12.865,12.865,0,0,1-4.273-3.034,13.4,13.4,0,0,1-2.737-4.564A16.623,16.623,0,0,1,34.762-13.749Zm8.711,0a7.655,7.655,0,0,0,.486,2.714,6.851,6.851,0,0,0,1.333,2.227,6.524,6.524,0,0,0,2.041,1.5A6.106,6.106,0,0,0,50-6.735a6.2,6.2,0,0,0,2.68-.571,6.479,6.479,0,0,0,2.055-1.5,6.883,6.883,0,0,0,1.333-2.213,7.621,7.621,0,0,0,.486-2.728,7.321,7.321,0,0,0-.486-2.672,7.492,7.492,0,0,0-1.333-2.227,6.071,6.071,0,0,0-2.041-1.531A6.3,6.3,0,0,0,50-20.735a6.235,6.235,0,0,0-2.666.557,6.071,6.071,0,0,0-2.041,1.531,7.492,7.492,0,0,0-1.333,2.227A7.321,7.321,0,0,0,43.474-13.749ZM72.642,0V-27.47h8.433v3.98A8.176,8.176,0,0,1,84.039-26.8a8.752,8.752,0,0,1,4.968-1.364,9.156,9.156,0,0,1,5.525,1.433,8.268,8.268,0,0,1,2.8,3.521,8.825,8.825,0,0,1,3.312-3.562,9.773,9.773,0,0,1,5.288-1.392,10.938,10.938,0,0,1,4.871.946,7.762,7.762,0,0,1,3,2.519,9.02,9.02,0,0,1,1.456,3.59,23.559,23.559,0,0,1,.364,4.189V0h-8.433V-14.807a8.164,8.164,0,0,0-.988-4.356,3.507,3.507,0,0,0-3.215-1.573,5.044,5.044,0,0,0-1.837.334,3.488,3.488,0,0,0-1.489,1.127,5.6,5.6,0,0,0-.96,2.143,14.088,14.088,0,0,0-.334,3.326V0H89.925V-14.89a8.03,8.03,0,0,0-.974-4.314,3.448,3.448,0,0,0-3.145-1.531,5.09,5.09,0,0,0-1.879.334,3.432,3.432,0,0,0-1.475,1.155,6.377,6.377,0,0,0-1,2.2,13.3,13.3,0,0,0-.376,3.437V0Zm50.042,12.413V-27.47H131.4v3.924a7.605,7.605,0,0,1,1.364-1.767,9.031,9.031,0,0,1,2-1.475,12.1,12.1,0,0,1,2.421-1,9.439,9.439,0,0,1,2.672-.376,13.086,13.086,0,0,1,5.427,1.113,12.957,12.957,0,0,1,4.244,3.02,13.413,13.413,0,0,1,2.741,4.564,16.493,16.493,0,0,1,.974,5.719,16.46,16.46,0,0,1-.974,5.733,13.593,13.593,0,0,1-2.741,4.564,12.859,12.859,0,0,1-4.244,3.034A13.086,13.086,0,0,1,139.856.7,9.485,9.485,0,0,1,137.2.32a12,12,0,0,1-2.435-1,9.225,9.225,0,0,1-1.99-1.447,7.418,7.418,0,0,1-1.378-1.8V12.413ZM131.4-13.749a7.64,7.64,0,0,0,.487,2.714,6.722,6.722,0,0,0,1.35,2.227,6.612,6.612,0,0,0,2.087,1.5,6.314,6.314,0,0,0,2.7.571,6,6,0,0,0,2.616-.571,6.705,6.705,0,0,0,2.06-1.5,6.752,6.752,0,0,0,1.35-2.213,7.606,7.606,0,0,0,.487-2.728,7.528,7.528,0,0,0-.487-2.7,6.916,6.916,0,0,0-1.35-2.227,6.417,6.417,0,0,0-2.06-1.5,6.127,6.127,0,0,0-2.616-.557,6.448,6.448,0,0,0-2.7.557,6.335,6.335,0,0,0-2.087,1.5,6.916,6.916,0,0,0-1.35,2.227A7.528,7.528,0,0,0,131.4-13.749Zm25.884,0a16.623,16.623,0,0,1,.963-5.733,13.254,13.254,0,0,1,2.737-4.551,13,13,0,0,1,4.259-3.02,13.238,13.238,0,0,1,5.474-1.113,9.4,9.4,0,0,1,2.611.376,11.22,11.22,0,0,1,2.416,1,9.281,9.281,0,0,1,1.972,1.475,7.609,7.609,0,0,1,1.361,1.767V-27.47h8.711V0h-8.711V-3.869a6.723,6.723,0,0,1-1.361,1.8,9.07,9.07,0,0,1-1.972,1.419,12.185,12.185,0,0,1-2.416.974A9.4,9.4,0,0,1,170.712.7a13.266,13.266,0,0,1-5.46-1.113,12.865,12.865,0,0,1-4.273-3.034,13.4,13.4,0,0,1-2.737-4.564A16.623,16.623,0,0,1,157.279-13.749Zm8.711,0a7.655,7.655,0,0,0,.486,2.714,6.851,6.851,0,0,0,1.333,2.227,6.524,6.524,0,0,0,2.041,1.5,6.106,6.106,0,0,0,2.666.571,6.2,6.2,0,0,0,2.68-.571,6.479,6.479,0,0,0,2.055-1.5,6.883,6.883,0,0,0,1.333-2.213,7.621,7.621,0,0,0,.486-2.728,7.321,7.321,0,0,0-.486-2.672,7.492,7.492,0,0,0-1.333-2.227,6.071,6.071,0,0,0-2.041-1.531,6.3,6.3,0,0,0-2.694-.557,6.235,6.235,0,0,0-2.666.557,6.071,6.071,0,0,0-2.041,1.531,7.492,7.492,0,0,0-1.333,2.227A7.321,7.321,0,0,0,165.99-13.749ZM193.906-36.6a5.307,5.307,0,0,1,1.6-3.924A5.445,5.445,0,0,1,199.5-42.11a5.87,5.87,0,0,1,2.227.417,5.578,5.578,0,0,1,1.8,1.155,5.227,5.227,0,0,1,1.2,1.767,5.562,5.562,0,0,1,.431,2.171,5.361,5.361,0,0,1-.431,2.143,5.618,5.618,0,0,1-1.2,1.767,5.535,5.535,0,0,1-1.8,1.2,5.7,5.7,0,0,1-2.227.431,5.5,5.5,0,0,1-2.2-.431,5.618,5.618,0,0,1-1.767-1.2,5.618,5.618,0,0,1-1.2-1.767A5.361,5.361,0,0,1,193.906-36.6ZM195.158,0V-27.47h8.711V0Zm14.417-13.749a17.124,17.124,0,0,1,.932-5.733,12.922,12.922,0,0,1,2.7-4.551,13.037,13.037,0,0,1,4.217-3.02,13.1,13.1,0,0,1,5.483-1.113,10.692,10.692,0,0,1,4.982,1.225,7.966,7.966,0,0,1,3.507,3.4V-27.47h8.711v27.3a15.765,15.765,0,0,1-1.072,6.234,10.334,10.334,0,0,1-3.242,4.147,13.527,13.527,0,0,1-4.62,2.213,24.79,24.79,0,0,1-6.513.738,20.99,20.99,0,0,1-6.457-.849,12.326,12.326,0,0,1-4.314-2.352,11.084,11.084,0,0,1-2.853-3.549,10.606,10.606,0,0,1-1.127-4.3h8.711a4.355,4.355,0,0,0,1.684,2.86,6.554,6.554,0,0,0,4.356,1.287,7.772,7.772,0,0,0,4.912-1.424A5.4,5.4,0,0,0,231.4.3V-4.091a8.353,8.353,0,0,1-3.423,3.075A10.606,10.606,0,0,1,223.018.167a14.1,14.1,0,0,1-5.441-1.03,12.308,12.308,0,0,1-4.258-2.881,13.231,13.231,0,0,1-2.755-4.384A15.351,15.351,0,0,1,209.575-13.749Zm8.711,0a8.054,8.054,0,0,0,.459,2.714,6.483,6.483,0,0,0,1.308,2.227,6.536,6.536,0,0,0,2.046,1.5,6.13,6.13,0,0,0,2.672.571,6.407,6.407,0,0,0,2.714-.571,6.408,6.408,0,0,0,2.087-1.5,6.881,6.881,0,0,0,1.336-2.213,7.606,7.606,0,0,0,.487-2.728,7.306,7.306,0,0,0-.487-2.672,7.49,7.49,0,0,0-1.336-2.227,5.978,5.978,0,0,0-2.087-1.531,6.543,6.543,0,0,0-2.714-.557,6.26,6.26,0,0,0-2.672.557,6.082,6.082,0,0,0-2.046,1.531,7.05,7.05,0,0,0-1.308,2.227A7.7,7.7,0,0,0,218.287-13.749ZM247.343,0V-27.47h8.711v3.98a7.95,7.95,0,0,1,3.451-3.451,11.744,11.744,0,0,1,5.566-1.225,11.675,11.675,0,0,1,4.62.835,7.586,7.586,0,0,1,3.089,2.31,8.21,8.21,0,0,1,1.726,3.674,26.1,26.1,0,0,1,.417,5.038V0h-8.711V-14.083a9.61,9.61,0,0,0-1.058-4.8,3.983,3.983,0,0,0-3.785-1.851,4.558,4.558,0,0,0-3.994,1.879,8.624,8.624,0,0,0-1.322,5.052V0Zm32.786-9.185h8.544A3.7,3.7,0,0,0,289.9-6.067a5,5,0,0,0,3.145.946,5.071,5.071,0,0,0,2.6-.6,2.1,2.1,0,0,0,1.016-1.962,1.882,1.882,0,0,0-.431-1.295,4.2,4.2,0,0,0-1.322-.919,16.714,16.714,0,0,0-2.273-.862l-3.35-1.043q-1.7-.5-3.242-1.1a11.6,11.6,0,0,1-2.714-1.461,6.252,6.252,0,0,1-1.851-2.171,7.131,7.131,0,0,1-.682-3.312,6.932,6.932,0,0,1,3.284-6.332q3.284-2.046,8.851-2.046a17.489,17.489,0,0,1,5.219.71,10.177,10.177,0,0,1,3.716,1.976,8.3,8.3,0,0,1,2.185,2.964,9.05,9.05,0,0,1,.738,3.646h-8.6a3.743,3.743,0,0,0-.877-2.644,3.532,3.532,0,0,0-2.714-.946,4.282,4.282,0,0,0-2.282.6,2.012,2.012,0,0,0-.974,1.845,1.723,1.723,0,0,0,.46,1.235,4.1,4.1,0,0,0,1.352.874,23.079,23.079,0,0,0,2.2.8l3,.952a35.309,35.309,0,0,1,3.422,1.115,12.277,12.277,0,0,1,2.8,1.491,6.445,6.445,0,0,1,1.92,2.2,6.933,6.933,0,0,1,.71,3.3,8.134,8.134,0,0,1-.974,4.133,7.751,7.751,0,0,1-2.686,2.741A12.056,12.056,0,0,1,297.58.292a24.1,24.1,0,0,1-4.815.459q-5.873,0-9.254-2.574A8.7,8.7,0,0,1,280.129-9.185Z" transform="translate(10756.148 1119.7)" fill="#fff" opacity="0.1"/>
        <path id="Path_143" data-name="Path 143" d="M-.044-21.687H7.075l4,12.92L14.9-21.687h6.35l3.823,12.92,4-12.92h7.119L28.081,0H22.5L18.083-13.821,13.645,0H8.064ZM36.628-10.854a13.16,13.16,0,0,1,.738-4.46,10.182,10.182,0,0,1,2.2-3.615,10.47,10.47,0,0,1,3.614-2.45,12.829,12.829,0,0,1,4.991-.9,12.373,12.373,0,0,1,4.61.813,11.178,11.178,0,0,1,3.5,2.164,9.4,9.4,0,0,1,2.25,3.153,9.308,9.308,0,0,1,.79,3.779q0,.681-.022,1.439a12.135,12.135,0,0,1-.2,1.747h-15.6a6.578,6.578,0,0,0,.3,1.68,3.572,3.572,0,0,0,.811,1.384,3.783,3.783,0,0,0,1.458.929,6.437,6.437,0,0,0,2.236.336,5.2,5.2,0,0,0,2.718-.574,3.086,3.086,0,0,0,1.271-1.4h6.767a7.359,7.359,0,0,1-1.054,2.878A8.49,8.49,0,0,1,55.8-1.6,11.062,11.062,0,0,1,52.565,0,13.886,13.886,0,0,1,48.35.593a14.084,14.084,0,0,1-5.035-.835A10.038,10.038,0,0,1,39.636-2.6a10.012,10.012,0,0,1-2.247-3.625A13.493,13.493,0,0,1,36.628-10.854Zm6.877-2.285h9.075a4.459,4.459,0,0,0-1.239-3.329,4.382,4.382,0,0,0-3.211-1.219,4.772,4.772,0,0,0-3.321,1.176A4.307,4.307,0,0,0,43.506-13.14ZM63.962,0V-31.509H70.84v12.92a6,6,0,0,1,1.077-1.4A7.13,7.13,0,0,1,73.5-21.149a9.55,9.55,0,0,1,1.912-.791,7.452,7.452,0,0,1,2.109-.3,10.331,10.331,0,0,1,4.285.879,10.229,10.229,0,0,1,3.351,2.384,10.589,10.589,0,0,1,2.164,3.6,13.021,13.021,0,0,1,.769,4.515,12.994,12.994,0,0,1-.769,4.526,10.731,10.731,0,0,1-2.164,3.6A10.152,10.152,0,0,1,81.8-.33,10.331,10.331,0,0,1,77.52.549a7.488,7.488,0,0,1-2.1-.3A10.328,10.328,0,0,1,73.5-.516a6.751,6.751,0,0,1-1.571-1.121A5.856,5.856,0,0,1,70.84-3.054V0ZM70.84-10.854a6.032,6.032,0,0,0,.385,2.142A5.307,5.307,0,0,0,72.29-6.954a5.22,5.22,0,0,0,1.648,1.187,4.985,4.985,0,0,0,2.131.45,4.737,4.737,0,0,0,2.065-.45,5.294,5.294,0,0,0,1.626-1.187A5.331,5.331,0,0,0,80.826-8.7a6,6,0,0,0,.385-2.153,5.768,5.768,0,0,0-.385-2.109,5.794,5.794,0,0,0-1.066-1.758,4.918,4.918,0,0,0-1.626-1.208,4.837,4.837,0,0,0-2.065-.439,5.09,5.09,0,0,0-2.131.439,4.858,4.858,0,0,0-1.648,1.208,5.794,5.794,0,0,0-1.066,1.758A5.768,5.768,0,0,0,70.84-10.854Zm20.3.286h7.273a5.623,5.623,0,0,0,1.307,3.977,4.449,4.449,0,0,0,3.417,1.406,3.9,3.9,0,0,0,3.109-1.252,4.262,4.262,0,0,0,1.088-2.878,4.692,4.692,0,0,0-1.033-3.175,4.567,4.567,0,0,0-3.6-1.2H99.866v-5.449H102.7q2.439,0,3.307-1.129a4.663,4.663,0,0,0,.868-2.925,3.309,3.309,0,0,0-1.011-2.673,3.879,3.879,0,0,0-2.593-.854q-2.329,0-3.164,1.264a5.992,5.992,0,0,0-.835,3.35H91.978a11.224,11.224,0,0,1,.659-3.845,8.74,8.74,0,0,1,2.01-3.2,9.783,9.783,0,0,1,3.439-2.2,13.644,13.644,0,0,1,5.01-.824,15.883,15.883,0,0,1,4.149.538A10.321,10.321,0,0,1,110.728-30a8.163,8.163,0,0,1,2.377,2.765,8.081,8.081,0,0,1,.89,3.862,7.422,7.422,0,0,1-1.355,4.512,6.668,6.668,0,0,1-3.22,2.487,8.345,8.345,0,0,1,2.027,1.066,7.608,7.608,0,0,1,1.648,1.615,7.544,7.544,0,0,1,1.125,2.186,8.641,8.641,0,0,1,.412,2.736,8.431,8.431,0,0,1-.929,4,8.906,8.906,0,0,1-2.52,2.966A11.71,11.71,0,0,1,107.541.044a14.451,14.451,0,0,1-4.314.637,15.1,15.1,0,0,1-5.164-.813,10.759,10.759,0,0,1-3.8-2.3,9.4,9.4,0,0,1-2.34-3.56A12.934,12.934,0,0,1,91.143-10.569Z" transform="translate(10385.148 1286.7)" fill="#fff" opacity="0.1"/>
        <path id="Path_138" data-name="Path 138" d="M1.688-34.641V-46.266H8.906V-59.3H23.578v13.031h10.5v11.625h-10.5v16.1a13.676,13.676,0,0,0,.469,3.991,5.123,5.123,0,0,0,1.336,2.281A4.648,4.648,0,0,0,27.4-11.172a10.012,10.012,0,0,0,2.508.3q1.359,0,2.789-.07A20.76,20.76,0,0,0,35.2-11.2V0q-1.641.281-4.1.514t-5.7.233a44.039,44.039,0,0,1-5.5-.368,12.806,12.806,0,0,1-5.361-1.93,11.585,11.585,0,0,1-4.044-4.8,20.391,20.391,0,0,1-1.6-8.894v-19.4ZM39.375-23.156a25.065,25.065,0,0,1,1.758-9.375,22.735,22.735,0,0,1,5.086-7.734,24.61,24.61,0,0,1,8.063-5.3,27.606,27.606,0,0,1,10.688-1.969,28.234,28.234,0,0,1,10.844,1.969,24.384,24.384,0,0,1,8.092,5.3,23.2,23.2,0,0,1,5.1,7.734A24.7,24.7,0,0,1,90.8-23.156a24.872,24.872,0,0,1-1.788,9.4A23.138,23.138,0,0,1,83.9-6,24.384,24.384,0,0,1,75.813-.7,28.234,28.234,0,0,1,64.969,1.266,27.605,27.605,0,0,1,54.281-.7,24.61,24.61,0,0,1,46.219-6a22.735,22.735,0,0,1-5.086-7.734A25.191,25.191,0,0,1,39.375-23.156Zm14.672,0A13.648,13.648,0,0,0,54.82-18.5a11.65,11.65,0,0,0,2.2,3.78,10.123,10.123,0,0,0,3.445,2.551,10.7,10.7,0,0,0,4.5.921,11.185,11.185,0,0,0,4.57-.921,9.957,9.957,0,0,0,3.516-2.551,12.42,12.42,0,0,0,2.25-3.756,12.892,12.892,0,0,0,.82-4.677,12.87,12.87,0,0,0-.82-4.583,11.99,11.99,0,0,0-2.25-3.78,10.416,10.416,0,0,0-3.492-2.551,10.9,10.9,0,0,0-4.594-.945,10.473,10.473,0,0,0-4.5.945,10.546,10.546,0,0,0-3.445,2.551,11.331,11.331,0,0,0-2.2,3.78A13.568,13.568,0,0,0,54.047-23.156ZM99.984,0V-67.219h14.672v40.547L129-46.266h17.438L128.391-23.156,146.344,0H128.906l-14.25-19.406V0Zm47.625-23.156a28.074,28.074,0,0,1,1.575-9.516,21.721,21.721,0,0,1,4.7-7.711,22.337,22.337,0,0,1,7.709-5.227,27.367,27.367,0,0,1,10.647-1.922,26.4,26.4,0,0,1,9.835,1.734,23.846,23.846,0,0,1,7.469,4.617,20.06,20.06,0,0,1,4.8,6.727,19.858,19.858,0,0,1,1.686,8.063q0,1.453-.047,3.07a25.888,25.888,0,0,1-.422,3.727H162.281a14.032,14.032,0,0,0,.631,3.584,7.621,7.621,0,0,0,1.73,2.952,8.07,8.07,0,0,0,3.11,1.982,13.731,13.731,0,0,0,4.77.717,11.093,11.093,0,0,0,5.8-1.224,6.583,6.583,0,0,0,2.713-2.995h14.436a15.7,15.7,0,0,1-2.248,6.141,18.111,18.111,0,0,1-4.707,5.016A23.6,23.6,0,0,1,181.607,0a29.623,29.623,0,0,1-8.991,1.266A30.046,30.046,0,0,1,161.875-.516a21.414,21.414,0,0,1-7.85-5.039,21.36,21.36,0,0,1-4.794-7.734A28.786,28.786,0,0,1,147.609-23.156Zm14.672-4.875h19.359a9.512,9.512,0,0,0-2.642-7.1,9.348,9.348,0,0,0-6.851-2.6,10.18,10.18,0,0,0-7.084,2.508Q162.281-32.719,162.281-28.031ZM205.922,0V-46.266h14.672v6.7a13.389,13.389,0,0,1,5.813-5.812,19.78,19.78,0,0,1,9.375-2.062,19.663,19.663,0,0,1,7.781,1.406,12.777,12.777,0,0,1,5.2,3.891,13.827,13.827,0,0,1,2.906,6.188,43.965,43.965,0,0,1,.7,8.484V0H237.7V-23.719a16.186,16.186,0,0,0-1.781-8.086q-1.781-3.117-6.375-3.117a7.677,7.677,0,0,0-6.727,3.164,14.524,14.524,0,0,0-2.227,8.508V0Zm55.219-15.469h14.391q0,3.656,2.063,5.25a8.413,8.413,0,0,0,5.3,1.594,8.541,8.541,0,0,0,4.383-1.008,3.537,3.537,0,0,0,1.711-3.305,3.169,3.169,0,0,0-.727-2.181,7.073,7.073,0,0,0-2.226-1.547,28.148,28.148,0,0,0-3.828-1.451l-5.641-1.757q-2.859-.844-5.461-1.852a19.53,19.53,0,0,1-4.57-2.461,10.53,10.53,0,0,1-3.117-3.656,12.01,12.01,0,0,1-1.148-5.578q0-7.219,5.531-10.664T282.7-47.531a29.455,29.455,0,0,1,8.789,1.2,17.14,17.14,0,0,1,6.258,3.328,13.976,13.976,0,0,1,3.68,4.992,15.243,15.243,0,0,1,1.242,6.141H288.188a6.3,6.3,0,0,0-1.477-4.453,5.948,5.948,0,0,0-4.57-1.594,7.212,7.212,0,0,0-3.844,1,3.388,3.388,0,0,0-1.641,3.108,2.9,2.9,0,0,0,.775,2.08,6.913,6.913,0,0,0,2.277,1.472,38.87,38.87,0,0,0,3.708,1.354l5.058,1.6a59.467,59.467,0,0,1,5.763,1.878,20.678,20.678,0,0,1,4.709,2.511A10.856,10.856,0,0,1,302.18-19.2a11.677,11.677,0,0,1,1.195,5.562,13.7,13.7,0,0,1-1.641,6.961,13.054,13.054,0,0,1-4.523,4.617,20.3,20.3,0,0,1-6.68,2.555,40.591,40.591,0,0,1-8.109.773q-9.891,0-15.586-4.336T261.141-15.469Z" transform="translate(10005.148 966.7)" fill="#fff" opacity="0.1"/>
        <path id="Path_141" data-name="Path 141" d="M2.391-11.6H13.184A4.67,4.67,0,0,0,14.73-7.664a6.31,6.31,0,0,0,3.973,1.2,6.406,6.406,0,0,0,3.287-.756A2.653,2.653,0,0,0,23.273-9.7a2.377,2.377,0,0,0-.545-1.636,5.3,5.3,0,0,0-1.67-1.16,21.111,21.111,0,0,0-2.871-1.088l-4.231-1.318q-2.145-.633-4.1-1.389a14.648,14.648,0,0,1-3.428-1.846A7.9,7.9,0,0,1,4.1-20.883a9.007,9.007,0,0,1-.861-4.184q0-5.414,4.148-8t11.18-2.584a22.091,22.091,0,0,1,6.592.9,12.855,12.855,0,0,1,4.693,2.5,10.482,10.482,0,0,1,2.76,3.744,11.432,11.432,0,0,1,.932,4.605H22.676a4.728,4.728,0,0,0-1.107-3.34,4.461,4.461,0,0,0-3.428-1.2,5.409,5.409,0,0,0-2.883.754,2.541,2.541,0,0,0-1.23,2.331,2.177,2.177,0,0,0,.581,1.56,5.185,5.185,0,0,0,1.708,1.1A29.152,29.152,0,0,0,19.1-21.678l3.793,1.2a44.6,44.6,0,0,1,4.322,1.408,15.509,15.509,0,0,1,3.532,1.883A8.142,8.142,0,0,1,33.17-14.4a8.758,8.758,0,0,1,.9,4.172,10.275,10.275,0,0,1-1.23,5.221,9.791,9.791,0,0,1-3.393,3.463A15.229,15.229,0,0,1,24.434.369a30.443,30.443,0,0,1-6.082.58Q10.934.949,6.662-2.3T2.391-11.6Zm36.633-5.766A18.8,18.8,0,0,1,40.342-24.4a17.051,17.051,0,0,1,3.814-5.8A18.458,18.458,0,0,1,50.2-34.172a20.7,20.7,0,0,1,8.016-1.477,21.175,21.175,0,0,1,8.133,1.477A18.288,18.288,0,0,1,72.421-30.2a17.4,17.4,0,0,1,3.828,5.8,18.521,18.521,0,0,1,1.341,7.031,18.654,18.654,0,0,1-1.341,7.049A17.353,17.353,0,0,1,72.421-4.5,18.288,18.288,0,0,1,66.352-.527,21.175,21.175,0,0,1,58.219.949,20.7,20.7,0,0,1,50.2-.527,18.458,18.458,0,0,1,44.156-4.5a17.051,17.051,0,0,1-3.814-5.8A18.893,18.893,0,0,1,39.023-17.367Zm11,0a10.236,10.236,0,0,0,.58,3.49,8.738,8.738,0,0,0,1.652,2.835,7.592,7.592,0,0,0,2.584,1.914,8.025,8.025,0,0,0,3.375.691,8.389,8.389,0,0,0,3.428-.691,7.467,7.467,0,0,0,2.637-1.914,9.315,9.315,0,0,0,1.688-2.817,9.669,9.669,0,0,0,.615-3.508,9.653,9.653,0,0,0-.615-3.437,8.992,8.992,0,0,0-1.687-2.835,7.812,7.812,0,0,0-2.619-1.914,8.177,8.177,0,0,0-3.445-.709,7.855,7.855,0,0,0-3.375.709A7.91,7.91,0,0,0,52.26-23.64,8.5,8.5,0,0,0,50.607-20.8,10.176,10.176,0,0,0,50.027-17.367ZM82.2-17.35a20.41,20.41,0,0,1,1.178-6.9,16.592,16.592,0,0,1,3.551-5.842,17.367,17.367,0,0,1,5.871-4.047,20.07,20.07,0,0,1,8.033-1.513,21.43,21.43,0,0,1,7.629,1.23,16.67,16.67,0,0,1,5.432,3.252,14.368,14.368,0,0,1,3.393,4.641,17.1,17.1,0,0,1,1.477,5.432h-11a6.147,6.147,0,0,0-1.916-3.736q-1.564-1.432-4.939-1.432a7.7,7.7,0,0,0-3.41.719A6.587,6.587,0,0,0,95.08-23.6a8.724,8.724,0,0,0-1.406,2.842,12,12,0,0,0-.475,3.4,12.187,12.187,0,0,0,.475,3.421,8.14,8.14,0,0,0,1.441,2.842,6.849,6.849,0,0,0,2.514,1.93,8.693,8.693,0,0,0,3.691.719,6.727,6.727,0,0,0,4.324-1.178,7.177,7.177,0,0,0,2.18-3.428h11a17.636,17.636,0,0,1-1.723,5.52,13.9,13.9,0,0,1-3.533,4.43,16.864,16.864,0,0,1-5.432,2.953,22.632,22.632,0,0,1-7.312,1.09,20.1,20.1,0,0,1-8.033-1.51A17.37,17.37,0,0,1,86.924-4.6a16.554,16.554,0,0,1-3.551-5.83A20.438,20.438,0,0,1,82.2-17.35ZM124.277-46.23a6.7,6.7,0,0,1,2.021-4.957,6.877,6.877,0,0,1,5.045-2,7.415,7.415,0,0,1,2.813.527,7.045,7.045,0,0,1,2.268,1.459,6.6,6.6,0,0,1,1.512,2.232,7.026,7.026,0,0,1,.545,2.742,6.772,6.772,0,0,1-.545,2.707,7.1,7.1,0,0,1-1.512,2.232,6.991,6.991,0,0,1-2.268,1.512,7.205,7.205,0,0,1-2.812.545,6.95,6.95,0,0,1-2.777-.545,7.1,7.1,0,0,1-2.232-1.512,7.1,7.1,0,0,1-1.512-2.232A6.772,6.772,0,0,1,124.277-46.23ZM125.859,0V-34.7h11V0ZM144.07-17.367a21,21,0,0,1,1.217-7.242,16.742,16.742,0,0,1,3.457-5.748,16.422,16.422,0,0,1,5.38-3.814,16.722,16.722,0,0,1,6.914-1.406,11.872,11.872,0,0,1,3.3.475,14.173,14.173,0,0,1,3.052,1.266,11.723,11.723,0,0,1,2.491,1.863,9.612,9.612,0,0,1,1.719,2.232V-34.7h11V0h-11V-4.887a8.492,8.492,0,0,1-1.719,2.268,11.456,11.456,0,0,1-2.491,1.793A15.392,15.392,0,0,1,164.336.4a11.872,11.872,0,0,1-3.3.475,16.757,16.757,0,0,1-6.9-1.406,16.25,16.25,0,0,1-5.4-3.832,16.932,16.932,0,0,1-3.457-5.766A21,21,0,0,1,144.07-17.367Zm11,0a9.67,9.67,0,0,0,.614,3.428,8.654,8.654,0,0,0,1.684,2.813,8.241,8.241,0,0,0,2.578,1.9,7.713,7.713,0,0,0,3.368.721,7.828,7.828,0,0,0,3.385-.721,8.184,8.184,0,0,0,2.6-1.9,8.694,8.694,0,0,0,1.684-2.795,9.626,9.626,0,0,0,.614-3.445,9.247,9.247,0,0,0-.614-3.375,9.464,9.464,0,0,0-1.684-2.812,7.669,7.669,0,0,0-2.578-1.934,7.961,7.961,0,0,0-3.4-.7,7.876,7.876,0,0,0-3.368.7,7.669,7.669,0,0,0-2.578,1.934,9.464,9.464,0,0,0-1.684,2.813A9.247,9.247,0,0,0,155.074-17.367ZM191.918,0V-50.414h11V0Zm37.828,0V-34.7H240.4v5.027a10.328,10.328,0,0,1,3.744-4.184,11.056,11.056,0,0,1,6.275-1.723q4.535,0,6.979,1.811a10.444,10.444,0,0,1,3.533,4.447,11.148,11.148,0,0,1,4.184-4.5,12.345,12.345,0,0,1,6.68-1.758,13.817,13.817,0,0,1,6.153,1.2,9.8,9.8,0,0,1,3.783,3.182,11.394,11.394,0,0,1,1.839,4.535,29.757,29.757,0,0,1,.46,5.291V0H273.375V-18.7a10.312,10.312,0,0,0-1.248-5.5,4.43,4.43,0,0,0-4.061-1.986,6.371,6.371,0,0,0-2.32.422,4.406,4.406,0,0,0-1.881,1.424,7.077,7.077,0,0,0-1.213,2.707,17.8,17.8,0,0,0-.422,4.2V0H251.578V-18.809a10.143,10.143,0,0,0-1.23-5.449,4.355,4.355,0,0,0-3.973-1.934A6.43,6.43,0,0,0,244-25.77a4.335,4.335,0,0,0-1.863,1.459,8.055,8.055,0,0,0-1.266,2.777,16.8,16.8,0,0,0-.475,4.342V0Zm61-17.367a21.055,21.055,0,0,1,1.181-7.137,16.291,16.291,0,0,1,3.526-5.783,16.753,16.753,0,0,1,5.782-3.92,20.526,20.526,0,0,1,7.985-1.441,19.8,19.8,0,0,1,7.376,1.3,17.885,17.885,0,0,1,5.6,3.463,15.045,15.045,0,0,1,3.6,5.045,14.893,14.893,0,0,1,1.265,6.047q0,1.09-.035,2.3a19.416,19.416,0,0,1-.316,2.795H301.746a10.524,10.524,0,0,0,.474,2.688,5.716,5.716,0,0,0,1.3,2.214,6.053,6.053,0,0,0,2.332,1.486,10.3,10.3,0,0,0,3.577.538,8.319,8.319,0,0,0,4.349-.918,4.937,4.937,0,0,0,2.034-2.246h10.827a11.775,11.775,0,0,1-1.686,4.605,13.583,13.583,0,0,1-3.53,3.762A17.7,17.7,0,0,1,316.24,0,22.217,22.217,0,0,1,309.5.949a22.535,22.535,0,0,1-8.055-1.336,16.06,16.06,0,0,1-5.887-3.779,16.02,16.02,0,0,1-3.6-5.8A21.589,21.589,0,0,1,290.742-17.367Zm11-3.656h14.52a7.134,7.134,0,0,0-1.982-5.326,7.011,7.011,0,0,0-5.138-1.951,7.635,7.635,0,0,0-5.313,1.881A6.891,6.891,0,0,0,301.746-21.023Zm30.586,3.656a21,21,0,0,1,1.217-7.242,16.742,16.742,0,0,1,3.457-5.748,16.422,16.422,0,0,1,5.38-3.814,16.722,16.722,0,0,1,6.914-1.406,11.872,11.872,0,0,1,3.3.475,14.173,14.173,0,0,1,3.052,1.266,11.723,11.723,0,0,1,2.491,1.863,9.612,9.612,0,0,1,1.719,2.232V-50.414h11V0h-11V-4.887a8.492,8.492,0,0,1-1.719,2.268A11.456,11.456,0,0,1,355.65-.826,15.392,15.392,0,0,1,352.6.4a11.872,11.872,0,0,1-3.3.475,16.757,16.757,0,0,1-6.9-1.406,16.25,16.25,0,0,1-5.4-3.832,16.932,16.932,0,0,1-3.457-5.766A21,21,0,0,1,332.332-17.367Zm11,0a9.67,9.67,0,0,0,.614,3.428,8.654,8.654,0,0,0,1.684,2.813,8.241,8.241,0,0,0,2.578,1.9,7.713,7.713,0,0,0,3.368.721,7.828,7.828,0,0,0,3.385-.721,8.184,8.184,0,0,0,2.6-1.9,8.694,8.694,0,0,0,1.684-2.795,9.626,9.626,0,0,0,.614-3.445,9.247,9.247,0,0,0-.614-3.375,9.464,9.464,0,0,0-1.684-2.812,7.669,7.669,0,0,0-2.578-1.934,7.961,7.961,0,0,0-3.4-.7,7.876,7.876,0,0,0-3.368.7,7.669,7.669,0,0,0-2.578,1.934,9.464,9.464,0,0,0-1.684,2.813A9.247,9.247,0,0,0,343.336-17.367ZM378.6-46.23a6.7,6.7,0,0,1,2.021-4.957,6.877,6.877,0,0,1,5.045-2,7.415,7.415,0,0,1,2.813.527,7.045,7.045,0,0,1,2.268,1.459,6.6,6.6,0,0,1,1.512,2.232,7.026,7.026,0,0,1,.545,2.742,6.772,6.772,0,0,1-.545,2.707,7.1,7.1,0,0,1-1.512,2.232,6.991,6.991,0,0,1-2.268,1.512,7.205,7.205,0,0,1-2.812.545,6.95,6.95,0,0,1-2.777-.545,7.1,7.1,0,0,1-2.232-1.512,7.1,7.1,0,0,1-1.512-2.232A6.772,6.772,0,0,1,378.6-46.23ZM380.18,0V-34.7h11V0Zm18.211-17.367a21,21,0,0,1,1.217-7.242,16.742,16.742,0,0,1,3.457-5.748,16.422,16.422,0,0,1,5.38-3.814,16.722,16.722,0,0,1,6.914-1.406,11.872,11.872,0,0,1,3.3.475,14.173,14.173,0,0,1,3.052,1.266,11.723,11.723,0,0,1,2.491,1.863,9.612,9.612,0,0,1,1.719,2.232V-34.7h11V0h-11V-4.887A8.492,8.492,0,0,1,424.2-2.619a11.456,11.456,0,0,1-2.491,1.793A15.392,15.392,0,0,1,418.656.4a11.872,11.872,0,0,1-3.3.475,16.757,16.757,0,0,1-6.9-1.406,16.25,16.25,0,0,1-5.4-3.832,16.932,16.932,0,0,1-3.457-5.766A21,21,0,0,1,398.391-17.367Zm11,0a9.67,9.67,0,0,0,.614,3.428,8.654,8.654,0,0,0,1.684,2.813,8.241,8.241,0,0,0,2.578,1.9,7.713,7.713,0,0,0,3.368.721,7.828,7.828,0,0,0,3.385-.721,8.184,8.184,0,0,0,2.6-1.9,8.694,8.694,0,0,0,1.684-2.795,9.626,9.626,0,0,0,.614-3.445,9.247,9.247,0,0,0-.614-3.375,9.464,9.464,0,0,0-1.684-2.812,7.669,7.669,0,0,0-2.578-1.934,7.961,7.961,0,0,0-3.4-.7,7.876,7.876,0,0,0-3.368.7,7.669,7.669,0,0,0-2.578,1.934,9.464,9.464,0,0,0-1.684,2.813A9.247,9.247,0,0,0,409.395-17.367Z" transform="translate(10535.148 1037.7)" fill="#fff" opacity="0.1"/>
        <path id="Path_144" data-name="Path 144" d="M5.328-79.619A11.544,11.544,0,0,1,8.81-88.156,11.844,11.844,0,0,1,17.5-91.607a12.77,12.77,0,0,1,4.844.908,12.134,12.134,0,0,1,3.905,2.513,11.37,11.37,0,0,1,2.6,3.845,12.1,12.1,0,0,1,.938,4.723,11.663,11.663,0,0,1-.938,4.662,12.221,12.221,0,0,1-2.6,3.845,12.041,12.041,0,0,1-3.905,2.6,12.409,12.409,0,0,1-4.844.938,11.969,11.969,0,0,1-4.783-.938,12.221,12.221,0,0,1-3.845-2.6,12.221,12.221,0,0,1-2.6-3.845A11.662,11.662,0,0,1,5.328-79.619ZM8.053,0V-59.76H27V0ZM43.109,0V-59.76H62.061V-51.1a17.294,17.294,0,0,1,7.508-7.508,25.549,25.549,0,0,1,12.109-2.664,25.4,25.4,0,0,1,10.051,1.816,16.5,16.5,0,0,1,6.721,5.025,17.859,17.859,0,0,1,3.754,7.992,56.788,56.788,0,0,1,.908,10.959V0H84.16V-30.637a20.907,20.907,0,0,0-2.3-10.444q-2.3-4.026-8.234-4.026-5.812,0-8.688,4.087T62.061-30.031V0Zm71.324-29.88a35.151,35.151,0,0,1,2.028-11.879,28.575,28.575,0,0,1,6.115-10.061,29.909,29.909,0,0,1,10.111-6.97,34.566,34.566,0,0,1,13.835-2.606,36.907,36.907,0,0,1,13.139,2.119,28.708,28.708,0,0,1,9.354,5.6,24.745,24.745,0,0,1,5.843,7.992,29.449,29.449,0,0,1,2.543,9.354H158.451a10.587,10.587,0,0,0-3.3-6.435q-2.694-2.466-8.507-2.466a13.253,13.253,0,0,0-5.873,1.239,11.345,11.345,0,0,0-4.147,3.354,15.025,15.025,0,0,0-2.422,4.894,20.673,20.673,0,0,0-.817,5.862,20.988,20.988,0,0,0,.817,5.892,14.019,14.019,0,0,0,2.482,4.894,11.8,11.8,0,0,0,4.329,3.323,14.971,14.971,0,0,0,6.357,1.239q4.965,0,7.447-2.028a12.36,12.36,0,0,0,3.754-5.9h18.951a30.374,30.374,0,0,1-2.967,9.506,23.946,23.946,0,0,1-6.085,7.629,29.043,29.043,0,0,1-9.354,5.086,38.978,38.978,0,0,1-12.594,1.877,34.621,34.621,0,0,1-13.835-2.6,29.915,29.915,0,0,1-10.111-6.956,28.51,28.51,0,0,1-6.115-10.041A35.2,35.2,0,0,1,114.434-29.88Zm70.779-.03A36.262,36.262,0,0,1,187.247-42.2a28.057,28.057,0,0,1,6.072-9.96,28.852,28.852,0,0,1,9.958-6.751,35.35,35.35,0,0,1,13.753-2.482,34.1,34.1,0,0,1,12.7,2.24,30.8,30.8,0,0,1,9.648,5.964,25.911,25.911,0,0,1,6.2,8.688,25.65,25.65,0,0,1,2.178,10.414q0,1.877-.061,3.966a33.437,33.437,0,0,1-.545,4.813H204.164a18.125,18.125,0,0,0,.815,4.629,9.844,9.844,0,0,0,2.235,3.813,10.424,10.424,0,0,0,4.017,2.56,17.736,17.736,0,0,0,6.161.926q4.953,0,7.489-1.581a8.5,8.5,0,0,0,3.5-3.868h18.647a20.279,20.279,0,0,1-2.9,7.932,23.394,23.394,0,0,1-6.079,6.479A30.482,30.482,0,0,1,229.126,0a38.263,38.263,0,0,1-11.614,1.635,38.81,38.81,0,0,1-13.873-2.3A27.659,27.659,0,0,1,193.5-7.175a27.59,27.59,0,0,1-6.193-9.99A37.181,37.181,0,0,1,185.213-29.91Zm18.951-6.3H229.17q0-5.812-3.413-9.173a12.074,12.074,0,0,0-8.849-3.36,13.149,13.149,0,0,0-9.15,3.239Q204.164-42.262,204.164-36.207ZM260.533,0V-59.76h18.951V-51.1a17.294,17.294,0,0,1,7.508-7.508A25.549,25.549,0,0,1,299.1-61.273a25.4,25.4,0,0,1,10.051,1.816,16.5,16.5,0,0,1,6.721,5.025,17.859,17.859,0,0,1,3.754,7.992,56.788,56.788,0,0,1,.908,10.959V0H301.584V-30.637a20.907,20.907,0,0,0-2.3-10.444q-2.3-4.026-8.234-4.026-5.812,0-8.688,4.087t-2.876,10.989V0ZM329.92-44.744V-59.76h9.324V-76.592H358.2V-59.76h13.563v15.016H358.2v20.8a17.664,17.664,0,0,0,.605,5.155,6.617,6.617,0,0,0,1.726,2.946,6,6,0,0,0,2.6,1.414,12.933,12.933,0,0,0,3.239.383q1.756,0,3.6-.091a26.815,26.815,0,0,0,3.239-.333V0q-2.119.362-5.3.664t-7.356.3a56.883,56.883,0,0,1-7.1-.475A16.541,16.541,0,0,1,346.533-2a14.964,14.964,0,0,1-5.224-6.2q-2.065-4.185-2.065-11.488V-44.744Zm50.617-34.875a11.544,11.544,0,0,1,3.481-8.537,11.844,11.844,0,0,1,8.688-3.451,12.77,12.77,0,0,1,4.844.908,12.134,12.134,0,0,1,3.905,2.513,11.37,11.37,0,0,1,2.6,3.845A12.1,12.1,0,0,1,405-79.619a11.663,11.663,0,0,1-.938,4.662,12.221,12.221,0,0,1-2.6,3.845,12.04,12.04,0,0,1-3.905,2.6,12.409,12.409,0,0,1-4.844.938,11.969,11.969,0,0,1-4.783-.938,12.221,12.221,0,0,1-3.845-2.6,12.221,12.221,0,0,1-2.6-3.845A11.663,11.663,0,0,1,380.537-79.619ZM383.262,0V-59.76h18.951V0Zm26.762-59.76h19.859l14.471,37.539L459.006-59.76h19.859L451.8,0H436.664Zm69.084,29.85A36.262,36.262,0,0,1,481.141-42.2a28.057,28.057,0,0,1,6.072-9.96,28.852,28.852,0,0,1,9.958-6.751,35.35,35.35,0,0,1,13.753-2.482,34.1,34.1,0,0,1,12.7,2.24,30.8,30.8,0,0,1,9.648,5.964,25.911,25.911,0,0,1,6.2,8.688,25.65,25.65,0,0,1,2.178,10.414q0,1.877-.061,3.966a33.433,33.433,0,0,1-.545,4.813H498.059a18.125,18.125,0,0,0,.815,4.629,9.844,9.844,0,0,0,2.235,3.813,10.424,10.424,0,0,0,4.017,2.56,17.736,17.736,0,0,0,6.161.926q4.953,0,7.489-1.581a8.5,8.5,0,0,0,3.5-3.868h18.647a20.278,20.278,0,0,1-2.9,7.932,23.392,23.392,0,0,1-6.079,6.479A30.482,30.482,0,0,1,523.021,0a38.263,38.263,0,0,1-11.614,1.635,38.81,38.81,0,0,1-13.873-2.3,27.659,27.659,0,0,1-10.139-6.509,27.59,27.59,0,0,1-6.193-9.99A37.181,37.181,0,0,1,479.107-29.91Zm18.951-6.3h25.006q0-5.812-3.413-9.173a12.074,12.074,0,0,0-8.849-3.36,13.149,13.149,0,0,0-9.15,3.239Q498.059-42.262,498.059-36.207ZM550.492-19.98H569.08q0,4.723,2.664,6.781a10.867,10.867,0,0,0,6.842,2.059,11.032,11.032,0,0,0,5.661-1.3,4.568,4.568,0,0,0,2.21-4.269,4.094,4.094,0,0,0-.938-2.817,9.136,9.136,0,0,0-2.875-2A36.355,36.355,0,0,0,577.7-23.4l-7.287-2.27q-3.693-1.09-7.054-2.392a25.227,25.227,0,0,1-5.9-3.179,13.6,13.6,0,0,1-4.026-4.723,15.512,15.512,0,0,1-1.483-7.205q0-9.324,7.145-13.774t19.254-4.45A38.046,38.046,0,0,1,589.7-59.851a22.139,22.139,0,0,1,8.083,4.3,18.052,18.052,0,0,1,4.753,6.448,19.689,19.689,0,0,1,1.6,7.932H585.428a8.143,8.143,0,0,0-1.907-5.752q-1.907-2.059-5.9-2.059a9.315,9.315,0,0,0-4.965,1.3,4.376,4.376,0,0,0-2.119,4.014,3.749,3.749,0,0,0,1,2.686,8.929,8.929,0,0,0,2.942,1.9,50.208,50.208,0,0,0,4.79,1.748l6.533,2.071a76.816,76.816,0,0,1,7.444,2.426,26.71,26.71,0,0,1,6.083,3.244A14.022,14.022,0,0,1,603.5-24.8a15.082,15.082,0,0,1,1.543,7.185,17.7,17.7,0,0,1-2.119,8.991,16.862,16.862,0,0,1-5.843,5.964,26.227,26.227,0,0,1-8.628,3.3,52.43,52.43,0,0,1-10.475,1q-12.775,0-20.132-5.6T550.492-19.98Z" transform="translate(10535.148 1379.7)" fill="#fff" opacity="0.1"/>
        <path id="Path_139" data-name="Path 139" d="M1.494-7.251H8.24A2.919,2.919,0,0,0,9.207-4.79a3.944,3.944,0,0,0,2.483.747,4,4,0,0,0,2.054-.473,1.658,1.658,0,0,0,.8-1.549,1.486,1.486,0,0,0-.341-1.022,3.315,3.315,0,0,0-1.044-.725,13.2,13.2,0,0,0-1.794-.68L8.723-9.316q-1.34-.4-2.56-.868a9.155,9.155,0,0,1-2.142-1.154A4.936,4.936,0,0,1,2.56-13.052a5.629,5.629,0,0,1-.538-2.615,5.473,5.473,0,0,1,2.593-5A13.122,13.122,0,0,1,11.6-22.28a13.807,13.807,0,0,1,4.12.56,8.034,8.034,0,0,1,2.933,1.56,6.551,6.551,0,0,1,1.725,2.34,7.145,7.145,0,0,1,.582,2.878h-6.79a2.955,2.955,0,0,0-.692-2.087,2.788,2.788,0,0,0-2.142-.747,3.38,3.38,0,0,0-1.8.471,1.588,1.588,0,0,0-.769,1.457,1.36,1.36,0,0,0,.363.975,3.24,3.24,0,0,0,1.068.69,18.22,18.22,0,0,0,1.738.634l2.371.752a27.875,27.875,0,0,1,2.7.88,9.693,9.693,0,0,1,2.207,1.177A5.089,5.089,0,0,1,20.731-9a5.473,5.473,0,0,1,.56,2.607,6.422,6.422,0,0,1-.769,3.263A6.119,6.119,0,0,1,18.4-.967a9.518,9.518,0,0,1-3.131,1.2,19.027,19.027,0,0,1-3.8.363A11.794,11.794,0,0,1,4.164-1.439,6.869,6.869,0,0,1,1.494-7.251Zm23.027-3.6a13.124,13.124,0,0,1,.761-4.526,10.464,10.464,0,0,1,2.161-3.593,10.264,10.264,0,0,1,3.362-2.384,10.451,10.451,0,0,1,4.321-.879,7.42,7.42,0,0,1,2.061.3,8.858,8.858,0,0,1,1.908.791,7.327,7.327,0,0,1,1.557,1.165,6.008,6.008,0,0,1,1.074,1.4v-3.1H48.6V0H41.726V-3.054a5.308,5.308,0,0,1-1.074,1.417A7.16,7.16,0,0,1,39.1-.516a9.62,9.62,0,0,1-1.908.769,7.42,7.42,0,0,1-2.061.3,10.473,10.473,0,0,1-4.31-.879,10.156,10.156,0,0,1-3.373-2.4,10.582,10.582,0,0,1-2.161-3.6A13.124,13.124,0,0,1,24.521-10.854Zm6.877,0a6.044,6.044,0,0,0,.384,2.142,5.409,5.409,0,0,0,1.052,1.758,5.151,5.151,0,0,0,1.612,1.187,4.821,4.821,0,0,0,2.1.45,4.892,4.892,0,0,0,2.116-.45A5.115,5.115,0,0,0,40.29-6.954,5.434,5.434,0,0,0,41.342-8.7a6.016,6.016,0,0,0,.384-2.153,5.78,5.78,0,0,0-.384-2.109,5.915,5.915,0,0,0-1.052-1.758,4.793,4.793,0,0,0-1.612-1.208,4.976,4.976,0,0,0-2.127-.439,4.922,4.922,0,0,0-2.1.439,4.793,4.793,0,0,0-1.612,1.208,5.915,5.915,0,0,0-1.052,1.758A5.78,5.78,0,0,0,31.4-10.854Zm21.687,0a13.124,13.124,0,0,1,.761-4.526,10.464,10.464,0,0,1,2.161-3.593,10.264,10.264,0,0,1,3.362-2.384,10.451,10.451,0,0,1,4.321-.879,7.42,7.42,0,0,1,2.061.3,8.858,8.858,0,0,1,1.908.791,7.327,7.327,0,0,1,1.557,1.165,6.008,6.008,0,0,1,1.074,1.4v-3.1h6.877V0H70.291V-3.054a5.308,5.308,0,0,1-1.074,1.417A7.16,7.16,0,0,1,67.659-.516a9.62,9.62,0,0,1-1.908.769,7.42,7.42,0,0,1-2.061.3,10.473,10.473,0,0,1-4.31-.879,10.156,10.156,0,0,1-3.373-2.4,10.582,10.582,0,0,1-2.161-3.6A13.124,13.124,0,0,1,53.086-10.854Zm6.877,0a6.044,6.044,0,0,0,.384,2.142A5.409,5.409,0,0,0,61.4-6.954a5.151,5.151,0,0,0,1.612,1.187,4.821,4.821,0,0,0,2.1.45,4.892,4.892,0,0,0,2.116-.45,5.115,5.115,0,0,0,1.623-1.187A5.434,5.434,0,0,0,69.907-8.7a6.016,6.016,0,0,0,.384-2.153,5.78,5.78,0,0,0-.384-2.109,5.915,5.915,0,0,0-1.052-1.758,4.793,4.793,0,0,0-1.612-1.208,4.976,4.976,0,0,0-2.127-.439,4.922,4.922,0,0,0-2.1.439A4.793,4.793,0,0,0,61.4-14.722a5.915,5.915,0,0,0-1.052,1.758A5.78,5.78,0,0,0,59.963-10.854Zm21.6,3.6h6.746a2.919,2.919,0,0,0,.967,2.461,3.944,3.944,0,0,0,2.483.747,4,4,0,0,0,2.054-.473,1.658,1.658,0,0,0,.8-1.549,1.486,1.486,0,0,0-.341-1.022,3.315,3.315,0,0,0-1.044-.725,13.2,13.2,0,0,0-1.794-.68l-2.644-.824q-1.34-.4-2.56-.868a9.155,9.155,0,0,1-2.142-1.154,4.936,4.936,0,0,1-1.461-1.714,5.629,5.629,0,0,1-.538-2.615,5.473,5.473,0,0,1,2.593-5A13.122,13.122,0,0,1,91.67-22.28a13.807,13.807,0,0,1,4.12.56,8.034,8.034,0,0,1,2.933,1.56,6.551,6.551,0,0,1,1.725,2.34,7.145,7.145,0,0,1,.582,2.878h-6.79a2.955,2.955,0,0,0-.692-2.087,2.788,2.788,0,0,0-2.142-.747,3.38,3.38,0,0,0-1.8.471,1.588,1.588,0,0,0-.769,1.457,1.36,1.36,0,0,0,.363.975,3.24,3.24,0,0,0,1.068.69A18.22,18.22,0,0,0,92-13.549l2.371.752a27.875,27.875,0,0,1,2.7.88,9.693,9.693,0,0,1,2.207,1.177A5.089,5.089,0,0,1,100.8-9a5.473,5.473,0,0,1,.56,2.607,6.422,6.422,0,0,1-.769,3.263A6.119,6.119,0,0,1,98.47-.967a9.518,9.518,0,0,1-3.131,1.2,19.027,19.027,0,0,1-3.8.363,11.794,11.794,0,0,1-7.306-2.032A6.869,6.869,0,0,1,81.563-7.251Z" transform="translate(10247.148 1077.7)" fill="#fff" opacity="0.1"/>
        <path id="Path_140" data-name="Path 140" d="M7.208,0V-77.722H24.173v31.869a14.81,14.81,0,0,1,2.656-3.442,17.587,17.587,0,0,1,3.9-2.873,23.557,23.557,0,0,1,4.715-1.951,18.382,18.382,0,0,1,5.2-.732,25.484,25.484,0,0,1,10.569,2.168A25.231,25.231,0,0,1,59.484-46.8a26.12,26.12,0,0,1,5.339,8.889,32.119,32.119,0,0,1,1.9,11.138,32.053,32.053,0,0,1-1.9,11.165,26.471,26.471,0,0,1-5.339,8.889A25.041,25.041,0,0,1,51.218-.813,25.484,25.484,0,0,1,40.649,1.355,18.471,18.471,0,0,1,35.473.623a25.475,25.475,0,0,1-4.742-1.9,16.653,16.653,0,0,1-3.875-2.764,14.445,14.445,0,0,1-2.683-3.5V0ZM24.173-26.774a14.878,14.878,0,0,0,.948,5.284,13.09,13.09,0,0,0,2.629,4.336,12.875,12.875,0,0,0,4.065,2.927,12.3,12.3,0,0,0,5.257,1.111,11.685,11.685,0,0,0,5.095-1.111,13.058,13.058,0,0,0,4.011-2.927,13.149,13.149,0,0,0,2.629-4.309,14.811,14.811,0,0,0,.948-5.312,14.228,14.228,0,0,0-.948-5.2,14.291,14.291,0,0,0-2.629-4.336,12.13,12.13,0,0,0-4.011-2.981,11.931,11.931,0,0,0-5.095-1.084,12.556,12.556,0,0,0-5.257,1.084,11.982,11.982,0,0,0-4.065,2.981,14.291,14.291,0,0,0-2.629,4.336A14.228,14.228,0,0,0,24.173-26.774Zm53.061,5.041V-53.495H94.2V-26.07a18.756,18.756,0,0,0,2.054,9.349q2.054,3.6,7.35,3.6t7.811-3.658q2.513-3.658,2.513-9.891V-53.495h16.964V0H113.927V-7.642a15.611,15.611,0,0,1-6.7,6.612,22.755,22.755,0,0,1-10.81,2.385A22.765,22.765,0,0,1,87.4-.271a14.874,14.874,0,0,1-6.021-4.5,15.72,15.72,0,0,1-3.351-7.154A52.267,52.267,0,0,1,77.234-21.734Zm65.581-49.538a10.334,10.334,0,0,1,3.116-7.642A10.6,10.6,0,0,1,153.709-82a11.431,11.431,0,0,1,4.336.813,10.862,10.862,0,0,1,3.5,2.249,10.178,10.178,0,0,1,2.331,3.442,10.831,10.831,0,0,1,.84,4.228,10.44,10.44,0,0,1-.84,4.173,10.94,10.94,0,0,1-2.331,3.442,10.778,10.778,0,0,1-3.5,2.331,11.108,11.108,0,0,1-4.336.84,10.714,10.714,0,0,1-4.282-.84,10.94,10.94,0,0,1-3.442-2.331,10.94,10.94,0,0,1-2.331-3.442A10.44,10.44,0,0,1,142.815-71.272ZM145.254,0V-53.495h16.964V0Zm28.075-26.774a32.372,32.372,0,0,1,1.876-11.165,25.81,25.81,0,0,1,5.33-8.862,25.317,25.317,0,0,1,8.294-5.881,25.78,25.78,0,0,1,10.659-2.168,18.3,18.3,0,0,1,5.084.732,21.851,21.851,0,0,1,4.705,1.951,18.073,18.073,0,0,1,3.84,2.873,14.819,14.819,0,0,1,2.65,3.442V-77.722h16.964V0H215.767V-7.534a13.092,13.092,0,0,1-2.65,3.5,17.662,17.662,0,0,1-3.84,2.764,23.729,23.729,0,0,1-4.705,1.9,18.3,18.3,0,0,1-5.084.732A25.833,25.833,0,0,1,188.856-.813a25.052,25.052,0,0,1-8.321-5.908,26.1,26.1,0,0,1-5.33-8.889A32.372,32.372,0,0,1,173.329-26.774Zm16.964,0a14.908,14.908,0,0,0,.946,5.284,13.341,13.341,0,0,0,2.6,4.336,12.7,12.7,0,0,0,3.975,2.927A11.891,11.891,0,0,0,203-13.116a12.068,12.068,0,0,0,5.219-1.111,12.616,12.616,0,0,0,4-2.927,13.4,13.4,0,0,0,2.6-4.309,14.841,14.841,0,0,0,.946-5.312,14.257,14.257,0,0,0-.946-5.2,14.59,14.59,0,0,0-2.6-4.336,11.823,11.823,0,0,0-3.975-2.981A12.274,12.274,0,0,0,203-40.378a12.142,12.142,0,0,0-5.192,1.084,11.823,11.823,0,0,0-3.975,2.981,14.59,14.59,0,0,0-2.6,4.336A14.257,14.257,0,0,0,190.293-26.774ZM247.094,0V-77.722h16.964V0Z" transform="translate(9808.148 1203.7)" fill="#fff" opacity="0.1"/>
      </g>
      <path id="Path_147" data-name="Path 147" d="M-373.947-15.2A16.553,16.553,0,0,1-372.8-21.32a16.37,16.37,0,0,1,3.2-5.142,14.532,14.532,0,0,1,4.939-3.488,15.743,15.743,0,0,1,6.367-1.261,12.757,12.757,0,0,1,6.255,1.611,10.559,10.559,0,0,1,4.393,4.44V-46.913h5.823V0h-5.823V-5.3a10.652,10.652,0,0,1-4.377,4.432A12.681,12.681,0,0,1-358.292.752a15.6,15.6,0,0,1-6.367-1.275A14.837,14.837,0,0,1-369.6-4a16.179,16.179,0,0,1-3.2-5.1A16.362,16.362,0,0,1-373.947-15.2Zm5.823,0a11.547,11.547,0,0,0,.735,4.148,10.709,10.709,0,0,0,2.041,3.381,9.706,9.706,0,0,0,3.168,2.319,9.88,9.88,0,0,0,4.213.866,10.213,10.213,0,0,0,4.263-.866,9.934,9.934,0,0,0,3.25-2.319,10.4,10.4,0,0,0,2.074-3.381,11.547,11.547,0,0,0,.735-4.148,11.547,11.547,0,0,0-.735-4.148,10.6,10.6,0,0,0-2.074-3.4,10.019,10.019,0,0,0-3.25-2.352,10.051,10.051,0,0,0-4.263-.882,9.724,9.724,0,0,0-4.213.882,9.794,9.794,0,0,0-3.168,2.352,10.868,10.868,0,0,0-2.041,3.413A11.586,11.586,0,0,0-368.124-15.2Zm34.285-.016a19.449,19.449,0,0,1,1.017-6.363,14.849,14.849,0,0,1,2.921-5.1,13.045,13.045,0,0,1,4.693-3.337,16.226,16.226,0,0,1,6.433-1.194,14.757,14.757,0,0,1,5.523,1.031,13.252,13.252,0,0,1,4.477,2.912,13.814,13.814,0,0,1,2.974,4.384,13.454,13.454,0,0,1,1.078,5.382q0,.654-.033,1.6a19.258,19.258,0,0,1-.229,2.225h-23.031a12.876,12.876,0,0,0,.637,3.648A9.033,9.033,0,0,0-325.7-7a7.818,7.818,0,0,0,2.841,2.077,10.533,10.533,0,0,0,4.278.769A8.068,8.068,0,0,0-313.4-5.594a7.82,7.82,0,0,0,2.5-3.37h5.92a11.065,11.065,0,0,1-1.47,3.664,11.584,11.584,0,0,1-2.827,3.075,14.553,14.553,0,0,1-4.085,2.159,15.7,15.7,0,0,1-5.212.818,16.522,16.522,0,0,1-6.728-1.276,13.544,13.544,0,0,1-4.775-3.419A14.026,14.026,0,0,1-332.9-9.013,20.25,20.25,0,0,1-333.839-15.212Zm5.889-2.879h17.6a8.4,8.4,0,0,0-2.433-6.378,8.511,8.511,0,0,0-6.123-2.324,9.189,9.189,0,0,0-6.433,2.258A8.659,8.659,0,0,0-327.95-18.091Zm29.28,2.9a18.646,18.646,0,0,1,.965-5.96,15.3,15.3,0,0,1,2.879-5.125,14.025,14.025,0,0,1,4.76-3.586,15.169,15.169,0,0,1,6.543-1.343,17.381,17.381,0,0,1,6.33,1.031,13.188,13.188,0,0,1,4.351,2.666,11.07,11.07,0,0,1,2.617,3.795,14.671,14.671,0,0,1,1.1,4.351h-5.823a7.7,7.7,0,0,0-2.241-4.7q-1.914-1.9-6.2-1.9a9.118,9.118,0,0,0-4.122.882,8.522,8.522,0,0,0-2.944,2.385,10.671,10.671,0,0,0-1.783,3.446,13.6,13.6,0,0,0-.605,4.067,14.267,14.267,0,0,0,.573,4.083A9.73,9.73,0,0,0-290.491-7.7a8.6,8.6,0,0,0,3.042,2.352,10.185,10.185,0,0,0,4.384.866q3.828,0,5.643-1.619a8.585,8.585,0,0,0,2.535-4.335h5.823a13.309,13.309,0,0,1-1.39,4.384A11.69,11.69,0,0,1-273.3-2.519a13.474,13.474,0,0,1-4.335,2.388,17.757,17.757,0,0,1-5.823.883,15.139,15.139,0,0,1-6.576-1.34,14.569,14.569,0,0,1-4.76-3.562,14.8,14.8,0,0,1-2.912-5.1A18.571,18.571,0,0,1-298.67-15.2Zm35.1-.016a19.449,19.449,0,0,1,1.017-6.363,14.849,14.849,0,0,1,2.921-5.1,13.045,13.045,0,0,1,4.693-3.337A16.226,16.226,0,0,1-248.5-31.21a14.757,14.757,0,0,1,5.523,1.031,13.253,13.253,0,0,1,4.477,2.912,13.814,13.814,0,0,1,2.974,4.384,13.454,13.454,0,0,1,1.078,5.382q0,.654-.033,1.6a19.255,19.255,0,0,1-.229,2.225h-23.031a12.876,12.876,0,0,0,.637,3.648A9.033,9.033,0,0,0-255.425-7a7.818,7.818,0,0,0,2.841,2.077,10.533,10.533,0,0,0,4.278.769,8.068,8.068,0,0,0,5.176-1.439,7.82,7.82,0,0,0,2.5-3.37h5.92a11.065,11.065,0,0,1-1.47,3.664,11.583,11.583,0,0,1-2.827,3.075,14.553,14.553,0,0,1-4.085,2.159,15.7,15.7,0,0,1-5.212.818,16.522,16.522,0,0,1-6.728-1.276,13.544,13.544,0,0,1-4.775-3.419,14.026,14.026,0,0,1-2.822-5.071A20.25,20.25,0,0,1-263.567-15.212Zm5.889-2.879h17.6a8.4,8.4,0,0,0-2.433-6.378,8.511,8.511,0,0,0-6.123-2.324,9.188,9.188,0,0,0-6.433,2.258A8.659,8.659,0,0,0-257.678-18.091ZM-226.043,0V-30.425h5.823v5.46a10.491,10.491,0,0,1,4.089-4.551,12.415,12.415,0,0,1,6.641-1.694,13.211,13.211,0,0,1,5.48,1.031,8.553,8.553,0,0,1,3.615,2.993,11.012,11.012,0,0,1,1.816,3.877,22.332,22.332,0,0,1,.54,5.349V0h-5.823V-16.1A17.928,17.928,0,0,0-204.271-20a8.859,8.859,0,0,0-1.309-3.145,6.437,6.437,0,0,0-2.372-2.069,7.8,7.8,0,0,0-3.631-.766,7.841,7.841,0,0,0-3.828.88,8.166,8.166,0,0,0-2.666,2.314,10.3,10.3,0,0,0-1.6,3.292,13.828,13.828,0,0,0-.54,3.878V0Zm33.958-25.518v-4.907h5.627v-10.24h5.823v10.24h7.917v4.907h-7.917v14.046a13.151,13.151,0,0,0,.376,3.528,4.806,4.806,0,0,0,1.047,2,3.022,3.022,0,0,0,1.57.9,9.614,9.614,0,0,0,2.045.2q.949,0,2.11-.065a14.782,14.782,0,0,0,1.848-.2V0q-.883.131-2.323.262t-2.912.131a20.263,20.263,0,0,1-3.092-.262,7.106,7.106,0,0,1-3.124-1.309,7.771,7.771,0,0,1-2.4-3.19,14.589,14.589,0,0,1-.965-5.872V-25.518ZM-165.423,0V-30.425h5.823v5.954a9.927,9.927,0,0,1,4.057-4.646,11.285,11.285,0,0,1,6.052-1.767,7.808,7.808,0,0,1,2.879.458v5.365q-.949-.2-1.5-.262a12.063,12.063,0,0,0-1.374-.065q-5.1,0-7.606,3.288a14.086,14.086,0,0,0-2.5,8.751V0Zm21.3-15.2a16.552,16.552,0,0,1,1.149-6.124,16.371,16.371,0,0,1,3.2-5.142,14.532,14.532,0,0,1,4.939-3.488,15.743,15.743,0,0,1,6.367-1.261,12.757,12.757,0,0,1,6.255,1.611,10.559,10.559,0,0,1,4.393,4.44v-5.266H-112V0h-5.823V-5.3A10.652,10.652,0,0,1-122.2-.867,12.681,12.681,0,0,1-128.471.752a15.6,15.6,0,0,1-6.367-1.275A14.837,14.837,0,0,1-139.777-4a16.18,16.18,0,0,1-3.2-5.1A16.362,16.362,0,0,1-144.125-15.2Zm5.823,0a11.547,11.547,0,0,0,.735,4.148,10.709,10.709,0,0,0,2.041,3.381,9.706,9.706,0,0,0,3.168,2.319,9.88,9.88,0,0,0,4.213.866,10.213,10.213,0,0,0,4.263-.866,9.934,9.934,0,0,0,3.25-2.319,10.4,10.4,0,0,0,2.074-3.381,11.547,11.547,0,0,0,.735-4.148,11.547,11.547,0,0,0-.735-4.148,10.6,10.6,0,0,0-2.074-3.4,10.018,10.018,0,0,0-3.25-2.352,10.051,10.051,0,0,0-4.263-.882,9.724,9.724,0,0,0-4.213.882,9.794,9.794,0,0,0-3.168,2.352,10.868,10.868,0,0,0-2.041,3.413A11.586,11.586,0,0,0-138.3-15.2ZM-101.661,0V-46.913h5.823V0Zm14.493-41.94a4.672,4.672,0,0,1,1.341-3.337,4.385,4.385,0,0,1,3.3-1.407,4.56,4.56,0,0,1,3.337,1.407A4.56,4.56,0,0,1-77.78-41.94a4.349,4.349,0,0,1-1.407,3.271,4.672,4.672,0,0,1-3.337,1.341,4.506,4.506,0,0,1-3.288-1.341A4.424,4.424,0,0,1-87.169-41.94ZM-85.4,0V-30.425h5.823V0Zm12.628,0,16.292-25.19H-72.218v-5.234h25.583L-62.927-5.234H-46.57V0Zm30-15.212a19.449,19.449,0,0,1,1.017-6.363,14.85,14.85,0,0,1,2.921-5.1,13.045,13.045,0,0,1,4.693-3.337A16.226,16.226,0,0,1-27.71-31.21a14.757,14.757,0,0,1,5.523,1.031,13.252,13.252,0,0,1,4.477,2.912,13.814,13.814,0,0,1,2.974,4.384A13.454,13.454,0,0,1-13.658-17.5q0,.654-.033,1.6a19.256,19.256,0,0,1-.229,2.225H-36.951a12.876,12.876,0,0,0,.637,3.648A9.032,9.032,0,0,0-34.633-7a7.818,7.818,0,0,0,2.841,2.077,10.533,10.533,0,0,0,4.278.769,8.068,8.068,0,0,0,5.176-1.439,7.82,7.82,0,0,0,2.5-3.37h5.92A11.065,11.065,0,0,1-15.391-5.3a11.584,11.584,0,0,1-2.827,3.075A14.553,14.553,0,0,1-22.3-.065a15.7,15.7,0,0,1-5.212.818A16.522,16.522,0,0,1-34.242-.523a13.544,13.544,0,0,1-4.775-3.419,14.026,14.026,0,0,1-2.822-5.071A20.25,20.25,0,0,1-42.775-15.212Zm5.889-2.879h17.6a8.4,8.4,0,0,0-2.433-6.378,8.511,8.511,0,0,0-6.123-2.324,9.189,9.189,0,0,0-6.433,2.258A8.659,8.659,0,0,0-36.886-18.091Zm29.149,2.9A16.552,16.552,0,0,1-6.588-21.32a16.371,16.371,0,0,1,3.2-5.142,14.532,14.532,0,0,1,4.939-3.488A15.743,15.743,0,0,1,7.918-31.21,12.757,12.757,0,0,1,14.173-29.6a10.559,10.559,0,0,1,4.393,4.44V-46.913h5.823V0H18.566V-5.3A10.652,10.652,0,0,1,14.189-.867,12.681,12.681,0,0,1,7.918.752,15.6,15.6,0,0,1,1.551-.522,14.837,14.837,0,0,1-3.389-4a16.18,16.18,0,0,1-3.2-5.1A16.362,16.362,0,0,1-7.737-15.2Zm5.823,0a11.547,11.547,0,0,0,.735,4.148A10.709,10.709,0,0,0,.862-7.667,9.706,9.706,0,0,0,4.031-5.348a9.88,9.88,0,0,0,4.213.866,10.213,10.213,0,0,0,4.263-.866,9.934,9.934,0,0,0,3.25-2.319,10.4,10.4,0,0,0,2.074-3.381,11.547,11.547,0,0,0,.735-4.148,11.547,11.547,0,0,0-.735-4.148,10.6,10.6,0,0,0-2.074-3.4,10.018,10.018,0,0,0-3.25-2.352,10.051,10.051,0,0,0-4.263-.882,9.724,9.724,0,0,0-4.213.882A9.794,9.794,0,0,0,.862-22.742a10.868,10.868,0,0,0-2.041,3.413A11.586,11.586,0,0,0-1.914-15.2Zm51.1,0a16.552,16.552,0,0,1,1.149-6.124,16.371,16.371,0,0,1,3.2-5.142,14.532,14.532,0,0,1,4.939-3.488,15.743,15.743,0,0,1,6.367-1.261A12.757,12.757,0,0,1,71.1-29.6a10.559,10.559,0,0,1,4.393,4.44v-5.266h5.823V0H75.49V-5.3A10.652,10.652,0,0,1,71.113-.867,12.681,12.681,0,0,1,64.841.752,15.6,15.6,0,0,1,58.474-.522,14.837,14.837,0,0,1,53.535-4a16.18,16.18,0,0,1-3.2-5.1A16.362,16.362,0,0,1,49.187-15.2Zm5.823,0a11.547,11.547,0,0,0,.735,4.148,10.709,10.709,0,0,0,2.041,3.381,9.706,9.706,0,0,0,3.168,2.319,9.88,9.88,0,0,0,4.213.866,10.213,10.213,0,0,0,4.263-.866,9.934,9.934,0,0,0,3.25-2.319,10.4,10.4,0,0,0,2.074-3.381A11.547,11.547,0,0,0,75.49-15.2a11.547,11.547,0,0,0-.735-4.148,10.6,10.6,0,0,0-2.074-3.4,10.018,10.018,0,0,0-3.25-2.352,10.051,10.051,0,0,0-4.263-.882,9.724,9.724,0,0,0-4.213.882,9.794,9.794,0,0,0-3.168,2.352,10.868,10.868,0,0,0-2.041,3.413A11.586,11.586,0,0,0,55.01-15.2Zm36.019,2.732v-17.96h5.823v16.055a17.782,17.782,0,0,0,.409,3.948,8.882,8.882,0,0,0,1.309,3.1,6.509,6.509,0,0,0,2.339,2.072,7.6,7.6,0,0,0,3.6.767,8.413,8.413,0,0,0,3.86-.832,7.586,7.586,0,0,0,2.7-2.268,10.289,10.289,0,0,0,1.6-3.312,14.273,14.273,0,0,0,.54-3.965V-30.425h5.823V0H113.21V-5.494a10.5,10.5,0,0,1-4.122,4.544,12.348,12.348,0,0,1-6.576,1.7A13.374,13.374,0,0,1,96.983-.294a8.9,8.9,0,0,1-3.664-2.912A10.573,10.573,0,0,1,91.536-7.1,23.941,23.941,0,0,1,91.029-12.464Zm34.58-13.053v-4.907h5.627v-10.24h5.823v10.24h7.917v4.907h-7.917v14.046a13.151,13.151,0,0,0,.376,3.528,4.806,4.806,0,0,0,1.047,2,3.022,3.022,0,0,0,1.57.9,9.614,9.614,0,0,0,2.045.2q.949,0,2.11-.065a14.782,14.782,0,0,0,1.848-.2V0q-.883.131-2.323.262t-2.912.131a20.263,20.263,0,0,1-3.092-.262,7.106,7.106,0,0,1-3.124-1.309,7.771,7.771,0,0,1-2.4-3.19,14.589,14.589,0,0,1-.965-5.872V-25.518ZM149.523-15.2a16.552,16.552,0,0,1,1.149-6.124,16.073,16.073,0,0,1,3.232-5.142,14.716,14.716,0,0,1,5.037-3.488A16.552,16.552,0,0,1,165.5-31.21a16.813,16.813,0,0,1,6.661,1.261,15.062,15.062,0,0,1,5.07,3.488A15.79,15.79,0,0,1,180.5-21.32a16.552,16.552,0,0,1,1.149,6.124A16.362,16.362,0,0,1,180.5-9.1,15.611,15.611,0,0,1,177.235-4a15.384,15.384,0,0,1-5.07,3.481A16.654,16.654,0,0,1,165.5.752a16.364,16.364,0,0,1-6.58-1.275A15.064,15.064,0,0,1,153.9-4a15.888,15.888,0,0,1-3.232-5.1A16.362,16.362,0,0,1,149.523-15.2Zm5.823,0a11.547,11.547,0,0,0,.735,4.148,10.709,10.709,0,0,0,2.041,3.381,9.706,9.706,0,0,0,3.168,2.319,9.88,9.88,0,0,0,4.213.866,10.213,10.213,0,0,0,4.263-.866,9.933,9.933,0,0,0,3.25-2.319,10.4,10.4,0,0,0,2.074-3.381,11.547,11.547,0,0,0,.735-4.148,11.547,11.547,0,0,0-.735-4.148,10.6,10.6,0,0,0-2.074-3.4,10.018,10.018,0,0,0-3.25-2.352,10.051,10.051,0,0,0-4.263-.882,9.724,9.724,0,0,0-4.213.882,9.794,9.794,0,0,0-3.168,2.352,10.868,10.868,0,0,0-2.041,3.413A11.586,11.586,0,0,0,155.346-15.2ZM189.5,0V-30.425h5.823V-24.9a9.584,9.584,0,0,1,3.222-4.45,8.937,8.937,0,0,1,5.741-1.86,10.649,10.649,0,0,1,6.576,1.792,8.882,8.882,0,0,1,3.206,4.779,8.862,8.862,0,0,1,1.407-2.505,10.773,10.773,0,0,1,2.192-2.107,10.559,10.559,0,0,1,2.813-1.427,10.455,10.455,0,0,1,3.37-.531,12.514,12.514,0,0,1,5.1.932,8.634,8.634,0,0,1,3.353,2.535,10.246,10.246,0,0,1,1.832,3.811,18.645,18.645,0,0,1,.573,4.695V0h-5.823V-17.437q0-4.2-1.636-6.372a5.65,5.65,0,0,0-4.809-2.167,6.484,6.484,0,0,0-5.414,2.607q-2.012,2.607-2.012,7.953V0H209.2V-17.078q0-4.6-1.636-6.746a5.6,5.6,0,0,0-4.744-2.151,6.6,6.6,0,0,0-5.414,2.607q-2.077,2.607-2.077,7.953V0Zm52.7-15.2a16.552,16.552,0,0,1,1.149-6.124,16.371,16.371,0,0,1,3.2-5.142,14.532,14.532,0,0,1,4.939-3.488,15.743,15.743,0,0,1,6.367-1.261,12.757,12.757,0,0,1,6.255,1.611,10.559,10.559,0,0,1,4.393,4.44v-5.266h5.823V0h-5.823V-5.3A10.652,10.652,0,0,1,264.13-.867,12.681,12.681,0,0,1,257.859.752a15.6,15.6,0,0,1-6.367-1.275A14.837,14.837,0,0,1,246.553-4a16.18,16.18,0,0,1-3.2-5.1A16.362,16.362,0,0,1,242.2-15.2Zm5.823,0a11.547,11.547,0,0,0,.735,4.148A10.709,10.709,0,0,0,250.8-7.667a9.706,9.706,0,0,0,3.168,2.319,9.88,9.88,0,0,0,4.213.866,10.213,10.213,0,0,0,4.263-.866,9.934,9.934,0,0,0,3.25-2.319,10.4,10.4,0,0,0,2.074-3.381,11.547,11.547,0,0,0,.735-4.148,11.547,11.547,0,0,0-.735-4.148,10.6,10.6,0,0,0-2.074-3.4,10.019,10.019,0,0,0-3.25-2.352,10.051,10.051,0,0,0-4.263-.882,9.724,9.724,0,0,0-4.213.882,9.794,9.794,0,0,0-3.168,2.352,10.868,10.868,0,0,0-2.041,3.413A11.586,11.586,0,0,0,248.028-15.2Zm32.748-10.322v-4.907H286.4v-10.24h5.823v10.24h7.917v4.907h-7.917v14.046a13.151,13.151,0,0,0,.376,3.528,4.806,4.806,0,0,0,1.047,2,3.022,3.022,0,0,0,1.57.9,9.614,9.614,0,0,0,2.045.2q.949,0,2.11-.065a14.782,14.782,0,0,0,1.848-.2V0q-.883.131-2.323.262t-2.912.131A20.263,20.263,0,0,1,292.9.131a7.106,7.106,0,0,1-3.124-1.309,7.772,7.772,0,0,1-2.4-3.19,14.589,14.589,0,0,1-.965-5.872V-25.518Zm23.653,10.305a19.449,19.449,0,0,1,1.017-6.363,14.849,14.849,0,0,1,2.921-5.1,13.045,13.045,0,0,1,4.693-3.337,16.226,16.226,0,0,1,6.433-1.194,14.757,14.757,0,0,1,5.523,1.031,13.252,13.252,0,0,1,4.477,2.912,13.814,13.814,0,0,1,2.974,4.384,13.454,13.454,0,0,1,1.078,5.382q0,.654-.033,1.6a19.258,19.258,0,0,1-.229,2.225H310.251a12.876,12.876,0,0,0,.637,3.648A9.033,9.033,0,0,0,312.57-7a7.818,7.818,0,0,0,2.841,2.077,10.533,10.533,0,0,0,4.278.769,8.068,8.068,0,0,0,5.176-1.439,7.82,7.82,0,0,0,2.5-3.37h5.92a11.065,11.065,0,0,1-1.47,3.664,11.584,11.584,0,0,1-2.827,3.075A14.553,14.553,0,0,1,324.9-.065a15.7,15.7,0,0,1-5.212.818,16.522,16.522,0,0,1-6.728-1.276,13.544,13.544,0,0,1-4.775-3.419,14.026,14.026,0,0,1-2.822-5.071A20.25,20.25,0,0,1,304.428-15.212Zm5.889-2.879h17.6a8.4,8.4,0,0,0-2.433-6.378,8.511,8.511,0,0,0-6.123-2.324,9.189,9.189,0,0,0-6.433,2.258A8.659,8.659,0,0,0,310.317-18.091Zm29.149,2.9a16.553,16.553,0,0,1,1.149-6.124,16.37,16.37,0,0,1,3.2-5.142,14.532,14.532,0,0,1,4.939-3.488,15.743,15.743,0,0,1,6.367-1.261,12.757,12.757,0,0,1,6.255,1.611,10.559,10.559,0,0,1,4.393,4.44V-46.913h5.823V0h-5.823V-5.3a10.652,10.652,0,0,1-4.377,4.432A12.681,12.681,0,0,1,355.12.752a15.6,15.6,0,0,1-6.367-1.275A14.837,14.837,0,0,1,343.814-4a16.179,16.179,0,0,1-3.2-5.1A16.362,16.362,0,0,1,339.466-15.2Zm5.823,0a11.547,11.547,0,0,0,.735,4.148,10.709,10.709,0,0,0,2.041,3.381,9.706,9.706,0,0,0,3.168,2.319,9.88,9.88,0,0,0,4.213.866,10.213,10.213,0,0,0,4.263-.866,9.934,9.934,0,0,0,3.25-2.319,10.4,10.4,0,0,0,2.074-3.381,11.547,11.547,0,0,0,.735-4.148,11.547,11.547,0,0,0-.735-4.148,10.6,10.6,0,0,0-2.074-3.4,10.019,10.019,0,0,0-3.25-2.352,10.051,10.051,0,0,0-4.263-.882,9.724,9.724,0,0,0-4.213.882,9.794,9.794,0,0,0-3.168,2.352,10.868,10.868,0,0,0-2.041,3.413A11.586,11.586,0,0,0,345.289-15.2ZM-145.483,88V57.575h5.823V63.1a9.584,9.584,0,0,1,3.222-4.45,8.937,8.937,0,0,1,5.741-1.86,10.649,10.649,0,0,1,6.576,1.792,8.882,8.882,0,0,1,3.206,4.779,8.862,8.862,0,0,1,1.407-2.505,10.773,10.773,0,0,1,2.192-2.107,10.559,10.559,0,0,1,2.813-1.427,10.455,10.455,0,0,1,3.37-.531,12.514,12.514,0,0,1,5.1.932,8.634,8.634,0,0,1,3.353,2.535,10.246,10.246,0,0,1,1.832,3.811,18.645,18.645,0,0,1,.573,4.695V88h-5.823V70.563q0-4.2-1.636-6.372a5.65,5.65,0,0,0-4.809-2.167,6.484,6.484,0,0,0-5.414,2.607q-2.012,2.607-2.012,7.953V88h-5.823V70.922q0-4.6-1.636-6.746a5.6,5.6,0,0,0-4.744-2.151,6.6,6.6,0,0,0-5.414,2.607q-2.077,2.607-2.077,7.953V88Zm52.7-15.2a16.552,16.552,0,0,1,1.149-6.124,16.371,16.371,0,0,1,3.2-5.142,14.532,14.532,0,0,1,4.939-3.488,15.743,15.743,0,0,1,6.367-1.261A12.757,12.757,0,0,1-70.87,58.4a10.559,10.559,0,0,1,4.393,4.44V57.575h5.823V88h-5.823V82.7a10.652,10.652,0,0,1-4.377,4.432,12.681,12.681,0,0,1-6.272,1.619,15.6,15.6,0,0,1-6.367-1.275A14.837,14.837,0,0,1-88.431,84a16.18,16.18,0,0,1-3.2-5.1A16.362,16.362,0,0,1-92.779,72.8Zm5.823,0a11.547,11.547,0,0,0,.735,4.148,10.709,10.709,0,0,0,2.041,3.381,9.706,9.706,0,0,0,3.168,2.319,9.88,9.88,0,0,0,4.213.866,10.213,10.213,0,0,0,4.263-.866,9.934,9.934,0,0,0,3.25-2.319,10.4,10.4,0,0,0,2.074-3.381,11.547,11.547,0,0,0,.735-4.148,11.547,11.547,0,0,0-.735-4.148,10.6,10.6,0,0,0-2.074-3.4,10.018,10.018,0,0,0-3.25-2.352,10.051,10.051,0,0,0-4.263-.882,9.724,9.724,0,0,0-4.213.882,9.794,9.794,0,0,0-3.168,2.352,10.868,10.868,0,0,0-2.041,3.413A11.586,11.586,0,0,0-86.956,72.8ZM-50.315,88V57.575h5.823v5.954a9.927,9.927,0,0,1,4.057-4.646,11.285,11.285,0,0,1,6.052-1.767,7.808,7.808,0,0,1,2.879.458V62.94q-.949-.2-1.5-.262a12.063,12.063,0,0,0-1.374-.065q-5.1,0-7.606,3.288a14.086,14.086,0,0,0-2.5,8.751V88Zm24.438,0V41.087h5.823V71.446L-7.328,57.575H.033L-13.838,72.788.033,88H-7.328L-20.054,74.194V88ZM1.963,72.788A19.449,19.449,0,0,1,2.98,66.425a14.85,14.85,0,0,1,2.921-5.1,13.045,13.045,0,0,1,4.693-3.337,16.226,16.226,0,0,1,6.433-1.194,14.757,14.757,0,0,1,5.523,1.031,13.252,13.252,0,0,1,4.477,2.912A13.814,13.814,0,0,1,30,65.116,13.454,13.454,0,0,1,31.079,70.5q0,.654-.033,1.6a19.256,19.256,0,0,1-.229,2.225H7.786a12.876,12.876,0,0,0,.637,3.648A9.032,9.032,0,0,0,10.1,81a7.818,7.818,0,0,0,2.841,2.077,10.533,10.533,0,0,0,4.278.769A8.068,8.068,0,0,0,22.4,82.406a7.82,7.82,0,0,0,2.5-3.37h5.92a11.065,11.065,0,0,1-1.47,3.664,11.584,11.584,0,0,1-2.827,3.075,14.553,14.553,0,0,1-4.085,2.159,15.7,15.7,0,0,1-5.212.818A16.522,16.522,0,0,1,10.5,87.477a13.544,13.544,0,0,1-4.775-3.419A14.026,14.026,0,0,1,2.9,78.987,20.25,20.25,0,0,1,1.963,72.788Zm5.889-2.879h17.6a8.4,8.4,0,0,0-2.433-6.378A8.511,8.511,0,0,0,16.9,61.207a9.189,9.189,0,0,0-6.433,2.258A8.659,8.659,0,0,0,7.852,69.909Zm27.48-7.426V57.575h5.627V47.335h5.823v10.24H54.7v4.907H46.782V76.529a13.151,13.151,0,0,0,.376,3.528,4.806,4.806,0,0,0,1.047,2,3.022,3.022,0,0,0,1.57.9,9.614,9.614,0,0,0,2.045.2q.949,0,2.11-.065a14.781,14.781,0,0,0,1.848-.2V88q-.883.131-2.323.262t-2.912.131a20.263,20.263,0,0,1-3.092-.262,7.106,7.106,0,0,1-3.124-1.309,7.771,7.771,0,0,1-2.4-3.19,14.589,14.589,0,0,1-.965-5.872V62.482Zm24.9-16.423a4.672,4.672,0,0,1,1.341-3.337,4.385,4.385,0,0,1,3.3-1.407,4.8,4.8,0,0,1,4.744,4.744,4.349,4.349,0,0,1-1.407,3.271,4.672,4.672,0,0,1-3.337,1.341,4.506,4.506,0,0,1-3.288-1.341A4.424,4.424,0,0,1,60.228,46.06ZM61.995,88V57.575h5.823V88Zm16.259,0V57.575h5.823v5.46a10.491,10.491,0,0,1,4.089-4.551,12.415,12.415,0,0,1,6.641-1.694,13.211,13.211,0,0,1,5.48,1.031,8.553,8.553,0,0,1,3.615,2.993,11.012,11.012,0,0,1,1.816,3.877,22.332,22.332,0,0,1,.54,5.349V88h-5.823V71.9A17.928,17.928,0,0,0,100.026,68a8.859,8.859,0,0,0-1.309-3.145,6.437,6.437,0,0,0-2.372-2.069,8.873,8.873,0,0,0-7.459.114,8.166,8.166,0,0,0-2.666,2.314,10.294,10.294,0,0,0-1.6,3.292,13.828,13.828,0,0,0-.54,3.878V88Zm35.365-15.188a16.833,16.833,0,0,1,1.128-6.127,16.428,16.428,0,0,1,3.143-5.144,14.279,14.279,0,0,1,4.852-3.489,15.218,15.218,0,0,1,6.253-1.262,13.358,13.358,0,0,1,6.419,1.612,10.7,10.7,0,0,1,4.508,4.44V57.575h5.823V89.93A19.03,19.03,0,0,1,144.61,96.9a11.814,11.814,0,0,1-3.287,4.727,13.2,13.2,0,0,1-5.188,2.683,26.256,26.256,0,0,1-6.94.834,18.22,18.22,0,0,1-6.641-1.1,13.227,13.227,0,0,1-4.642-2.944,12.693,12.693,0,0,1-2.8-4.253,15.257,15.257,0,0,1-1.1-4.956h5.431a9.8,9.8,0,0,0,.754,3.038,7.493,7.493,0,0,0,1.793,2.553,8.67,8.67,0,0,0,2.967,1.761,12.237,12.237,0,0,0,4.24.662q5.028,0,7.877-2.34t2.849-7.669V82.717a10.777,10.777,0,0,1-4.491,4.421,13.308,13.308,0,0,1-6.435,1.615,15.092,15.092,0,0,1-6.253-1.274A14.574,14.574,0,0,1,117.89,84a16.216,16.216,0,0,1-3.143-5.1A16.608,16.608,0,0,1,113.619,72.812Zm5.823-.008a11.827,11.827,0,0,0,.715,4.148,10.77,10.77,0,0,0,1.987,3.381,9.356,9.356,0,0,0,7.186,3.185,10.716,10.716,0,0,0,4.374-.866,10.189,10.189,0,0,0,3.335-2.319,10.367,10.367,0,0,0,2.128-3.381,11.786,11.786,0,0,0,0-8.3,10.557,10.557,0,0,0-2.128-3.4,10.271,10.271,0,0,0-3.335-2.352,10.545,10.545,0,0,0-4.374-.882,9.253,9.253,0,0,0-4.1.882,9.557,9.557,0,0,0-3.084,2.352,10.933,10.933,0,0,0-1.987,3.413A11.867,11.867,0,0,0,119.442,72.8Z" transform="translate(10433 1885)" fill="#fff" opacity="0.15"/>
    </g>
  </g>
</svg>
