<svg xmlns="http://www.w3.org/2000/svg" width="1090" height="1534" viewBox="0 0 1090 1534">
  <g id="Group_175" data-name="Group 175" transform="translate(-7203 -571)">
    <rect id="Rectangle_17" data-name="Rectangle 17" width="1090" height="1534" transform="translate(7203 571)"/>
    <path id="Path_133" data-name="Path 133" d="M162.151,16.311q5.565,8.635,5.565,14.584a15.9,15.9,0,0,1-2.687,9.019A74.3,74.3,0,0,1,153.516,54.5q-8.827,8.635-8.827,14.392,0,3.646,4.03,6.333a16.775,16.775,0,0,0,9.4,3.07q6.716,0,25.138-12.473L177.5,91.342q-18.806,6.333-30.7,6.333h-3.07q-27.441-2.111-28.4-21.3V74.647a32.91,32.91,0,0,1,12.281-26.29q7.484-6.333,14.2-12.665a10.184,10.184,0,0,0,3.262-8.06q0-3.07-2.687-11.322Zm-7.1-273.066q-56.033.192-78.485,35.692T54.114-134.71q0,50.852,28.3,86.257t72.632,35.788h.959q43.176,0,71.385-37.228,28.4-37.8,28.4-83.666v-1.151q-.384-46.822-23.987-84.434T155.051-256.755Zm0-24.562h1.919q64.093,0,108.229,39.338,40.874,36.652,40.874,96.139,0,5.373-.384,10.746-4.03,67.355-47.11,104.774T154.859,10.554q-4.414.192-9.019.192-55.458,0-98.058-38.187Q4.414-66.2,4.414-128.377q0-3.454.192-7.1,2.3-66.587,43.56-105.83T155.051-281.317ZM97.674-330.826H212.811q6.716,0,6.716,5.949v16.5q0,5.757-6.716,5.757H97.674q-6.716,0-6.716-5.757v-16.5Q90.958-330.826,97.674-330.826Z" transform="translate(7594 1244)" fill="#fff"/>
    <text id="Quartile" transform="translate(7534.5 1591.585)" fill="#fff" stroke="#fff" stroke-linecap="round" stroke-linejoin="round" stroke-width="2" font-size="101" font-family="Coustard-Regular, Coustard" letter-spacing="0.03em"><tspan x="0" y="0">Quartile</tspan></text>
    <path id="Path_134" data-name="Path 134" d="M1.482,0,9.2-28.1H14.25L21.907,0H18.563L11.7-25.992h.038L4.826,0Zm3.99-7.429v-2.85h12.5v2.85ZM45.79.38a13.806,13.806,0,0,1-3.373-.39,8.841,8.841,0,0,1-2.7-1.14A5.473,5.473,0,0,1,37.933-3,4.96,4.96,0,0,1,37.3-5.529v-.589h3.249V-5.7a2.557,2.557,0,0,0,1.425,2.347,7.925,7.925,0,0,0,3.895.808,11.068,11.068,0,0,0,2.717-.3,4.376,4.376,0,0,0,1.89-.931,2.036,2.036,0,0,0,.694-1.577A2.312,2.312,0,0,0,49.694-7.61a18.561,18.561,0,0,0-4.4-1.168,23.539,23.539,0,0,1-2.926-.694,10.08,10.08,0,0,1-2.46-1.112,5.223,5.223,0,0,1-1.691-1.7,4.615,4.615,0,0,1-.618-2.441,4.656,4.656,0,0,1,1.093-3.125,6.843,6.843,0,0,1,2.954-1.957,12.091,12.091,0,0,1,4.142-.675,11.422,11.422,0,0,1,4.066.7,7.106,7.106,0,0,1,2.993,2.042,4.937,4.937,0,0,1,1.131,3.3v.38h-3.23v-.285a2.476,2.476,0,0,0-.7-1.814,4.325,4.325,0,0,0-1.824-1.064,7.958,7.958,0,0,0-2.394-.351,10.871,10.871,0,0,0-2.356.257,4.771,4.771,0,0,0-1.919.845,1.932,1.932,0,0,0-.76,1.615,2.067,2.067,0,0,0,.713,1.644,5.436,5.436,0,0,0,2.014,1.007,29.055,29.055,0,0,0,3.068.712,26.382,26.382,0,0,1,2.983.712A10.475,10.475,0,0,1,52.05-9.69a5.052,5.052,0,0,1,1.691,1.682,4.692,4.692,0,0,1,.618,2.479,4.851,4.851,0,0,1-.674,2.584A5.633,5.633,0,0,1,51.823-1.1,9.151,9.151,0,0,1,49.086.01,14.132,14.132,0,0,1,45.79.38ZM68.1.3A7.977,7.977,0,0,1,66.272.1a4.205,4.205,0,0,1-1.605-.751,3.649,3.649,0,0,1-1.131-1.539,6.73,6.73,0,0,1-.418-2.575V-17.328H58.2v-2.85h3.154a8.191,8.191,0,0,0,1.007-.048.771.771,0,0,0,.522-.247,1.161,1.161,0,0,0,.2-.627q.038-.427.038-1.187v-4.579h3.249v6.688h6.308v2.85H66.367V-5.985a6.6,6.6,0,0,0,.39,2.527,1.7,1.7,0,0,0,1.757.912,5.527,5.527,0,0,0,1.045-.1,4.661,4.661,0,0,0,.741-.19V-.019A6.1,6.1,0,0,1,69.4.2,7.371,7.371,0,0,1,68.1.3ZM78.337-8.8v-2.888h15.6l-.57.95v-.418a7.02,7.02,0,0,0-.732-3.2,5.653,5.653,0,0,0-2.175-2.328,6.786,6.786,0,0,0-3.572-.874,7.628,7.628,0,0,0-3.781.912A6.426,6.426,0,0,0,80.56-14.07a8.119,8.119,0,0,0-.912,3.962,8.592,8.592,0,0,0,.883,4.028,6.2,6.2,0,0,0,2.518,2.6,7.83,7.83,0,0,0,3.876.912A10.275,10.275,0,0,0,89.7-2.9a6.1,6.1,0,0,0,1.947-.893,4.244,4.244,0,0,0,1.169-1.225,3.312,3.312,0,0,0,.475-1.33h3.23a5.888,5.888,0,0,1-.76,2.413,7.45,7.45,0,0,1-1.881,2.176A9.5,9.5,0,0,1,90.9-.19,12.849,12.849,0,0,1,86.83.4a10.575,10.575,0,0,1-5.358-1.33,9.554,9.554,0,0,1-3.638-3.686,10.886,10.886,0,0,1-1.321-5.415,10.849,10.849,0,0,1,1.33-5.444,9.6,9.6,0,0,1,3.667-3.676,10.6,10.6,0,0,1,5.339-1.33,10.2,10.2,0,0,1,5.3,1.33,9.063,9.063,0,0,1,3.458,3.638,11.1,11.1,0,0,1,1.216,5.254q0,.3-.019.8a4.519,4.519,0,0,1-.057.665ZM103,8.3V-20.178h3.23V8.3ZM112.86.38a8.735,8.735,0,0,1-4.37-1.15,9.169,9.169,0,0,1-3.3-3.164,8.469,8.469,0,0,1-1.264-4.6v-.19l2.318-.057v.171a5.415,5.415,0,0,0,.865,2.983,6.418,6.418,0,0,0,2.271,2.147,6.021,6.021,0,0,0,3.021.8,5.946,5.946,0,0,0,4.456-1.834q1.777-1.833,1.776-5.6,0-3.781-1.767-5.6a5.969,5.969,0,0,0-4.465-1.815,6.077,6.077,0,0,0-3.021.789,6.4,6.4,0,0,0-2.271,2.118,5.355,5.355,0,0,0-.865,2.983L103.93-11.7a8.314,8.314,0,0,1,1.264-4.579,8.96,8.96,0,0,1,3.3-3.087,8.968,8.968,0,0,1,4.37-1.112,8.824,8.824,0,0,1,4.522,1.207,8.815,8.815,0,0,1,3.325,3.524,11.72,11.72,0,0,1,1.254,5.643,12.175,12.175,0,0,1-1.235,5.728A8.648,8.648,0,0,1,117.42-.827,8.9,8.9,0,0,1,112.86.38Zm35.492,0a10.917,10.917,0,0,1-5.244-1.264,9.408,9.408,0,0,1-3.734-3.62,10.912,10.912,0,0,1-1.377-5.6,10.757,10.757,0,0,1,1.377-5.576,9.266,9.266,0,0,1,3.734-3.562,11.121,11.121,0,0,1,5.244-1.235,10.758,10.758,0,0,1,3.933.675,9.018,9.018,0,0,1,2.926,1.8,8.184,8.184,0,0,1,1.834,2.461,6.176,6.176,0,0,1,.636,2.669v.133H154.47a1.457,1.457,0,0,0-.019-.218q-.019-.124-.038-.257a4.122,4.122,0,0,0-.969-2.233,5.572,5.572,0,0,0-2.128-1.51,7.638,7.638,0,0,0-2.983-.551,7.649,7.649,0,0,0-3.487.808,6.238,6.238,0,0,0-2.584,2.451,8.009,8.009,0,0,0-.979,4.152,8.189,8.189,0,0,0,.969,4.161,6.386,6.386,0,0,0,2.574,2.518,7.408,7.408,0,0,0,3.506.846,7.74,7.74,0,0,0,3.382-.646,4.728,4.728,0,0,0,2-1.72,4.836,4.836,0,0,0,.751-2.309h3.211a6.623,6.623,0,0,1-.608,2.727,7.73,7.73,0,0,1-1.786,2.47A8.738,8.738,0,0,1,152.37-.285,11.205,11.205,0,0,1,148.352.38ZM167.333-29.7V0h-3.192V-29.7ZM183.939.361A10.451,10.451,0,0,1,178.572-1a9.72,9.72,0,0,1-3.648-3.724,10.861,10.861,0,0,1-1.32-5.386,10.7,10.7,0,0,1,1.32-5.358,9.572,9.572,0,0,1,3.648-3.667,10.627,10.627,0,0,1,5.368-1.33,10.627,10.627,0,0,1,5.367,1.33,9.572,9.572,0,0,1,3.648,3.667,10.7,10.7,0,0,1,1.32,5.358,10.861,10.861,0,0,1-1.32,5.386A9.72,9.72,0,0,1,189.307-1,10.451,10.451,0,0,1,183.939.361Zm0-2.964a7.18,7.18,0,0,0,3.686-.931,6.518,6.518,0,0,0,2.5-2.622,8.272,8.272,0,0,0,.9-3.952,8.1,8.1,0,0,0-.9-3.924,6.37,6.37,0,0,0-2.5-2.565,7.359,7.359,0,0,0-3.686-.9,7.373,7.373,0,0,0-3.676.9,6.352,6.352,0,0,0-2.508,2.565,8.1,8.1,0,0,0-.9,3.924,8.272,8.272,0,0,0,.9,3.952,6.5,6.5,0,0,0,2.508,2.622A7.194,7.194,0,0,0,183.939-2.6ZM208.164.38a13.806,13.806,0,0,1-3.372-.39,8.841,8.841,0,0,1-2.7-1.14A5.473,5.473,0,0,1,200.307-3a4.96,4.96,0,0,1-.636-2.527v-.589h3.249V-5.7a2.557,2.557,0,0,0,1.425,2.347,7.926,7.926,0,0,0,3.9.808,11.068,11.068,0,0,0,2.717-.3,4.376,4.376,0,0,0,1.891-.931,2.036,2.036,0,0,0,.693-1.577,2.312,2.312,0,0,0-1.473-2.252,18.561,18.561,0,0,0-4.4-1.168,23.539,23.539,0,0,1-2.926-.694,10.08,10.08,0,0,1-2.461-1.112,5.223,5.223,0,0,1-1.691-1.7,4.615,4.615,0,0,1-.617-2.441,4.656,4.656,0,0,1,1.092-3.125,6.843,6.843,0,0,1,2.954-1.957,12.091,12.091,0,0,1,4.142-.675,11.422,11.422,0,0,1,4.066.7,7.106,7.106,0,0,1,2.993,2.042,4.937,4.937,0,0,1,1.13,3.3v.38h-3.23v-.285a2.476,2.476,0,0,0-.7-1.814,4.325,4.325,0,0,0-1.824-1.064,7.958,7.958,0,0,0-2.394-.351,10.871,10.871,0,0,0-2.356.257,4.771,4.771,0,0,0-1.919.845,1.932,1.932,0,0,0-.76,1.615,2.067,2.067,0,0,0,.713,1.644,5.436,5.436,0,0,0,2.014,1.007,29.056,29.056,0,0,0,3.069.712,26.383,26.383,0,0,1,2.983.712,10.475,10.475,0,0,1,2.479,1.093,5.052,5.052,0,0,1,1.691,1.682,4.692,4.692,0,0,1,.618,2.479,4.851,4.851,0,0,1-.674,2.584A5.633,5.633,0,0,1,214.2-1.1,9.151,9.151,0,0,1,211.46.01,14.132,14.132,0,0,1,208.164.38ZM223.953-8.8v-2.888h15.6l-.57.95v-.418a7.02,7.02,0,0,0-.732-3.2,5.653,5.653,0,0,0-2.175-2.328,6.786,6.786,0,0,0-3.572-.874,7.628,7.628,0,0,0-3.781.912,6.426,6.426,0,0,0-2.546,2.575,8.119,8.119,0,0,0-.912,3.962,8.592,8.592,0,0,0,.883,4.028,6.2,6.2,0,0,0,2.518,2.6,7.83,7.83,0,0,0,3.876.912,10.275,10.275,0,0,0,2.774-.332,6.1,6.1,0,0,0,1.948-.893,4.244,4.244,0,0,0,1.169-1.225,3.312,3.312,0,0,0,.475-1.33h3.23a5.889,5.889,0,0,1-.76,2.413,7.45,7.45,0,0,1-1.881,2.176A9.5,9.5,0,0,1,236.512-.19,12.849,12.849,0,0,1,232.446.4a10.575,10.575,0,0,1-5.358-1.33,9.554,9.554,0,0,1-3.639-3.686,10.886,10.886,0,0,1-1.32-5.415,10.849,10.849,0,0,1,1.33-5.444,9.6,9.6,0,0,1,3.667-3.676,10.6,10.6,0,0,1,5.339-1.33,10.2,10.2,0,0,1,5.3,1.33,9.063,9.063,0,0,1,3.458,3.638,11.1,11.1,0,0,1,1.216,5.254q0,.3-.019.8a4.52,4.52,0,0,1-.057.665ZM248.615,0V-20.178h3.23v6.194l-1.064-.38a7.763,7.763,0,0,1,.57-2.214,6.781,6.781,0,0,1,1.263-1.976,5.8,5.8,0,0,1,2.024-1.406,7.176,7.176,0,0,1,2.85-.523,8.127,8.127,0,0,1,1.985.2,4.754,4.754,0,0,1,.96.313L259.6-16.8a3.8,3.8,0,0,0-.77-.342,5.051,5.051,0,0,0-1.643-.209,5.372,5.372,0,0,0-2.613.57,4.424,4.424,0,0,0-1.634,1.51,6.369,6.369,0,0,0-.846,2.043,9.966,9.966,0,0,0-.247,2.185V0ZM283.67.3A7.977,7.977,0,0,1,281.846.1a4.206,4.206,0,0,1-1.605-.751,3.648,3.648,0,0,1-1.13-1.539,6.731,6.731,0,0,1-.418-2.575V-17.328h-4.921v-2.85h3.154a8.191,8.191,0,0,0,1.007-.048.771.771,0,0,0,.523-.247,1.161,1.161,0,0,0,.2-.627q.038-.427.038-1.187v-4.579h3.249v6.688h6.308v2.85h-6.308V-5.985a6.6,6.6,0,0,0,.389,2.527,1.7,1.7,0,0,0,1.758.912,5.528,5.528,0,0,0,1.045-.1,4.661,4.661,0,0,0,.741-.19V-.019a6.1,6.1,0,0,1-.9.219A7.371,7.371,0,0,1,283.67.3Zm18.753.057A10.451,10.451,0,0,1,297.056-1a9.72,9.72,0,0,1-3.648-3.724,10.861,10.861,0,0,1-1.32-5.386,10.7,10.7,0,0,1,1.32-5.358,9.572,9.572,0,0,1,3.648-3.667,10.627,10.627,0,0,1,5.367-1.33,10.627,10.627,0,0,1,5.368,1.33,9.572,9.572,0,0,1,3.648,3.667,10.7,10.7,0,0,1,1.32,5.358,10.861,10.861,0,0,1-1.32,5.386A9.72,9.72,0,0,1,307.791-1,10.451,10.451,0,0,1,302.423.361Zm0-2.964a7.18,7.18,0,0,0,3.686-.931,6.518,6.518,0,0,0,2.5-2.622,8.272,8.272,0,0,0,.9-3.952,8.1,8.1,0,0,0-.9-3.924,6.37,6.37,0,0,0-2.5-2.565,7.359,7.359,0,0,0-3.686-.9,7.373,7.373,0,0,0-3.676.9,6.352,6.352,0,0,0-2.508,2.565,8.1,8.1,0,0,0-.9,3.924,8.272,8.272,0,0,0,.9,3.952,6.5,6.5,0,0,0,2.508,2.622A7.194,7.194,0,0,0,302.423-2.6ZM330.182,8.512a10.314,10.314,0,0,1-1.387-.085,3.332,3.332,0,0,1-.779-.161V5.453a3.1,3.1,0,0,0,.817.19,8.617,8.617,0,0,0,1.14.076,3.911,3.911,0,0,0,2.052-.5,4.386,4.386,0,0,0,1.406-1.368,8.268,8.268,0,0,0,.931-1.948L334.97.114l-6.954-20.292H331.4l5.586,17.385h-.456L342-20.178h3.325L337.934,1.729a19.187,19.187,0,0,1-1.51,3.382,6.993,6.993,0,0,1-2.356,2.47A7.187,7.187,0,0,1,330.182,8.512ZM358.91.361A10.451,10.451,0,0,1,353.543-1a9.72,9.72,0,0,1-3.648-3.724,10.861,10.861,0,0,1-1.32-5.386,10.7,10.7,0,0,1,1.32-5.358,9.572,9.572,0,0,1,3.648-3.667,10.627,10.627,0,0,1,5.367-1.33,10.627,10.627,0,0,1,5.368,1.33,9.572,9.572,0,0,1,3.648,3.667,10.7,10.7,0,0,1,1.32,5.358,10.861,10.861,0,0,1-1.32,5.386A9.72,9.72,0,0,1,364.278-1,10.451,10.451,0,0,1,358.91.361Zm0-2.964a7.18,7.18,0,0,0,3.686-.931,6.518,6.518,0,0,0,2.5-2.622,8.272,8.272,0,0,0,.9-3.952,8.1,8.1,0,0,0-.9-3.924,6.37,6.37,0,0,0-2.5-2.565,7.359,7.359,0,0,0-3.686-.9,7.373,7.373,0,0,0-3.676.9,6.352,6.352,0,0,0-2.508,2.565,8.1,8.1,0,0,0-.9,3.924,8.272,8.272,0,0,0,.9,3.952,6.5,6.5,0,0,0,2.508,2.622A7.194,7.194,0,0,0,358.91-2.6ZM382.869.361a7.777,7.777,0,0,1-3.61-.751,6.292,6.292,0,0,1-2.289-1.948,7.732,7.732,0,0,1-1.2-2.594,11.006,11.006,0,0,1-.352-2.688V-20.178h3.249V-8.4a9.145,9.145,0,0,0,.427,2.85,4.243,4.243,0,0,0,1.492,2.118,4.737,4.737,0,0,0,2.926.808,4.736,4.736,0,0,0,3.059-1.055,7.3,7.3,0,0,0,2.052-2.641,7.423,7.423,0,0,0,.741-3.163l1.881.779a9.448,9.448,0,0,1-.589,3.278,9.788,9.788,0,0,1-1.681,2.917,8.188,8.188,0,0,1-2.641,2.09A7.607,7.607,0,0,1,382.869.361Zm6.5-.361V-20.178h3.23V0Zm9.994,0V-20.178h3.23v6.194l-1.064-.38a7.764,7.764,0,0,1,.57-2.214,6.78,6.78,0,0,1,1.263-1.976,5.8,5.8,0,0,1,2.023-1.406,7.176,7.176,0,0,1,2.85-.523,8.127,8.127,0,0,1,1.986.2,4.754,4.754,0,0,1,.96.313l-.836,3.173a3.8,3.8,0,0,0-.77-.342,5.051,5.051,0,0,0-1.643-.209,5.372,5.372,0,0,0-2.613.57,4.424,4.424,0,0,0-1.634,1.51,6.37,6.37,0,0,0-.845,2.043,9.966,9.966,0,0,0-.247,2.185V0Zm30,0h-3.154V-28.025h5.3L443.4-1.862l-.247.152V-28.025h3.154V0h-5.377L429.077-26.125l.285-.133Zm25.213-25.175,1.463-1.843v12.806l-1.045-1.026h11.343v2.85H454.993l1.045-1.083V0h-3.23V-28.025h15.219v2.85Zm35.815,0H482.3l.741-1.843V0h-3.23V-27.018l.912,1.843h-8.246v-2.85H490.39ZM500.4.38a13.805,13.805,0,0,1-3.372-.39,8.841,8.841,0,0,1-2.7-1.14A5.473,5.473,0,0,1,492.547-3a4.96,4.96,0,0,1-.637-2.527v-.589h3.249V-5.7a2.557,2.557,0,0,0,1.425,2.347,7.925,7.925,0,0,0,3.895.808,11.068,11.068,0,0,0,2.717-.3,4.376,4.376,0,0,0,1.891-.931,2.036,2.036,0,0,0,.694-1.577,2.312,2.312,0,0,0-1.473-2.252,18.561,18.561,0,0,0-4.4-1.168,23.54,23.54,0,0,1-2.926-.694,10.08,10.08,0,0,1-2.46-1.112,5.223,5.223,0,0,1-1.691-1.7,4.615,4.615,0,0,1-.617-2.441,4.656,4.656,0,0,1,1.092-3.125,6.843,6.843,0,0,1,2.954-1.957,12.091,12.091,0,0,1,4.142-.675,11.422,11.422,0,0,1,4.066.7,7.106,7.106,0,0,1,2.992,2.042,4.937,4.937,0,0,1,1.13,3.3v.38h-3.23v-.285a2.476,2.476,0,0,0-.7-1.814,4.325,4.325,0,0,0-1.824-1.064,7.958,7.958,0,0,0-2.394-.351,10.871,10.871,0,0,0-2.356.257,4.771,4.771,0,0,0-1.919.845,1.932,1.932,0,0,0-.76,1.615,2.067,2.067,0,0,0,.712,1.644,5.436,5.436,0,0,0,2.014,1.007,29.056,29.056,0,0,0,3.069.712,26.383,26.383,0,0,1,2.983.712,10.474,10.474,0,0,1,2.479,1.093,5.052,5.052,0,0,1,1.691,1.682,4.692,4.692,0,0,1,.617,2.479,4.851,4.851,0,0,1-.674,2.584A5.633,5.633,0,0,1,506.436-1.1,9.151,9.151,0,0,1,503.7.01,14.132,14.132,0,0,1,500.4.38Z" transform="translate(7492.5 1679.138)" fill="#fff"/>
  </g>
</svg>
