<svg xmlns="http://www.w3.org/2000/svg" xmlns:xlink="http://www.w3.org/1999/xlink" width="1090" height="1534" viewBox="0 0 1090 1534">
  <defs>
    <filter id="Path_135" x="262.571" y="905.601" width="559.591" height="179.399" filterUnits="userSpaceOnUse">
      <feOffset dy="10" input="SourceAlpha"/>
      <feGaussianBlur stdDeviation="12.5" result="blur"/>
      <feFlood/>
      <feComposite operator="in" in2="blur"/>
      <feComposite in="SourceGraphic"/>
    </filter>
    <radialGradient id="radial-gradient" cx="1" cy="0.734" r="0.488" gradientTransform="translate(0 -0.1) scale(1 1.208)" gradientUnits="objectBoundingBox">
      <stop offset="0" stop-color="#1a1a1a"/>
      <stop offset="1"/>
    </radialGradient>
    <filter id="Polygon_19" x="263.273" y="277" width="582" height="520" filterUnits="userSpaceOnUse">
      <feOffset dx="4" dy="6" input="SourceAlpha"/>
      <feGaussianBlur stdDeviation="20" result="blur-2"/>
      <feFlood flood-opacity="0.059"/>
      <feComposite operator="in" in2="blur-2"/>
      <feComposite in="SourceGraphic"/>
    </filter>
    <filter id="Polygon_20" x="463.273" y="390" width="407" height="369" filterUnits="userSpaceOnUse">
      <feOffset dx="4" dy="6" input="SourceAlpha"/>
      <feGaussianBlur stdDeviation="20" result="blur-3"/>
      <feFlood flood-opacity="0.059"/>
      <feComposite operator="in" in2="blur-3"/>
      <feComposite in="SourceGraphic"/>
    </filter>
    <radialGradient id="radial-gradient-2" cx="0.621" cy="0.129" r="0.5" gradientTransform="translate(0 -0.103) scale(1 1.207)" gradientUnits="objectBoundingBox">
      <stop offset="0" stop-color="silver"/>
      <stop offset="1" stop-color="#fff"/>
    </radialGradient>
    <filter id="Polygon_21" x="324.273" y="491" width="290" height="267" filterUnits="userSpaceOnUse">
      <feOffset dx="4" dy="6" input="SourceAlpha"/>
      <feGaussianBlur stdDeviation="20" result="blur-4"/>
      <feFlood flood-opacity="0.059"/>
      <feComposite operator="in" in2="blur-4"/>
      <feComposite in="SourceGraphic"/>
    </filter>
  </defs>
  <g id="Group_174" data-name="Group 174" transform="translate(-4562 -571)">
    <rect id="Rectangle_18" data-name="Rectangle 18" width="1090" height="1534" transform="translate(4562 571)"/>
    <g transform="matrix(1, 0, 0, 1, 4562, 571)" filter="url(#Path_135)">
      <path id="Path_135-2" data-name="Path 135" d="M36.842-45.344h-14.5v29.539q0,4.033,1.58,5.723a6.5,6.5,0,0,0,4.85,1.744q3.27.055,8.066-.163V0q-12.426,1.635-18.2-2.016T12.862-15.805V-45.344H2.071V-54.5H12.862V-66.926l9.483-2.834V-54.5h14.5Zm27.577,0q4.687-10.137,17-10.137v9.919a17.181,17.181,0,0,0-11.99,3.706q-5.014,4.033-5.014,12.971V0H54.936V-54.5h9.483Zm37.6-19.075a6.219,6.219,0,0,1-4.578-1.853,6.09,6.09,0,0,1-1.853-4.469,6.272,6.272,0,0,1,1.853-4.523,6.129,6.129,0,0,1,4.578-1.907,6,6,0,0,1,4.469,1.907,6.272,6.272,0,0,1,1.853,4.523,6.09,6.09,0,0,1-1.853,4.469A6.09,6.09,0,0,1,102.024-64.419ZM97.228,0V-54.5h9.483V0Zm75.646-54.5h9.483V21.8h-9.483V-9.374q-7.085,10.791-20.6,10.791a26.148,26.148,0,0,1-19.511-8.339A28.144,28.144,0,0,1,124.7-27.25a28.144,28.144,0,0,1,8.066-20.329,26.148,26.148,0,0,1,19.511-8.338q13.516,0,20.6,10.791Zm-19.4,46.761a18.7,18.7,0,0,0,13.843-5.613,18.971,18.971,0,0,0,5.559-13.9,18.971,18.971,0,0,0-5.559-13.9,18.7,18.7,0,0,0-13.843-5.613,18.565,18.565,0,0,0-13.734,5.613,18.971,18.971,0,0,0-5.559,13.9,18.971,18.971,0,0,0,5.559,13.9A18.565,18.565,0,0,0,153.472-7.739ZM248.994,0h-8.729V-8.622h-.213q-5.429,9.9-16.818,9.9-19.479,0-19.479-23.205V-54.5h8.675v31.188q0,17.244,13.2,17.244a13.353,13.353,0,0,0,10.511-4.71q4.125-4.71,4.125-12.321V-54.5h8.729Zm-5.535-77.6a15.223,15.223,0,0,1-2.555,9.128,8.094,8.094,0,0,1-6.919,3.539,17.858,17.858,0,0,1-8.622-2.768q-4.1-2.289-6.333-2.289-4.684,0-4.684,6.014h-5q0-5.695,2.555-9.128a8.383,8.383,0,0,1,7.132-3.433q3.459,0,7.93,2.768a13.918,13.918,0,0,0,6.813,2.342q4.471,0,4.471-6.174Zm34.7,54.709a17.969,17.969,0,0,0,6.7,11.336,20.845,20.845,0,0,0,13.025,4.033q10.791,0,15.7-7.957L321.65-10.9Q313.693,1.417,297.67,1.417q-12.971,0-21.091-8.121T268.458-27.25q0-12.317,7.957-20.492t20.6-8.175q11.99,0,19.565,8.447a29.392,29.392,0,0,1,7.576,20.329,28.645,28.645,0,0,1-.327,4.251Zm18.857-24.089a18.722,18.722,0,0,0-12.644,4.306,18.639,18.639,0,0,0-6.213,11.5h36.406q-1.2-7.739-6.1-11.772A17.479,17.479,0,0,0,297.016-46.979Zm72.594,1.635h-14.5v29.539q0,4.033,1.581,5.723a6.5,6.5,0,0,0,4.85,1.744q3.27.055,8.066-.163V0q-12.426,1.635-18.2-2.016T345.63-15.805V-45.344H334.839V-54.5H345.63V-66.926l9.483-2.834V-54.5h14.5Zm27.577,0q4.687-10.137,17-10.137v9.919a17.181,17.181,0,0,0-11.99,3.706q-5.014,4.033-5.014,12.971V0H387.7V-54.5h9.483ZM472.179-54.5h9.483V0h-9.483V-9.374q-7.085,10.791-20.6,10.791a26.148,26.148,0,0,1-19.511-8.339A28.144,28.144,0,0,1,424-27.25a28.144,28.144,0,0,1,8.066-20.329,26.148,26.148,0,0,1,19.511-8.338q13.516,0,20.6,10.791Zm-19.4,46.761a18.7,18.7,0,0,0,13.843-5.613,18.971,18.971,0,0,0,5.559-13.9,18.971,18.971,0,0,0-5.559-13.9,18.7,18.7,0,0,0-13.843-5.613,18.565,18.565,0,0,0-13.734,5.613,18.971,18.971,0,0,0-5.559,13.9,18.971,18.971,0,0,0,5.559,13.9A18.565,18.565,0,0,0,452.777-7.739Z" transform="translate(300.5 1013.2)" fill="#fff" stroke="#fff" stroke-linecap="round" stroke-width="5"/>
    </g>
    <g id="Group_172" data-name="Group 172" transform="translate(4518.273 649)">
      <g transform="matrix(1, 0, 0, 1, 43.73, -78)" filter="url(#Polygon_19)">
        <g id="Polygon_19-2" data-name="Polygon 19" transform="translate(319.27 331)" fill="url(#radial-gradient)">
          <path d="M 394.4412841796875 397.5 L 67.55872344970703 397.5 C 64.12672424316406 397.5 60.75772094726562 397.0440979003906 57.5452766418457 396.1450500488281 C 54.47077941894531 395.2846069335938 51.52561187744141 394.0151977539062 48.79155731201172 392.3722229003906 C 43.51488876342773 389.2011413574219 39.07355499267578 384.6629333496094 35.94777679443359 379.2481994628906 C 32.82199859619141 373.83349609375 31.11316680908203 367.7179260253906 31.00594520568848 361.5626525878906 C 30.9504451751709 358.3733825683594 31.32405471801758 355.1881103515625 32.11650085449219 352.0953674316406 C 32.94444274902344 348.8638610839844 34.23455429077148 345.7184448242188 35.95088958740234 342.7464294433594 L 199.3921661376953 59.73126602172852 C 201.1081695556641 56.75981903076172 203.1873321533203 54.07076263427734 205.5718841552734 51.73881912231445 C 207.8541107177734 49.50698471069336 210.4256591796875 47.59148788452148 213.2151641845703 46.0455436706543 C 218.5989379882812 43.06187438964844 224.7488403320312 41.48482131958008 231 41.48482131958008 C 237.2511596679688 41.48482131958008 243.4010620117188 43.06187438964844 248.7848358154297 46.0455436706543 C 251.5743408203125 47.59148788452148 254.1458892822266 49.50698471069336 256.4281005859375 51.73881912231445 C 258.8126525878906 54.07076263427734 260.891845703125 56.75981903076172 262.6078186035156 59.73126602172852 L 426.0491638183594 342.7464294433594 C 427.7655029296875 345.7184448242188 429.0555419921875 348.8638610839844 429.883544921875 352.0953674316406 C 430.6759948730469 355.1881408691406 431.0496215820312 358.3733825683594 430.9940490722656 361.5626525878906 C 430.8869018554688 367.7179260253906 429.1780090332031 373.8335571289062 426.0522155761719 379.2482604980469 C 422.9264526367188 384.6629333496094 418.485107421875 389.2011413574219 413.2084350585938 392.3722229003906 C 410.4743957519531 394.0152587890625 407.5292358398438 395.2846069335938 404.4547119140625 396.1450500488281 C 401.2422790527344 397.0441589355469 397.873291015625 397.5 394.4412841796875 397.5 Z" stroke="none"/>
          <path d="M 231 43.98480224609375 C 225.1717681884766 43.98480224609375 219.4409484863281 45.45352172851562 214.427001953125 48.23220825195312 C 211.8332366943359 49.66961669921875 209.4420013427734 51.4508056640625 207.31982421875 53.52621459960938 C 205.0980529785156 55.69891357421875 203.1591796875 58.207275390625 201.5570068359375 60.98150634765625 L 38.11575317382812 343.9967041015625 C 36.51336669921875 346.7714538574219 35.3096923828125 349.7050476074219 34.53823852539062 352.7159423828125 C 33.80136108398438 355.591796875 33.45394897460938 358.5536193847656 33.50558471679688 361.5191040039062 C 33.60540771484375 367.2515258789062 35.19857788085938 372.9499206542969 38.11294555664062 377.9983520507812 C 41.0272216796875 383.0467529296875 45.16519165039062 387.2761535644531 50.07928466796875 390.2294006347656 C 52.6214599609375 391.7571105957031 55.36004638671875 392.9374389648438 58.21905517578125 393.7375793457031 C 61.21218872070312 394.5752258300781 64.35446166992188 395 67.5587158203125 395 L 394.4412841796875 395 C 397.6455383300781 395 400.7878723144531 394.5752258300781 403.781005859375 393.7375793457031 C 406.6399536132812 392.9374389648438 409.3785400390625 391.7571105957031 411.9207153320312 390.2294006347656 C 416.8348693847656 387.2761535644531 420.9727783203125 383.0467529296875 423.8871154785156 377.9983520507812 C 426.8014221191406 372.9499206542969 428.3945922851562 367.2515258789062 428.4944152832031 361.5191650390625 C 428.5460510253906 358.5536193847656 428.1986389160156 355.591796875 427.4617614746094 352.7159423828125 C 426.6903076171875 349.7050476074219 425.4866333007812 346.7714538574219 423.8842468261719 343.9967041015625 L 260.4429931640625 60.9814453125 C 258.8408203125 58.20721435546875 256.9019775390625 55.69891357421875 254.6802368164062 53.52615356445312 C 252.5579986572266 51.45074462890625 250.1668243408203 49.66961669921875 247.572998046875 48.23214721679688 C 242.5591125488281 45.45352172851562 236.8282928466797 43.98480224609375 231 43.98480224609375 M 231.0000152587891 38.98483276367188 C 244.1334075927734 38.98483276367188 257.2667846679688 45.48355102539062 264.7728271484375 58.48098754882812 L 428.2140502929688 341.4962158203125 C 443.2290649414062 367.4962158203125 424.4654541015625 400 394.4412841796875 400 L 67.5587158203125 400 C 37.53457641601562 400 18.77093505859375 367.4962158203125 33.78594970703125 341.4962158203125 L 197.2271728515625 58.48104858398438 C 204.7332458496094 45.48358154296875 217.8666381835938 38.98483276367188 231.0000152587891 38.98483276367188 Z" stroke="none" fill="#fff"/>
        </g>
      </g>
      <g transform="matrix(1, 0, 0, 1, 43.73, -78)" filter="url(#Polygon_20)">
        <g id="Polygon_20-2" data-name="Polygon 20" transform="translate(806.27 693) rotate(180)" fill="none">
          <path d="M114.908,49.612c12.7-22.03,44.488-22.03,57.184,0l86.394,149.91c12.679,22-3.2,49.478-28.592,49.478H57.106c-25.392,0-41.27-27.478-28.592-49.478Z" stroke="none"/>
          <path d="M 143.4999694824219 38.08976745605469 C 138.6942443847656 38.08976745605469 133.970458984375 39.30104064941406 129.8392791748047 41.59268188476562 C 127.7034606933594 42.77748107910156 125.7347869873047 44.24554443359375 123.9879302978516 45.95608520507812 C 122.1575317382812 47.74844360351562 120.5602111816406 49.81851196289062 119.2402801513672 52.10879516601562 L 32.84625244140625 202.0190124511719 C 31.52813720703125 204.3062133789062 30.53875732421875 206.7229309082031 29.90557861328125 209.2020874023438 C 29.30123901367188 211.5682678222656 29.01718139648438 214.0048980712891 29.06124877929688 216.4442291259766 C 29.14651489257812 221.1625823974609 30.46099853515625 225.8533935546875 32.86271667480469 230.0095062255859 C 35.26443481445312 234.1656188964844 38.67225646972656 237.6467590332031 42.71778869628906 240.0765838623047 C 44.80924987792969 241.3327941894531 47.06221008300781 242.3032989501953 49.41410827636719 242.9612274169922 C 51.878173828125 243.6505126953125 54.46611022949219 244.0000152587891 57.10595703125 244.0000152587891 L 229.89404296875 244.0000152587891 C 232.5338897705078 244.0000152587891 235.1217803955078 243.6505126953125 237.5858917236328 242.9612274169922 C 239.9377899169922 242.3032989501953 242.1907501220703 241.3327941894531 244.2822113037109 240.0766143798828 C 248.3277130126953 237.6467590332031 251.7355346679688 234.1656494140625 254.1372528076172 230.0095520019531 C 256.5389709472656 225.8533935546875 257.8534545898438 221.1626129150391 257.938720703125 216.4442291259766 C 257.9827880859375 214.0048980712891 257.69873046875 211.5682983398438 257.0943908691406 209.2020874023438 C 256.4612121582031 206.7229309082031 255.4718170166016 204.3062133789062 254.1537170410156 202.0190124511719 L 167.7596740722656 52.10879516601562 C 166.4397583007812 49.81851196289062 164.8424377441406 47.74844360351562 163.0120391845703 45.95608520507812 C 161.2651672363281 44.24554443359375 159.2965087890625 42.77748107910156 157.1606750488281 41.59268188476562 C 153.0294952392578 39.30104064941406 148.3056793212891 38.08976745605469 143.4999694824219 38.08976745605469 M 143.4999847412109 33.08976745605469 C 154.6218872070312 33.08976745605469 165.7437744140625 38.59724426269531 172.0917510986328 49.6121826171875 L 258.4857788085938 199.5223999023438 C 271.1644897460938 221.5223999023438 255.2859649658203 249.0000152587891 229.89404296875 249.0000152587891 L 57.10595703125 249.0000152587891 C 31.71403503417969 249.0000152587891 15.83544921875 221.5223999023438 28.51419067382812 199.5223999023438 L 114.9082183837891 49.6121826171875 C 121.2561798095703 38.59724426269531 132.3780822753906 33.08976745605469 143.4999847412109 33.08976745605469 Z" stroke="none" fill="#fff"/>
        </g>
      </g>
      <g transform="matrix(1, 0, 0, 1, 43.73, -78)" filter="url(#Polygon_21)">
        <path id="Polygon_21-2" data-name="Polygon 21" d="M66.82,31.44a21,21,0,0,1,36.359,0l48.6,84.048A21,21,0,0,1,133.6,147H36.4a21,21,0,0,1-18.18-31.512Z" transform="translate(380.27 545)" fill="url(#radial-gradient-2)"/>
      </g>
      <circle id="Ellipse_1" data-name="Ellipse 1" cx="15" cy="15" r="15" transform="translate(579 681)" fill="#fff"/>
    </g>
    <path id="Path_136" data-name="Path 136" d="M22.648-26.6,13.224-10.754V0H9.69V-10.792L.3-26.6H4.256l7.236,12.485L18.7-26.6ZM39.976-2.394A9.739,9.739,0,0,1,32.87.494a9.676,9.676,0,0,1-7.087-2.888A9.626,9.626,0,0,1,22.876-9.5a9.626,9.626,0,0,1,2.907-7.106,9.676,9.676,0,0,1,7.087-2.888,9.739,9.739,0,0,1,7.106,2.888A9.594,9.594,0,0,1,42.9-9.5,9.594,9.594,0,0,1,39.976-2.394ZM32.87-2.736a6.5,6.5,0,0,0,4.788-1.938A6.55,6.55,0,0,0,39.6-9.5a6.55,6.55,0,0,0-1.938-4.826,6.5,6.5,0,0,0-4.788-1.938,6.459,6.459,0,0,0-4.75,1.938A6.55,6.55,0,0,0,26.182-9.5,6.55,6.55,0,0,0,28.12-4.674,6.459,6.459,0,0,0,32.87-2.736ZM62.206-19h3.306V0H62.206V-2.736A6.755,6.755,0,0,1,56.05.494a7.064,7.064,0,0,1-5.358-2.109,7.938,7.938,0,0,1-2.014-5.719V-19h3.306V-7.524a4.9,4.9,0,0,0,1.254,3.591A4.633,4.633,0,0,0,56.7-2.66,5.359,5.359,0,0,0,60.686-4.2a6.494,6.494,0,0,0,1.52-4.731Zm13.908,3.192q1.634-3.534,5.928-3.534v3.458a5.99,5.99,0,0,0-4.18,1.292,5.465,5.465,0,0,0-1.748,4.522V0H72.808V-19h3.306Zm33.706-3.686a9.116,9.116,0,0,1,6.8,2.907A9.812,9.812,0,0,1,119.434-9.5a9.812,9.812,0,0,1-2.812,7.087,9.116,9.116,0,0,1-6.8,2.907,8.061,8.061,0,0,1-7.182-3.762V7.6H99.332V-19h3.306v3.268A8.061,8.061,0,0,1,109.82-19.494ZM109.4-2.7a6.472,6.472,0,0,0,4.788-1.957A6.614,6.614,0,0,0,116.128-9.5a6.614,6.614,0,0,0-1.938-4.845A6.472,6.472,0,0,0,109.4-16.3a6.517,6.517,0,0,0-4.826,1.957A6.614,6.614,0,0,0,102.638-9.5a6.614,6.614,0,0,0,1.938,4.845A6.517,6.517,0,0,0,109.4-2.7ZM127.984-7.98a6.264,6.264,0,0,0,2.337,3.952,7.267,7.267,0,0,0,4.541,1.406A5.946,5.946,0,0,0,140.334-5.4l2.812,1.6a9.284,9.284,0,0,1-8.36,4.294,9.947,9.947,0,0,1-7.353-2.831A9.708,9.708,0,0,1,124.6-9.5a9.831,9.831,0,0,1,2.774-7.144,9.579,9.579,0,0,1,7.182-2.85,8.741,8.741,0,0,1,6.821,2.945,10.247,10.247,0,0,1,2.641,7.087,9.985,9.985,0,0,1-.114,1.482Zm6.574-8.4a6.527,6.527,0,0,0-4.408,1.5,6.5,6.5,0,0,0-2.166,4.009h12.692a6.332,6.332,0,0,0-2.128-4.1A6.094,6.094,0,0,0,134.558-16.378Zm18.848.57q1.634-3.534,5.928-3.534v3.458a5.99,5.99,0,0,0-4.18,1.292,5.465,5.465,0,0,0-1.748,4.522V0H150.1V-19h3.306Zm13.566,1.882a1.949,1.949,0,0,0,1.119,1.728,12.1,12.1,0,0,0,2.668,1.1l3.115.915a5.461,5.461,0,0,1,2.652,1.725,4.809,4.809,0,0,1,1.086,3.248,4.993,4.993,0,0,1-1.995,4.142A8.058,8.058,0,0,1,170.506.494a8.889,8.889,0,0,1-4.75-1.216,6.8,6.8,0,0,1-2.812-3.23l2.85-1.634A4.01,4.01,0,0,0,167.5-3.42a5.474,5.474,0,0,0,3,.8,5.256,5.256,0,0,0,2.7-.626A2.106,2.106,0,0,0,174.268-5.2a2,2,0,0,0-1.1-1.764,11.607,11.607,0,0,0-2.652-1.129L167.4-9.03a5.781,5.781,0,0,1-2.668-1.686,4.462,4.462,0,0,1-1.1-3.116,5.057,5.057,0,0,1,1.919-4.066,7.264,7.264,0,0,1,4.807-1.6,8.078,8.078,0,0,1,4.123,1.045,6.692,6.692,0,0,1,2.717,2.907l-2.774,1.558a3.979,3.979,0,0,0-4.066-2.432,4.259,4.259,0,0,0-2.394.65A2.077,2.077,0,0,0,166.972-13.926ZM199.31-2.394A9.739,9.739,0,0,1,192.2.494a9.676,9.676,0,0,1-7.087-2.888A9.626,9.626,0,0,1,182.21-9.5a9.626,9.626,0,0,1,2.907-7.106,9.676,9.676,0,0,1,7.087-2.888,9.739,9.739,0,0,1,7.106,2.888A9.594,9.594,0,0,1,202.236-9.5,9.594,9.594,0,0,1,199.31-2.394ZM192.2-2.736a6.5,6.5,0,0,0,4.788-1.938A6.55,6.55,0,0,0,198.93-9.5a6.55,6.55,0,0,0-1.938-4.826,6.5,6.5,0,0,0-4.788-1.938,6.459,6.459,0,0,0-4.75,1.938A6.55,6.55,0,0,0,185.516-9.5a6.55,6.55,0,0,0,1.938,4.826A6.459,6.459,0,0,0,192.2-2.736Zm25.688-16.758a7.064,7.064,0,0,1,5.358,2.109,7.938,7.938,0,0,1,2.014,5.719V0h-3.306V-11.476a4.9,4.9,0,0,0-1.254-3.591,4.633,4.633,0,0,0-3.458-1.273,5.359,5.359,0,0,0-3.99,1.539,6.494,6.494,0,0,0-1.52,4.731V0H208.43V-19h3.306v2.736A6.755,6.755,0,0,1,217.892-19.494ZM247.874-19h3.306V0h-3.306V-3.268A8.061,8.061,0,0,1,240.692.494a9.116,9.116,0,0,1-6.8-2.907A9.812,9.812,0,0,1,231.078-9.5a9.812,9.812,0,0,1,2.812-7.087,9.116,9.116,0,0,1,6.8-2.907,8.061,8.061,0,0,1,7.182,3.762ZM241.11-2.7a6.517,6.517,0,0,0,4.826-1.957A6.614,6.614,0,0,0,247.874-9.5a6.614,6.614,0,0,0-1.938-4.845A6.517,6.517,0,0,0,241.11-16.3a6.472,6.472,0,0,0-4.788,1.957A6.614,6.614,0,0,0,234.384-9.5a6.614,6.614,0,0,0,1.938,4.845A6.472,6.472,0,0,0,241.11-2.7ZM258.476,0V-27.74h3.306V0Zm39.292-26.6H301.3V0h-2.85l-13.68-19.874V0h-3.534V-26.6h2.733l13.8,19.976ZM324.6-23.256h-11.78v8.626H324.1v3.344H312.816V0h-3.534V-26.6H324.6Zm23.6-3.344v3.344h-7.866V0h-3.5V-23.256H329V-26.6Zm37.734,7.106a6.817,6.817,0,0,1,5.168,2.071,7.783,7.783,0,0,1,1.976,5.6V0h-3.306V-11.7a4.808,4.808,0,0,0-1.14-3.42,3.969,3.969,0,0,0-3.04-1.216,4.335,4.335,0,0,0-3.4,1.425,6.375,6.375,0,0,0-1.273,4.351V0h-3.306V-11.7a4.969,4.969,0,0,0-1.083-3.42,3.744,3.744,0,0,0-2.945-1.216A4.621,4.621,0,0,0,370.1-14.9a6.034,6.034,0,0,0-1.387,4.332V0h-3.306V-19h3.306v2.546a6.3,6.3,0,0,1,5.662-3.04,5.9,5.9,0,0,1,5.586,3.23A6.531,6.531,0,0,1,385.928-19.494ZM415.682-19h3.306V0h-3.306V-3.268A8.061,8.061,0,0,1,408.5.494a9.116,9.116,0,0,1-6.8-2.907A9.812,9.812,0,0,1,398.886-9.5a9.812,9.812,0,0,1,2.812-7.087,9.116,9.116,0,0,1,6.8-2.907,8.061,8.061,0,0,1,7.182,3.762ZM408.918-2.7a6.517,6.517,0,0,0,4.826-1.957A6.614,6.614,0,0,0,415.682-9.5a6.614,6.614,0,0,0-1.938-4.845,6.517,6.517,0,0,0-4.826-1.957,6.472,6.472,0,0,0-4.788,1.957A6.614,6.614,0,0,0,402.192-9.5a6.614,6.614,0,0,0,1.938,4.845A6.472,6.472,0,0,0,408.918-2.7Zm20.672-13.11q1.634-3.534,5.928-3.534v3.458a5.99,5.99,0,0,0-4.18,1.292,5.465,5.465,0,0,0-1.748,4.522V0h-3.306V-19h3.306ZM457.1,0H453l-8.664-9V0h-3.306V-26.6h3.306v15.965L452.542-19H456.8l-9.082,9.2Zm5.928-7.98a6.264,6.264,0,0,0,2.337,3.952,7.267,7.267,0,0,0,4.541,1.406A5.946,5.946,0,0,0,475.38-5.4l2.812,1.6a9.284,9.284,0,0,1-8.36,4.294,9.947,9.947,0,0,1-7.353-2.831A9.708,9.708,0,0,1,459.648-9.5a9.831,9.831,0,0,1,2.774-7.144,9.579,9.579,0,0,1,7.182-2.85,8.741,8.741,0,0,1,6.821,2.945,10.247,10.247,0,0,1,2.641,7.087,9.983,9.983,0,0,1-.114,1.482Zm6.574-8.4a6.527,6.527,0,0,0-4.408,1.5,6.5,6.5,0,0,0-2.166,4.009h12.692a6.332,6.332,0,0,0-2.128-4.1A6.094,6.094,0,0,0,469.6-16.378Zm25.308.57h-5.054v10.3a2.89,2.89,0,0,0,.551,2,2.266,2.266,0,0,0,1.691.608q1.14.019,2.812-.057V0q-4.332.57-6.346-.7T486.552-5.51v-10.3H482.79V-19h3.762v-4.332l3.306-.988V-19h5.054Zm16.8-3.686a9.116,9.116,0,0,1,6.8,2.907A9.812,9.812,0,0,1,521.322-9.5a9.812,9.812,0,0,1-2.812,7.087,9.116,9.116,0,0,1-6.8,2.907,8.061,8.061,0,0,1-7.182-3.762V7.6H501.22V-19h3.306v3.268A8.061,8.061,0,0,1,511.708-19.494ZM511.29-2.7a6.472,6.472,0,0,0,4.788-1.957A6.614,6.614,0,0,0,518.016-9.5a6.614,6.614,0,0,0-1.938-4.845A6.472,6.472,0,0,0,511.29-16.3a6.517,6.517,0,0,0-4.826,1.957A6.614,6.614,0,0,0,504.526-9.5a6.614,6.614,0,0,0,1.938,4.845A6.517,6.517,0,0,0,511.29-2.7ZM527.554,0V-27.74h3.306V0Zm26.372-19h3.306V0h-3.306V-3.268A8.061,8.061,0,0,1,546.744.494a9.116,9.116,0,0,1-6.8-2.907A9.812,9.812,0,0,1,537.13-9.5a9.812,9.812,0,0,1,2.812-7.087,9.116,9.116,0,0,1,6.8-2.907,8.061,8.061,0,0,1,7.182,3.762ZM547.162-2.7a6.517,6.517,0,0,0,4.826-1.957A6.614,6.614,0,0,0,553.926-9.5a6.614,6.614,0,0,0-1.938-4.845,6.517,6.517,0,0,0-4.826-1.957,6.472,6.472,0,0,0-4.788,1.957A6.614,6.614,0,0,0,540.436-9.5a6.614,6.614,0,0,0,1.938,4.845A6.472,6.472,0,0,0,547.162-2.7Zm26.3,3.192a9.657,9.657,0,0,1-7.144-2.869,9.708,9.708,0,0,1-2.85-7.125,9.707,9.707,0,0,1,2.85-7.125,9.657,9.657,0,0,1,7.144-2.869,9.611,9.611,0,0,1,5.054,1.349,8.47,8.47,0,0,1,3.344,3.629l-2.774,1.6a5.632,5.632,0,0,0-2.223-2.432,6.419,6.419,0,0,0-3.4-.912,6.442,6.442,0,0,0-4.769,1.938A6.584,6.584,0,0,0,566.77-9.5a6.538,6.538,0,0,0,1.919,4.788,6.442,6.442,0,0,0,4.769,1.938,6.625,6.625,0,0,0,3.42-.893A5.981,5.981,0,0,0,579.2-6.08l2.812,1.634a9.238,9.238,0,0,1-3.5,3.591A9.74,9.74,0,0,1,573.458.494Zm16.15-8.474a6.264,6.264,0,0,0,2.337,3.952,7.267,7.267,0,0,0,4.541,1.406A5.947,5.947,0,0,0,601.958-5.4l2.812,1.6A9.284,9.284,0,0,1,596.41.494a9.947,9.947,0,0,1-7.353-2.831A9.708,9.708,0,0,1,586.226-9.5,9.831,9.831,0,0,1,589-16.644a9.579,9.579,0,0,1,7.182-2.85A8.741,8.741,0,0,1,603-16.549a10.247,10.247,0,0,1,2.641,7.087,9.987,9.987,0,0,1-.114,1.482Zm6.574-8.4a6.527,6.527,0,0,0-4.408,1.5,6.5,6.5,0,0,0-2.166,4.009H602.3a6.333,6.333,0,0,0-2.128-4.1A6.094,6.094,0,0,0,596.182-16.378Z" transform="translate(4802 1679.138)" fill="#fff"/>
  </g>
</svg>
